{"glyphs":{"0":{"ha":638,"x_min":39,"x_max":599,"o":"m 318 -10 q 110 117 182 -10 q 39 486 39 243 q 110 856 39 729 q 318 982 182 982 q 526 856 454 982 q 599 486 599 729 q 526 117 599 243 q 318 -10 454 -10 m 318 131 q 372 161 351 131 q 405 269 393 192 q 417 486 417 347 q 405 703 417 625 q 372 811 393 781 q 318 842 351 842 q 264 811 285 842 q 231 703 243 781 q 219 486 219 625 q 231 269 219 347 q 264 161 243 192 q 318 131 285 131 z "},"1":{"ha":638,"x_min":39,"x_max":589,"o":"m 85 0 q 57 15 65 0 q 49 60 49 29 l 49 81 q 57 126 49 113 q 85 140 65 140 l 246 140 l 246 808 l 78 782 q 48 815 57 782 q 39 883 39 849 q 71 918 39 911 l 369 976 q 403 967 386 976 q 421 944 421 957 l 421 140 l 551 140 q 580 126 571 140 q 589 81 589 113 l 589 60 q 580 14 589 28 q 551 0 571 0 l 85 0 z "},"2":{"ha":638,"x_min":26,"x_max":590,"o":"m 61 0 q 37 35 47 0 q 26 101 26 71 q 32 122 26 117 l 342 571 q 392 659 378 625 q 407 728 407 693 q 373 811 407 782 q 281 840 339 840 q 208 827 239 840 q 143 793 176 814 q 110 776 119 776 q 65 807 86 776 q 43 864 43 838 q 83 926 43 899 q 183 967 122 953 q 303 982 243 982 q 510 915 435 982 q 585 736 585 847 q 559 614 585 672 q 468 468 533 556 l 247 140 l 553 140 q 581 126 572 140 q 590 81 590 113 l 590 60 q 581 14 590 28 q 553 0 572 0 l 61 0 z "},"3":{"ha":638,"x_min":25,"x_max":585,"o":"m 293 -10 q 112 17 199 -10 q 25 92 25 44 q 47 149 25 114 q 86 185 68 185 q 118 171 94 185 q 186 141 157 151 q 257 131 215 131 q 364 169 321 131 q 407 286 407 208 q 365 404 407 367 q 239 442 324 442 l 188 442 q 159 456 168 442 q 150 501 150 469 l 150 522 q 159 568 150 554 q 188 582 168 582 l 228 582 q 338 624 299 582 q 376 721 376 665 q 347 807 376 774 q 256 840 317 840 q 190 831 215 840 q 142 810 164 822 q 115 797 121 797 q 76 831 99 797 q 54 890 54 865 q 126 957 54 932 q 289 982 199 982 q 482 917 411 982 q 553 742 553 853 q 517 617 553 669 q 419 539 481 565 l 419 533 q 540 441 496 507 q 585 282 585 375 q 547 126 585 192 q 444 25 510 60 q 293 -10 378 -10 z "},"4":{"ha":638,"x_min":10,"x_max":624,"o":"m 429 -3 q 360 38 360 -3 l 360 210 l 54 210 q 25 250 40 210 q 10 318 10 290 q 13 333 10 328 l 336 947 q 363 969 344 964 q 410 975 381 975 l 465 975 q 535 935 535 975 l 535 350 l 586 350 q 615 336 606 350 q 624 290 624 322 l 624 269 q 615 224 624 238 q 586 210 606 210 l 535 210 l 535 38 q 465 -3 535 -3 l 429 -3 m 360 350 l 360 535 q 372 718 360 622 l 367 719 l 178 350 l 360 350 z "},"5":{"ha":638,"x_min":36,"x_max":588,"o":"m 276 -10 q 153 3 208 -10 q 67 38 99 17 q 36 85 36 60 q 60 143 36 106 q 103 181 85 181 q 134 166 107 181 q 195 141 161 151 q 271 131 229 131 q 371 174 332 131 q 410 294 410 218 q 243 461 410 461 l 121 461 q 84 473 94 461 q 74 513 74 485 l 100 921 q 114 960 101 949 q 153 972 126 972 l 515 972 q 543 958 535 972 q 551 913 551 943 l 551 882 q 543 844 551 856 q 515 832 535 832 l 261 832 l 246 603 l 281 603 q 588 297 588 603 q 497 63 588 136 q 276 -10 406 -10 z "},"6":{"ha":638,"x_min":40,"x_max":600,"o":"m 319 -10 q 178 29 242 -10 q 78 148 115 68 q 40 347 40 228 q 131 708 40 567 q 328 913 221 849 q 476 976 435 976 q 521 940 504 976 q 538 876 538 903 q 535 860 538 865 q 522 851 532 856 q 342 733 413 811 q 242 547 271 656 q 369 583 300 583 q 478 553 425 583 q 566 457 532 522 q 600 294 600 392 q 561 126 600 194 q 458 24 522 57 q 319 -10 394 -10 m 322 131 q 399 174 367 131 q 432 289 432 217 q 399 402 432 361 q 314 443 365 443 q 221 414 265 443 q 218 335 218 388 q 247 178 218 225 q 322 131 276 131 z "},"7":{"ha":638,"x_min":42,"x_max":600,"o":"m 161 -3 q 90 22 90 -3 q 93 36 90 28 q 97 49 96 44 l 407 832 l 79 832 q 51 846 60 832 q 42 892 42 860 l 42 913 q 51 958 42 944 q 79 972 60 972 l 563 972 q 586 933 572 972 q 600 867 600 894 q 597 849 600 857 l 272 24 q 201 -3 264 -3 l 161 -3 z "},"8":{"ha":638,"x_min":44,"x_max":599,"o":"m 322 -10 q 117 67 189 -10 q 44 274 44 144 q 172 518 44 444 q 94 606 122 556 q 67 731 67 656 q 137 914 67 846 q 326 982 207 982 q 510 917 440 982 q 579 742 579 853 q 461 525 579 592 q 562 426 525 485 q 599 271 599 368 q 567 129 599 193 q 474 28 536 65 q 322 -10 413 -10 m 339 596 q 418 735 418 647 q 392 814 418 786 q 325 842 365 842 q 258 815 285 842 q 231 738 231 788 q 258 656 231 688 q 339 596 286 624 m 322 131 q 401 169 371 131 q 431 265 431 208 q 395 368 431 332 q 290 442 360 404 q 231 374 251 413 q 211 279 211 336 q 242 167 211 204 q 322 131 272 131 z "},"9":{"ha":638,"x_min":38,"x_max":597,"o":"m 163 -8 q 117 29 135 -8 q 100 93 100 67 q 103 109 100 104 q 117 117 107 114 q 297 235 226 157 q 396 422 368 314 q 267 385 336 385 q 158 416 211 385 q 72 513 106 447 q 38 675 38 578 q 76 843 38 775 q 179 944 115 911 q 318 978 243 978 q 460 940 397 978 q 560 822 522 901 q 597 622 597 742 q 507 260 597 401 q 310 56 417 119 q 163 -8 204 -8 m 325 526 q 418 556 368 526 q 419 635 419 582 q 390 790 419 743 q 315 838 361 838 q 239 794 272 838 q 206 679 206 751 q 239 566 206 606 q 325 526 272 526 z "},"\u0000":{"ha":0,"x_min":0,"x_max":0,"o":""},"\r":{"ha":190,"x_min":0,"x_max":0,"o":""}," ":{"ha":190,"x_min":0,"x_max":0,"o":""},"A":{"ha":701,"x_min":8,"x_max":693,"o":"m 69 -3 q 8 25 8 -3 q 11 49 8 29 l 239 940 q 314 975 247 975 l 388 975 q 464 940 454 975 l 690 49 q 693 25 693 29 q 636 -3 693 -3 l 581 -3 q 515 24 521 -3 l 471 214 l 229 214 l 185 24 q 125 -3 179 -3 l 69 -3 m 444 361 l 369 685 q 353 783 360 729 l 346 783 q 329 685 339 729 l 256 361 l 444 361 z "},"Á":{"ha":701,"x_min":8,"x_max":693,"o":"m 69 -3 q 8 25 8 -3 q 11 49 8 29 l 239 940 q 314 975 247 975 l 388 975 q 464 940 454 975 l 690 49 q 693 25 693 29 q 636 -3 693 -3 l 581 -3 q 515 24 521 -3 l 471 214 l 229 214 l 185 24 q 125 -3 179 -3 l 69 -3 m 444 361 l 369 685 q 353 783 360 729 l 346 783 q 329 685 339 729 l 256 361 l 444 361 m 329 1049 q 301 1053 308 1049 q 293 1068 293 1057 q 302 1095 293 1075 q 322 1136 311 1115 q 338 1167 332 1157 l 368 1228 q 467 1264 385 1264 q 519 1260 503 1264 q 535 1246 535 1256 q 526 1223 535 1236 q 481 1163 518 1210 l 418 1081 q 388 1057 407 1065 q 329 1049 368 1049 z "},"Ă":{"ha":701,"x_min":8,"x_max":693,"o":"m 69 -3 q 8 25 8 -3 q 11 49 8 29 l 239 940 q 314 975 247 975 l 388 975 q 464 940 454 975 l 690 49 q 693 25 693 29 q 636 -3 693 -3 l 581 -3 q 515 24 521 -3 l 471 214 l 229 214 l 185 24 q 125 -3 179 -3 l 69 -3 m 444 361 l 369 685 q 353 783 360 729 l 346 783 q 329 685 339 729 l 256 361 l 444 361 m 350 1049 q 223 1092 269 1049 q 176 1201 176 1136 q 221 1239 176 1239 q 243 1232 235 1239 q 258 1211 251 1225 q 290 1176 271 1189 q 351 1164 308 1164 q 416 1177 397 1164 q 446 1213 435 1190 q 481 1239 456 1239 q 525 1201 525 1239 q 478 1093 525 1138 q 350 1049 432 1049 z "},"Ắ":{"ha":682,"x_min":8,"x_max":693,"o":"m 318 1192 q 295 1196 301 1192 q 289 1210 289 1200 q 297 1240 289 1217 q 321 1300 306 1263 l 340 1346 q 435 1383 360 1383 q 474 1378 463 1383 q 486 1356 486 1372 q 468 1322 486 1347 q 411 1246 450 1296 l 386 1214 q 363 1197 378 1203 q 318 1192 347 1192 m 340 1049 q 249 1067 289 1049 q 188 1116 210 1086 q 167 1179 167 1146 q 211 1222 167 1222 q 233 1215 225 1222 q 249 1193 242 1208 q 279 1158 260 1172 q 342 1143 299 1143 q 406 1158 388 1143 q 436 1196 425 1172 q 449 1215 442 1208 q 471 1222 457 1222 q 515 1181 515 1222 q 494 1117 515 1147 q 433 1067 474 1086 q 340 1049 393 1049 m 69 -3 q 8 25 8 -3 q 11 49 8 29 l 239 940 q 314 975 247 975 l 388 975 q 464 940 454 975 l 690 49 q 693 25 693 29 q 636 -3 693 -3 l 581 -3 q 515 24 521 -3 l 471 214 l 229 214 l 185 24 q 125 -3 179 -3 l 69 -3 m 444 361 l 369 685 q 353 783 360 729 l 346 783 q 329 685 339 729 l 256 361 l 444 361 z "},"Ặ":{"ha":701,"x_min":8,"x_max":693,"o":"m 69 -3 q 8 25 8 -3 q 11 49 8 29 l 239 940 q 314 975 247 975 l 388 975 q 464 940 454 975 l 690 49 q 693 25 693 29 q 636 -3 693 -3 l 581 -3 q 515 24 521 -3 l 471 214 l 229 214 l 185 24 q 125 -3 179 -3 l 69 -3 m 444 361 l 369 685 q 353 783 360 729 l 346 783 q 329 685 339 729 l 256 361 l 444 361 m 357 -269 q 272 -229 272 -269 l 272 -151 q 356 -111 272 -111 q 440 -151 440 -111 l 440 -229 q 357 -269 440 -269 m 350 1049 q 223 1092 269 1049 q 176 1201 176 1136 q 221 1239 176 1239 q 243 1232 235 1239 q 258 1211 251 1225 q 290 1176 271 1189 q 351 1164 308 1164 q 416 1177 397 1164 q 446 1213 435 1190 q 481 1239 456 1239 q 525 1201 525 1239 q 478 1093 525 1138 q 350 1049 432 1049 z "},"Ằ":{"ha":682,"x_min":8,"x_max":693,"o":"m 368 1192 q 299 1217 318 1192 q 224 1318 247 1286 q 201 1360 201 1350 q 214 1378 201 1374 q 256 1383 226 1383 q 353 1346 336 1383 q 401 1210 401 1228 q 394 1196 401 1200 q 368 1192 388 1192 m 340 1049 q 249 1067 289 1049 q 188 1116 210 1086 q 167 1179 167 1146 q 211 1222 167 1222 q 233 1215 225 1222 q 249 1193 242 1208 q 279 1158 260 1172 q 342 1143 299 1143 q 406 1158 388 1143 q 436 1196 425 1172 q 449 1215 442 1208 q 471 1222 457 1222 q 515 1181 515 1222 q 494 1117 515 1147 q 433 1067 474 1086 q 340 1049 393 1049 m 69 -3 q 8 25 8 -3 q 11 49 8 29 l 239 940 q 314 975 247 975 l 388 975 q 464 940 454 975 l 690 49 q 693 25 693 29 q 636 -3 693 -3 l 581 -3 q 515 24 521 -3 l 471 214 l 229 214 l 185 24 q 125 -3 179 -3 l 69 -3 m 444 361 l 369 685 q 353 783 360 729 l 346 783 q 329 685 339 729 l 256 361 l 444 361 z "},"Ẳ":{"ha":682,"x_min":8,"x_max":693,"o":"m 346 1201 q 304 1210 321 1201 q 288 1231 288 1219 q 317 1256 288 1242 q 350 1276 340 1267 q 360 1299 360 1285 q 349 1320 360 1313 q 324 1328 339 1328 q 276 1317 294 1328 q 253 1306 257 1306 q 229 1326 244 1306 q 214 1360 214 1347 q 251 1386 214 1374 q 325 1399 288 1399 q 415 1374 379 1399 q 450 1306 450 1350 q 410 1232 450 1265 q 377 1211 396 1221 q 346 1201 358 1201 m 340 1049 q 249 1067 289 1049 q 188 1116 210 1086 q 167 1179 167 1146 q 211 1222 167 1222 q 233 1215 225 1222 q 249 1193 242 1208 q 279 1158 260 1172 q 342 1143 299 1143 q 406 1158 388 1143 q 436 1196 425 1172 q 449 1215 442 1208 q 471 1222 457 1222 q 515 1181 515 1222 q 494 1117 515 1147 q 433 1067 474 1086 q 340 1049 393 1049 m 69 -3 q 8 25 8 -3 q 11 49 8 29 l 239 940 q 314 975 247 975 l 388 975 q 464 940 454 975 l 690 49 q 693 25 693 29 q 636 -3 693 -3 l 581 -3 q 515 24 521 -3 l 471 214 l 229 214 l 185 24 q 125 -3 179 -3 l 69 -3 m 444 361 l 369 685 q 353 783 360 729 l 346 783 q 329 685 339 729 l 256 361 l 444 361 z "},"Ẵ":{"ha":682,"x_min":8,"x_max":693,"o":"m 175 1256 q 151 1285 151 1263 q 156 1306 151 1293 q 199 1376 171 1351 q 265 1401 228 1401 q 350 1376 292 1401 q 381 1365 358 1374 q 418 1356 404 1356 q 436 1361 428 1356 q 456 1383 444 1367 q 486 1406 469 1406 q 503 1403 492 1406 l 514 1399 q 539 1369 539 1389 q 538 1358 539 1364 q 535 1349 536 1351 q 490 1278 518 1304 q 424 1253 461 1253 q 384 1260 407 1253 q 339 1276 361 1268 q 271 1297 289 1297 q 253 1292 261 1297 q 233 1271 244 1286 q 204 1249 219 1249 q 188 1251 199 1249 l 175 1256 m 340 1026 q 215 1065 263 1026 q 167 1157 167 1104 q 211 1199 167 1199 q 233 1192 225 1199 q 249 1171 242 1185 q 279 1134 260 1149 q 342 1119 299 1119 q 406 1134 388 1119 q 436 1172 425 1149 q 449 1192 442 1185 q 471 1199 457 1199 q 515 1157 515 1199 q 467 1065 515 1104 q 340 1026 419 1026 m 69 -3 q 8 25 8 -3 q 11 49 8 29 l 239 940 q 314 975 247 975 l 388 975 q 464 940 454 975 l 690 49 q 693 25 693 29 q 636 -3 693 -3 l 581 -3 q 515 24 521 -3 l 471 214 l 229 214 l 185 24 q 125 -3 179 -3 l 69 -3 m 444 361 l 369 685 q 353 783 360 729 l 346 783 q 329 685 339 729 l 256 361 l 444 361 z "},"Â":{"ha":701,"x_min":8,"x_max":693,"o":"m 69 -3 q 8 25 8 -3 q 11 49 8 29 l 239 940 q 314 975 247 975 l 388 975 q 464 940 454 975 l 690 49 q 693 25 693 29 q 636 -3 693 -3 l 581 -3 q 515 24 521 -3 l 471 214 l 229 214 l 185 24 q 125 -3 179 -3 l 69 -3 m 444 361 l 369 685 q 353 783 360 729 l 346 783 q 329 685 339 729 l 256 361 l 444 361 m 214 1042 q 186 1057 186 1042 q 196 1082 186 1065 l 274 1215 q 301 1237 283 1231 q 346 1243 318 1243 l 354 1243 q 399 1237 382 1243 q 426 1215 417 1231 l 507 1082 q 515 1058 515 1063 q 489 1042 515 1042 l 454 1042 q 396 1065 408 1042 l 350 1142 l 306 1067 q 247 1042 289 1042 l 214 1042 z "},"Ấ":{"ha":682,"x_min":8,"x_max":693,"o":"m 483 1183 q 460 1188 467 1183 q 453 1201 453 1192 q 461 1231 453 1208 q 485 1292 469 1254 l 504 1338 q 599 1375 524 1375 q 638 1369 626 1375 q 650 1347 650 1364 q 632 1313 650 1339 q 575 1238 614 1288 l 550 1206 q 526 1189 542 1194 q 483 1183 511 1183 m 213 1042 q 185 1057 185 1042 q 192 1081 185 1067 l 264 1215 q 290 1238 272 1232 q 336 1243 308 1243 l 344 1243 q 391 1238 374 1243 q 417 1215 408 1232 l 490 1081 q 499 1058 499 1064 q 471 1042 499 1042 l 436 1042 q 378 1065 390 1042 l 340 1142 l 303 1065 q 281 1047 296 1051 q 246 1042 267 1042 l 213 1042 m 69 -3 q 8 25 8 -3 q 11 49 8 29 l 239 940 q 314 975 247 975 l 388 975 q 464 940 454 975 l 690 49 q 693 25 693 29 q 636 -3 693 -3 l 581 -3 q 515 24 521 -3 l 471 214 l 229 214 l 185 24 q 125 -3 179 -3 l 69 -3 m 444 361 l 369 685 q 353 783 360 729 l 346 783 q 329 685 339 729 l 256 361 l 444 361 z "},"Ậ":{"ha":701,"x_min":8,"x_max":693,"o":"m 69 -3 q 8 25 8 -3 q 11 49 8 29 l 239 940 q 314 975 247 975 l 388 975 q 464 940 454 975 l 690 49 q 693 25 693 29 q 636 -3 693 -3 l 581 -3 q 515 24 521 -3 l 471 214 l 229 214 l 185 24 q 125 -3 179 -3 l 69 -3 m 444 361 l 369 685 q 353 783 360 729 l 346 783 q 329 685 339 729 l 256 361 l 444 361 m 357 -269 q 272 -229 272 -269 l 272 -151 q 356 -111 272 -111 q 440 -151 440 -111 l 440 -229 q 357 -269 440 -269 m 214 1042 q 186 1057 186 1042 q 196 1082 186 1065 l 274 1215 q 301 1237 283 1231 q 346 1243 318 1243 l 354 1243 q 399 1237 382 1243 q 426 1215 417 1231 l 507 1082 q 515 1058 515 1063 q 489 1042 515 1042 l 454 1042 q 396 1065 408 1042 l 350 1142 l 306 1067 q 247 1042 289 1042 l 214 1042 z "},"Ầ":{"ha":682,"x_min":8,"x_max":693,"o":"m 546 1183 q 476 1208 496 1183 q 444 1251 447 1247 q 413 1294 436 1263 q 384 1334 389 1325 q 379 1350 379 1343 q 392 1369 379 1364 q 433 1375 404 1375 q 531 1338 514 1375 q 567 1244 554 1278 q 579 1201 579 1210 q 572 1188 579 1192 q 546 1183 565 1183 m 213 1042 q 185 1057 185 1042 q 192 1081 185 1067 l 264 1215 q 290 1238 272 1232 q 336 1243 308 1243 l 344 1243 q 391 1238 374 1243 q 417 1215 408 1232 l 490 1081 q 499 1058 499 1064 q 471 1042 499 1042 l 436 1042 q 378 1065 390 1042 l 340 1142 l 303 1065 q 281 1047 296 1051 q 246 1042 267 1042 l 213 1042 m 69 -3 q 8 25 8 -3 q 11 49 8 29 l 239 940 q 314 975 247 975 l 388 975 q 464 940 454 975 l 690 49 q 693 25 693 29 q 636 -3 693 -3 l 581 -3 q 515 24 521 -3 l 471 214 l 229 214 l 185 24 q 125 -3 179 -3 l 69 -3 m 444 361 l 369 685 q 353 783 360 729 l 346 783 q 329 685 339 729 l 256 361 l 444 361 z "},"Ẩ":{"ha":682,"x_min":8,"x_max":693,"o":"m 510 1193 q 469 1202 485 1193 q 453 1222 453 1211 q 482 1247 453 1233 q 515 1268 506 1260 q 525 1290 525 1276 q 514 1312 525 1304 q 488 1319 503 1319 q 440 1308 458 1319 q 417 1297 421 1297 q 394 1317 408 1297 q 379 1351 379 1338 q 415 1378 379 1365 q 489 1390 451 1390 q 578 1366 543 1390 q 614 1297 614 1342 q 574 1224 614 1257 q 541 1203 560 1213 q 510 1193 522 1193 m 213 1042 q 185 1057 185 1042 q 192 1081 185 1067 l 264 1215 q 290 1238 272 1232 q 336 1243 308 1243 l 344 1243 q 391 1238 374 1243 q 417 1215 408 1232 l 490 1081 q 499 1058 499 1064 q 471 1042 499 1042 l 436 1042 q 378 1065 390 1042 l 340 1142 l 303 1065 q 281 1047 296 1051 q 246 1042 267 1042 l 213 1042 m 69 -3 q 8 25 8 -3 q 11 49 8 29 l 239 940 q 314 975 247 975 l 388 975 q 464 940 454 975 l 690 49 q 693 25 693 29 q 636 -3 693 -3 l 581 -3 q 515 24 521 -3 l 471 214 l 229 214 l 185 24 q 125 -3 179 -3 l 69 -3 m 444 361 l 369 685 q 353 783 360 729 l 346 783 q 329 685 339 729 l 256 361 l 444 361 z "},"Ẫ":{"ha":682,"x_min":8,"x_max":693,"o":"m 172 1246 q 149 1275 149 1254 q 154 1296 149 1285 q 198 1366 169 1340 q 265 1392 226 1392 q 350 1367 292 1392 q 377 1356 354 1365 q 415 1346 400 1346 q 435 1351 426 1346 q 453 1374 443 1357 q 485 1396 468 1396 q 501 1393 490 1396 l 513 1389 q 536 1358 536 1379 q 532 1339 536 1347 q 488 1268 517 1294 q 422 1242 460 1242 q 338 1267 396 1242 q 269 1288 288 1288 q 232 1260 250 1288 q 217 1242 224 1247 q 201 1238 211 1238 q 186 1240 197 1238 l 172 1246 m 213 1042 q 191 1045 197 1042 q 185 1058 185 1049 q 196 1086 185 1064 l 264 1185 q 292 1206 275 1200 q 338 1213 308 1213 l 346 1213 q 392 1206 375 1213 q 418 1185 408 1200 l 488 1086 q 499 1058 499 1068 q 492 1047 499 1051 q 471 1042 485 1042 l 436 1042 q 401 1047 413 1042 q 379 1065 389 1053 l 342 1129 l 303 1065 q 280 1047 292 1051 q 246 1042 268 1042 l 213 1042 m 69 -3 q 8 25 8 -3 q 11 49 8 29 l 239 940 q 314 975 247 975 l 388 975 q 464 940 454 975 l 690 49 q 693 25 693 29 q 636 -3 693 -3 l 581 -3 q 515 24 521 -3 l 471 214 l 229 214 l 185 24 q 125 -3 179 -3 l 69 -3 m 444 361 l 369 685 q 353 783 360 729 l 346 783 q 329 685 339 729 l 256 361 l 444 361 z "},"Ä":{"ha":701,"x_min":8,"x_max":693,"o":"m 69 -3 q 8 25 8 -3 q 11 49 8 29 l 239 940 q 314 975 247 975 l 388 975 q 464 940 454 975 l 690 49 q 693 25 693 29 q 636 -3 693 -3 l 581 -3 q 515 24 521 -3 l 471 214 l 229 214 l 185 24 q 125 -3 179 -3 l 69 -3 m 444 361 l 369 685 q 353 783 360 729 l 346 783 q 329 685 339 729 l 256 361 l 444 361 m 250 1063 q 178 1103 178 1063 l 178 1181 q 249 1221 178 1221 q 319 1181 319 1221 l 319 1103 q 250 1063 319 1063 m 457 1063 q 386 1103 386 1063 l 386 1181 q 456 1221 386 1221 q 528 1181 528 1221 l 528 1103 q 457 1063 528 1063 z "},"Ạ":{"ha":701,"x_min":8,"x_max":693,"o":"m 69 -3 q 8 25 8 -3 q 11 49 8 29 l 239 940 q 314 975 247 975 l 388 975 q 464 940 454 975 l 690 49 q 693 25 693 29 q 636 -3 693 -3 l 581 -3 q 515 24 521 -3 l 471 214 l 229 214 l 185 24 q 125 -3 179 -3 l 69 -3 m 444 361 l 369 685 q 353 783 360 729 l 346 783 q 329 685 339 729 l 256 361 l 444 361 m 357 -269 q 272 -229 272 -269 l 272 -151 q 356 -111 272 -111 q 440 -151 440 -111 l 440 -229 q 357 -269 440 -269 z "},"À":{"ha":701,"x_min":8,"x_max":693,"o":"m 69 -3 q 8 25 8 -3 q 11 49 8 29 l 239 940 q 314 975 247 975 l 388 975 q 464 940 454 975 l 690 49 q 693 25 693 29 q 636 -3 693 -3 l 581 -3 q 515 24 521 -3 l 471 214 l 229 214 l 185 24 q 125 -3 179 -3 l 69 -3 m 444 361 l 369 685 q 353 783 360 729 l 346 783 q 329 685 339 729 l 256 361 l 444 361 m 376 1049 q 319 1058 338 1049 q 289 1081 300 1067 l 226 1161 q 180 1223 189 1210 q 171 1246 171 1236 q 188 1260 171 1256 q 240 1264 204 1264 q 340 1228 319 1264 q 394 1117 375 1157 q 413 1068 413 1078 q 405 1053 413 1057 q 376 1049 397 1049 z "},"Ả":{"ha":701,"x_min":8,"x_max":693,"o":"m 69 -3 q 8 25 8 -3 q 11 49 8 29 l 239 940 q 314 975 247 975 l 388 975 q 464 940 454 975 l 690 49 q 693 25 693 29 q 636 -3 693 -3 l 581 -3 q 515 24 521 -3 l 471 214 l 229 214 l 185 24 q 125 -3 179 -3 l 69 -3 m 444 361 l 369 685 q 353 783 360 729 l 346 783 q 329 685 339 729 l 256 361 l 444 361 m 376 1035 q 334 1044 357 1035 q 311 1064 311 1054 q 322 1083 311 1072 q 347 1104 333 1093 q 388 1140 374 1124 q 403 1175 403 1156 q 389 1199 403 1190 q 356 1208 375 1208 q 316 1200 333 1208 q 296 1192 299 1192 q 272 1212 288 1192 q 257 1246 257 1232 q 294 1274 257 1260 q 367 1289 331 1289 q 471 1262 431 1289 q 511 1182 511 1235 q 484 1113 511 1146 q 424 1057 457 1079 q 376 1035 390 1035 z "},"Ā":{"ha":701,"x_min":8,"x_max":693,"o":"m 69 -3 q 8 25 8 -3 q 11 49 8 29 l 239 940 q 314 975 247 975 l 388 975 q 464 940 454 975 l 690 49 q 693 25 693 29 q 636 -3 693 -3 l 581 -3 q 515 24 521 -3 l 471 214 l 229 214 l 185 24 q 125 -3 179 -3 l 69 -3 m 444 361 l 369 685 q 353 783 360 729 l 346 783 q 329 685 339 729 l 256 361 l 444 361 m 219 1082 q 192 1094 200 1082 q 183 1133 183 1107 l 183 1151 q 192 1190 183 1178 q 219 1203 200 1203 l 488 1203 q 515 1191 507 1203 q 524 1151 524 1179 l 524 1133 q 515 1094 524 1106 q 488 1082 507 1082 l 219 1082 z "},"Ą":{"ha":701,"x_min":8,"x_max":710,"o":"m 674 -136 q 701 -145 692 -136 q 710 -175 710 -154 q 689 -217 710 -203 q 606 -236 650 -236 q 501 -195 528 -236 q 474 -108 474 -154 q 483 -43 474 -81 q 514 29 493 -6 l 471 214 l 229 214 l 185 24 q 125 -3 179 -3 l 69 -3 q 8 25 8 -3 q 11 49 8 29 l 239 940 q 314 975 247 975 l 388 975 q 464 940 454 975 l 690 49 q 693 25 693 29 q 636 -3 693 -3 l 581 -3 q 564 -82 564 -47 q 632 -143 564 -143 q 655 -140 643 -143 q 674 -136 667 -136 m 444 361 l 369 685 q 353 783 360 729 l 346 783 q 329 685 339 729 l 256 361 l 444 361 z "},"Å":{"ha":701,"x_min":8,"x_max":693,"o":"m 69 -3 q 8 25 8 -3 q 11 49 8 29 l 239 940 q 314 975 247 975 l 388 975 q 464 940 454 975 l 690 49 q 693 25 693 29 q 636 -3 693 -3 l 581 -3 q 515 24 521 -3 l 471 214 l 229 214 l 185 24 q 125 -3 179 -3 l 69 -3 m 444 361 l 369 685 q 353 783 360 729 l 346 783 q 329 685 339 729 l 256 361 l 444 361 m 349 1017 q 255 1053 290 1017 q 219 1147 219 1089 q 255 1242 219 1206 q 349 1278 290 1278 q 444 1242 410 1278 q 479 1147 479 1206 q 444 1053 479 1089 q 349 1017 410 1017 m 350 1090 q 391 1105 376 1090 q 406 1146 406 1119 q 391 1189 406 1174 q 350 1204 376 1204 q 309 1189 324 1204 q 293 1146 294 1174 q 350 1090 296 1090 z "},"Ǻ":{"ha":701,"x_min":8,"x_max":693,"o":"m 332 1211 q 308 1215 315 1211 q 301 1229 301 1219 q 325 1294 301 1238 l 354 1365 q 447 1403 372 1403 q 487 1397 475 1403 q 499 1375 499 1392 q 481 1341 499 1367 q 424 1265 463 1315 l 399 1233 q 374 1217 389 1222 q 332 1211 360 1211 m 690 49 q 693 25 693 29 q 636 -3 693 -3 l 581 -3 q 515 24 521 -3 l 471 214 l 229 214 l 185 24 q 125 -3 179 -3 l 69 -3 q 8 25 8 -3 q 11 49 8 29 l 239 940 q 253 961 240 951 q 221 1053 221 997 q 256 1147 221 1111 q 350 1183 292 1183 q 446 1147 411 1183 q 481 1053 481 1111 q 449 961 481 997 q 464 940 458 956 l 690 49 m 351 1110 q 310 1094 325 1110 q 294 1051 296 1079 q 351 996 297 996 q 392 1010 378 996 q 407 1051 407 1025 q 392 1094 407 1079 q 351 1110 378 1110 m 444 361 l 369 685 q 353 783 360 729 l 346 783 q 329 685 339 729 l 256 361 l 444 361 z "},"Ã":{"ha":701,"x_min":8,"x_max":693,"o":"m 69 -3 q 8 25 8 -3 q 11 49 8 29 l 239 940 q 314 975 247 975 l 388 975 q 464 940 454 975 l 690 49 q 693 25 693 29 q 636 -3 693 -3 l 581 -3 q 515 24 521 -3 l 471 214 l 229 214 l 185 24 q 125 -3 179 -3 l 69 -3 m 444 361 l 369 685 q 353 783 360 729 l 346 783 q 329 685 339 729 l 256 361 l 444 361 m 158 1063 q 132 1092 132 1069 q 138 1113 132 1100 q 185 1183 154 1158 q 258 1208 215 1208 q 351 1183 288 1208 q 425 1163 403 1163 q 467 1189 447 1163 q 501 1213 482 1213 q 519 1208 510 1213 l 532 1204 q 558 1175 558 1197 q 553 1154 558 1168 q 505 1084 536 1110 q 432 1058 474 1058 q 375 1069 407 1058 q 335 1083 343 1081 q 264 1104 285 1104 q 224 1076 242 1104 q 208 1059 215 1064 q 190 1054 200 1054 q 172 1057 183 1054 l 158 1063 z "},"Æ":{"ha":1036,"x_min":3,"x_max":969,"o":"m 75 -3 q 3 25 3 -3 q 8 50 3 39 l 354 935 q 403 972 368 972 l 933 972 q 968 913 968 972 l 968 876 q 933 817 968 817 l 593 817 l 624 575 l 904 575 q 939 515 939 575 l 939 479 q 904 419 939 419 l 644 419 l 679 156 l 935 156 q 969 96 969 156 l 969 60 q 935 0 969 0 l 557 0 q 530 10 539 0 q 518 42 521 19 l 497 214 l 247 214 l 175 24 q 124 -3 165 -3 l 75 -3 m 300 369 l 479 369 l 446 665 l 444 758 l 440 758 l 410 667 l 300 369 z "},"Ǽ":{"ha":1036,"x_min":3,"x_max":969,"o":"m 75 -3 q 3 25 3 -3 q 8 50 3 39 l 354 935 q 403 972 368 972 l 933 972 q 968 913 968 972 l 968 876 q 933 817 968 817 l 593 817 l 624 575 l 904 575 q 939 515 939 575 l 939 479 q 904 419 939 419 l 644 419 l 679 156 l 935 156 q 969 96 969 156 l 969 60 q 935 0 969 0 l 557 0 q 530 10 539 0 q 518 42 521 19 l 497 214 l 247 214 l 175 24 q 124 -3 165 -3 l 75 -3 m 300 369 l 479 369 l 446 665 l 444 758 l 440 758 l 410 667 l 300 369 m 525 1049 q 497 1053 504 1049 q 489 1068 489 1057 q 498 1095 489 1075 q 517 1136 507 1115 q 533 1167 528 1157 l 564 1228 q 663 1264 581 1264 q 715 1260 699 1264 q 731 1246 731 1256 q 722 1223 731 1236 q 676 1163 714 1210 l 614 1081 q 583 1057 603 1065 q 525 1049 564 1049 z "},"B":{"ha":749,"x_min":89,"x_max":693,"o":"m 136 0 q 100 12 111 0 q 89 51 89 24 l 89 922 q 100 960 89 949 q 136 972 111 972 l 382 972 q 594 910 525 972 q 664 733 664 847 q 629 597 664 656 q 539 511 594 539 l 539 506 q 648 428 603 486 q 693 275 693 371 q 615 72 693 144 q 385 0 538 0 l 136 0 m 379 568 q 458 603 431 568 q 486 701 486 638 q 460 797 486 768 q 381 826 435 826 l 267 826 l 267 568 l 379 568 m 399 146 q 513 290 513 146 q 483 391 513 358 q 392 424 453 424 l 267 424 l 267 146 l 399 146 z "},"C":{"ha":638,"x_min":57,"x_max":607,"o":"m 425 -10 q 145 110 233 -10 q 57 488 57 231 q 149 860 57 738 q 429 982 240 982 q 557 964 506 982 q 586 943 578 957 q 593 907 594 929 q 577 828 593 865 q 536 803 561 792 q 436 822 489 822 q 294 740 340 822 q 247 488 247 657 q 294 234 247 317 q 440 151 340 151 q 494 157 471 151 q 546 172 517 163 q 558 175 554 175 q 594 144 582 175 q 607 68 607 113 q 599 35 607 49 q 569 14 592 22 q 507 -3 546 4 q 425 -10 468 -10 z "},"Ć":{"ha":638,"x_min":57,"x_max":607,"o":"m 425 -10 q 145 110 233 -10 q 57 488 57 231 q 149 860 57 738 q 429 982 240 982 q 557 964 506 982 q 586 943 578 957 q 593 907 594 929 q 577 828 593 865 q 536 803 561 792 q 436 822 489 822 q 294 740 340 822 q 247 488 247 657 q 294 234 247 317 q 440 151 340 151 q 494 157 471 151 q 546 172 517 163 q 558 175 554 175 q 594 144 582 175 q 607 68 607 113 q 599 35 607 49 q 569 14 592 22 q 507 -3 546 4 q 425 -10 468 -10 m 390 1049 q 362 1053 369 1049 q 354 1068 354 1057 q 363 1095 354 1075 q 383 1136 372 1115 q 399 1167 393 1157 l 429 1228 q 528 1264 446 1264 q 580 1260 564 1264 q 596 1246 596 1256 q 588 1223 596 1236 q 542 1163 579 1210 l 479 1081 q 449 1057 468 1065 q 390 1049 429 1049 z "},"Č":{"ha":638,"x_min":57,"x_max":607,"o":"m 425 -10 q 145 110 233 -10 q 57 488 57 231 q 149 860 57 738 q 429 982 240 982 q 557 964 506 982 q 586 943 578 957 q 593 907 594 929 q 577 828 593 865 q 536 803 561 792 q 436 822 489 822 q 294 740 340 822 q 247 488 247 657 q 294 234 247 317 q 440 151 340 151 q 494 157 471 151 q 546 172 517 163 q 558 175 554 175 q 594 144 582 175 q 607 68 607 113 q 599 35 607 49 q 569 14 592 22 q 507 -3 546 4 q 425 -10 468 -10 m 407 1046 q 363 1052 379 1046 q 336 1074 346 1058 l 258 1207 q 249 1231 249 1222 q 276 1246 249 1246 l 310 1246 q 368 1222 350 1246 l 413 1146 l 458 1222 q 517 1246 471 1246 l 551 1246 q 578 1231 578 1246 q 569 1207 578 1224 l 489 1074 q 463 1052 479 1058 q 419 1046 446 1046 l 407 1046 z "},"Ç":{"ha":638,"x_min":57,"x_max":607,"o":"m 546 172 q 558 175 554 175 q 594 144 582 175 q 607 68 607 113 q 599 35 607 49 q 569 14 592 22 q 461 -8 525 -3 l 444 -72 q 511 -101 485 -76 q 538 -172 538 -126 q 499 -263 538 -233 q 396 -293 460 -293 q 299 -273 342 -293 q 256 -225 256 -253 q 268 -190 256 -204 q 293 -175 281 -175 q 326 -186 301 -175 q 385 -204 363 -204 q 410 -197 400 -204 q 421 -175 421 -190 q 412 -153 421 -160 q 383 -137 403 -147 q 351 -110 351 -126 q 383 -8 351 -97 q 135 124 214 4 q 57 488 57 244 q 149 860 57 738 q 429 982 240 982 q 557 964 506 982 q 586 943 578 957 q 593 907 594 929 q 577 828 593 865 q 536 803 561 792 q 436 822 489 822 q 294 740 340 822 q 247 488 247 657 q 294 234 247 317 q 440 151 340 151 q 494 157 471 151 q 546 172 517 163 z "},"Ĉ":{"ha":638,"x_min":57,"x_max":607,"o":"m 425 -10 q 145 110 233 -10 q 57 488 57 231 q 149 860 57 738 q 429 982 240 982 q 557 964 506 982 q 586 943 578 957 q 593 907 594 929 q 577 828 593 865 q 536 803 561 792 q 436 822 489 822 q 294 740 340 822 q 247 488 247 657 q 294 234 247 317 q 440 151 340 151 q 494 157 471 151 q 546 172 517 163 q 558 175 554 175 q 594 144 582 175 q 607 68 607 113 q 599 35 607 49 q 569 14 592 22 q 507 -3 546 4 q 425 -10 468 -10 m 275 1042 q 247 1057 247 1042 q 257 1082 247 1065 l 335 1215 q 362 1237 344 1231 q 407 1243 379 1243 l 415 1243 q 460 1237 443 1243 q 488 1215 478 1231 l 568 1082 q 576 1058 576 1063 q 550 1042 576 1042 l 515 1042 q 457 1065 469 1042 l 411 1142 l 367 1067 q 308 1042 350 1042 l 275 1042 z "},"Ċ":{"ha":638,"x_min":57,"x_max":607,"o":"m 425 -10 q 145 110 233 -10 q 57 488 57 231 q 149 860 57 738 q 429 982 240 982 q 557 964 506 982 q 586 943 578 957 q 593 907 594 929 q 577 828 593 865 q 536 803 561 792 q 436 822 489 822 q 294 740 340 822 q 247 488 247 657 q 294 234 247 317 q 440 151 340 151 q 494 157 471 151 q 546 172 517 163 q 558 175 554 175 q 594 144 582 175 q 607 68 607 113 q 599 35 607 49 q 569 14 592 22 q 507 -3 546 4 q 425 -10 468 -10 m 414 1063 q 329 1103 329 1063 l 329 1181 q 413 1221 329 1221 q 497 1181 497 1221 l 497 1103 q 414 1063 497 1063 z "},"D":{"ha":801,"x_min":89,"x_max":740,"o":"m 136 0 q 100 12 111 0 q 89 51 89 24 l 89 921 q 100 960 89 949 q 136 972 111 972 l 389 972 q 653 853 565 972 q 740 486 740 735 q 653 119 740 238 q 389 0 565 0 l 136 0 m 383 156 q 510 233 468 156 q 551 486 551 310 q 510 740 551 663 q 383 817 468 817 l 276 817 l 276 156 l 383 156 z "},"Ǳ":{"ha":1506,"x_min":89,"x_max":1458,"o":"m 136 0 q 100 12 111 0 q 89 51 89 24 l 89 921 q 100 960 89 949 q 136 972 111 972 l 389 972 q 653 853 565 972 q 740 486 740 735 q 653 119 740 238 q 389 0 565 0 l 136 0 m 383 156 q 510 233 468 156 q 551 486 551 310 q 510 740 551 663 q 383 817 468 817 l 276 817 l 276 156 l 383 156 m 886 0 q 855 39 871 0 q 839 107 839 78 q 840 121 839 118 l 1225 817 l 906 817 q 879 831 888 817 q 871 879 871 846 l 871 911 q 879 958 871 943 q 906 972 888 972 l 1413 972 q 1442 932 1426 972 q 1457 864 1457 892 q 1458 856 1457 860 q 1457 850 1458 853 l 1074 156 l 1424 156 q 1450 141 1442 156 q 1458 94 1458 126 l 1458 61 q 1450 15 1458 29 q 1424 0 1442 0 l 886 0 z "},"Ǆ":{"ha":1506,"x_min":89,"x_max":1458,"o":"m 136 0 q 100 12 111 0 q 89 51 89 24 l 89 921 q 100 960 89 949 q 136 972 111 972 l 389 972 q 653 853 565 972 q 740 486 740 735 q 653 119 740 238 q 389 0 565 0 l 136 0 m 383 156 q 510 233 468 156 q 551 486 551 310 q 510 740 551 663 q 383 817 468 817 l 276 817 l 276 156 l 383 156 m 886 0 q 855 39 871 0 q 839 107 839 78 q 840 121 839 118 l 1225 817 l 906 817 q 879 831 888 817 q 871 879 871 846 l 871 911 q 879 958 871 943 q 906 972 888 972 l 1413 972 q 1442 932 1426 972 q 1457 864 1457 892 q 1458 856 1457 860 q 1457 850 1458 853 l 1074 156 l 1424 156 q 1450 141 1442 156 q 1458 94 1458 126 l 1458 61 q 1450 15 1458 29 q 1424 0 1442 0 l 886 0 m 1151 1046 q 1107 1052 1124 1046 q 1081 1074 1090 1058 l 1003 1207 q 993 1231 993 1222 q 1021 1246 993 1246 l 1054 1246 q 1113 1222 1094 1246 l 1157 1146 l 1203 1222 q 1261 1246 1215 1246 l 1296 1246 q 1322 1231 1322 1246 q 1314 1207 1322 1224 l 1233 1074 q 1207 1052 1224 1058 q 1164 1046 1190 1046 l 1151 1046 z "},"Ð":{"ha":801,"x_min":11,"x_max":740,"o":"m 389 972 q 653 853 565 972 q 740 486 740 735 q 653 119 740 238 q 389 0 565 0 l 136 0 q 100 12 111 0 q 89 51 89 24 l 89 418 l 47 418 q 19 433 28 418 q 11 478 11 447 l 11 513 q 19 558 11 543 q 47 572 28 572 l 89 572 l 89 921 q 100 960 89 949 q 136 972 111 972 l 389 972 m 383 156 q 510 233 468 156 q 551 486 551 310 q 510 740 551 663 q 383 817 468 817 l 276 817 l 276 572 l 350 572 q 378 558 369 572 q 386 513 386 543 l 386 478 q 378 433 386 447 q 350 418 369 418 l 276 418 l 276 156 l 383 156 z "},"Ď":{"ha":801,"x_min":89,"x_max":740,"o":"m 136 0 q 100 12 111 0 q 89 51 89 24 l 89 921 q 100 960 89 949 q 136 972 111 972 l 389 972 q 653 853 565 972 q 740 486 740 735 q 653 119 740 238 q 389 0 565 0 l 136 0 m 383 156 q 510 233 468 156 q 551 486 551 310 q 510 740 551 663 q 383 817 468 817 l 276 817 l 276 156 l 383 156 m 382 1046 q 338 1052 354 1046 q 311 1074 321 1058 l 233 1207 q 224 1231 224 1222 q 251 1246 224 1246 l 285 1246 q 343 1222 325 1246 l 388 1146 l 433 1222 q 492 1246 446 1246 l 526 1246 q 553 1231 553 1246 q 544 1207 553 1224 l 464 1074 q 438 1052 454 1058 q 394 1046 421 1046 l 382 1046 z "},"Đ":{"ha":801,"x_min":11,"x_max":740,"o":"m 389 972 q 653 853 565 972 q 740 486 740 735 q 653 119 740 238 q 389 0 565 0 l 136 0 q 100 12 111 0 q 89 51 89 24 l 89 418 l 47 418 q 19 433 28 418 q 11 478 11 447 l 11 513 q 19 558 11 543 q 47 572 28 572 l 89 572 l 89 921 q 100 960 89 949 q 136 972 111 972 l 389 972 m 383 156 q 510 233 468 156 q 551 486 551 310 q 510 740 551 663 q 383 817 468 817 l 276 817 l 276 572 l 350 572 q 378 558 369 572 q 386 513 386 543 l 386 478 q 378 433 386 447 q 350 418 369 418 l 276 418 l 276 156 l 383 156 z "},"Ḍ":{"ha":801,"x_min":89,"x_max":740,"o":"m 136 0 q 100 12 111 0 q 89 51 89 24 l 89 921 q 100 960 89 949 q 136 972 111 972 l 389 972 q 653 853 565 972 q 740 486 740 735 q 653 119 740 238 q 389 0 565 0 l 136 0 m 383 156 q 510 233 468 156 q 551 486 551 310 q 510 740 551 663 q 383 817 468 817 l 276 817 l 276 156 l 383 156 m 385 -269 q 300 -229 300 -269 l 300 -151 q 383 -111 300 -111 q 468 -151 468 -111 l 468 -229 q 385 -269 468 -269 z "},"ǲ":{"ha":1364,"x_min":89,"x_max":1325,"o":"m 136 0 q 100 12 111 0 q 89 51 89 24 l 89 921 q 100 960 89 949 q 136 972 111 972 l 389 972 q 653 853 565 972 q 740 486 740 735 q 653 119 740 238 q 389 0 565 0 l 136 0 m 383 156 q 510 233 468 156 q 551 486 551 310 q 510 740 551 663 q 383 817 468 817 l 276 817 l 276 156 l 383 156 m 874 0 q 851 33 863 0 q 839 93 839 67 q 842 111 839 103 l 1106 586 l 892 586 q 857 646 857 586 l 857 667 q 892 726 857 726 l 1286 726 q 1308 692 1296 726 q 1319 632 1319 657 q 1317 613 1319 624 l 1054 140 l 1290 140 q 1317 126 1308 140 q 1325 81 1325 113 l 1325 60 q 1290 0 1325 0 l 874 0 z "},"ǅ":{"ha":1364,"x_min":89,"x_max":1325,"o":"m 136 0 q 100 12 111 0 q 89 51 89 24 l 89 921 q 100 960 89 949 q 136 972 111 972 l 389 972 q 653 853 565 972 q 740 486 740 735 q 653 119 740 238 q 389 0 565 0 l 136 0 m 383 156 q 510 233 468 156 q 551 486 551 310 q 510 740 551 663 q 383 817 468 817 l 276 817 l 276 156 l 383 156 m 874 0 q 851 33 863 0 q 839 93 839 67 q 842 111 839 103 l 1106 586 l 892 586 q 857 646 857 586 l 857 667 q 892 726 857 726 l 1286 726 q 1308 692 1296 726 q 1319 632 1319 657 q 1317 613 1319 624 l 1054 140 l 1290 140 q 1317 126 1308 140 q 1325 81 1325 113 l 1325 60 q 1290 0 1325 0 l 874 0 m 1050 800 q 1006 806 1022 800 q 979 828 989 813 l 901 961 q 892 985 892 976 q 919 1000 892 1000 l 953 1000 q 1011 976 993 1000 l 1056 900 l 1101 976 q 1160 1000 1114 1000 l 1194 1000 q 1221 985 1221 1000 q 1213 961 1221 978 l 1132 828 q 1106 806 1122 813 q 1063 800 1089 800 l 1050 800 z "},"E":{"ha":635,"x_min":89,"x_max":578,"o":"m 136 0 q 100 12 111 0 q 89 51 89 24 l 89 921 q 100 960 89 949 q 136 972 111 972 l 542 972 q 569 958 561 972 q 578 913 578 943 l 578 876 q 569 831 578 846 q 542 817 561 817 l 274 817 l 274 575 l 513 575 q 540 560 532 575 q 549 515 549 546 l 549 479 q 540 434 549 449 q 513 419 532 419 l 274 419 l 274 156 l 543 156 q 569 142 561 156 q 578 96 578 128 l 578 60 q 569 14 578 28 q 543 0 561 0 l 136 0 z "},"É":{"ha":635,"x_min":89,"x_max":578,"o":"m 136 0 q 100 12 111 0 q 89 51 89 24 l 89 921 q 100 960 89 949 q 136 972 111 972 l 542 972 q 569 958 561 972 q 578 913 578 943 l 578 876 q 569 831 578 846 q 542 817 561 817 l 274 817 l 274 575 l 513 575 q 540 560 532 575 q 549 515 549 546 l 549 479 q 540 434 549 449 q 513 419 532 419 l 274 419 l 274 156 l 543 156 q 569 142 561 156 q 578 96 578 128 l 578 60 q 569 14 578 28 q 543 0 561 0 l 136 0 m 321 1049 q 292 1053 300 1049 q 285 1068 285 1057 q 294 1095 285 1075 q 313 1136 303 1115 q 329 1167 324 1157 l 360 1228 q 458 1264 376 1264 q 510 1260 494 1264 q 526 1246 526 1256 q 518 1223 526 1236 q 472 1163 510 1210 l 410 1081 q 379 1057 399 1065 q 321 1049 360 1049 z "},"Ĕ":{"ha":635,"x_min":89,"x_max":578,"o":"m 136 0 q 100 12 111 0 q 89 51 89 24 l 89 921 q 100 960 89 949 q 136 972 111 972 l 542 972 q 569 958 561 972 q 578 913 578 943 l 578 876 q 569 831 578 846 q 542 817 561 817 l 274 817 l 274 575 l 513 575 q 540 560 532 575 q 549 515 549 546 l 549 479 q 540 434 549 449 q 513 419 532 419 l 274 419 l 274 156 l 543 156 q 569 142 561 156 q 578 96 578 128 l 578 60 q 569 14 578 28 q 543 0 561 0 l 136 0 m 342 1049 q 215 1092 261 1049 q 168 1201 168 1136 q 213 1239 168 1239 q 235 1232 226 1239 q 250 1211 243 1225 q 281 1176 263 1189 q 343 1164 300 1164 q 408 1177 389 1164 q 438 1213 426 1190 q 472 1239 447 1239 q 517 1201 517 1239 q 470 1093 517 1138 q 342 1049 424 1049 z "},"Ě":{"ha":635,"x_min":89,"x_max":578,"o":"m 136 0 q 100 12 111 0 q 89 51 89 24 l 89 921 q 100 960 89 949 q 136 972 111 972 l 542 972 q 569 958 561 972 q 578 913 578 943 l 578 876 q 569 831 578 846 q 542 817 561 817 l 274 817 l 274 575 l 513 575 q 540 560 532 575 q 549 515 549 546 l 549 479 q 540 434 549 449 q 513 419 532 419 l 274 419 l 274 156 l 543 156 q 569 142 561 156 q 578 96 578 128 l 578 60 q 569 14 578 28 q 543 0 561 0 l 136 0 m 338 1046 q 293 1052 310 1046 q 267 1074 276 1058 l 189 1207 q 179 1231 179 1222 q 207 1246 179 1246 l 240 1246 q 299 1222 281 1246 l 343 1146 l 389 1222 q 447 1246 401 1246 l 482 1246 q 508 1231 508 1246 q 500 1207 508 1224 l 419 1074 q 393 1052 410 1058 q 350 1046 376 1046 l 338 1046 z "},"Ê":{"ha":635,"x_min":89,"x_max":578,"o":"m 136 0 q 100 12 111 0 q 89 51 89 24 l 89 921 q 100 960 89 949 q 136 972 111 972 l 542 972 q 569 958 561 972 q 578 913 578 943 l 578 876 q 569 831 578 846 q 542 817 561 817 l 274 817 l 274 575 l 513 575 q 540 560 532 575 q 549 515 549 546 l 549 479 q 540 434 549 449 q 513 419 532 419 l 274 419 l 274 156 l 543 156 q 569 142 561 156 q 578 96 578 128 l 578 60 q 569 14 578 28 q 543 0 561 0 l 136 0 m 206 1042 q 178 1057 178 1042 q 188 1082 178 1065 l 265 1215 q 292 1237 275 1231 q 338 1243 310 1243 l 346 1243 q 391 1237 374 1243 q 418 1215 408 1231 l 499 1082 q 507 1058 507 1063 q 481 1042 507 1042 l 446 1042 q 388 1065 400 1042 l 342 1142 l 297 1067 q 239 1042 281 1042 l 206 1042 z "},"Ế":{"ha":615,"x_min":89,"x_max":642,"o":"m 475 1183 q 451 1188 458 1183 q 444 1201 444 1192 q 468 1267 444 1210 l 497 1338 q 590 1375 515 1375 q 630 1369 618 1375 q 642 1347 642 1364 q 624 1313 642 1339 q 567 1238 606 1288 l 542 1206 q 518 1189 533 1194 q 475 1183 503 1183 m 204 1042 q 176 1057 176 1042 q 183 1081 176 1067 l 256 1215 q 283 1238 265 1232 q 328 1243 300 1243 l 338 1243 q 383 1238 365 1243 q 408 1215 400 1232 l 482 1081 q 490 1058 490 1064 q 463 1042 490 1042 l 428 1042 q 369 1065 382 1042 l 332 1142 l 296 1065 q 273 1047 288 1051 q 238 1042 258 1042 l 204 1042 m 136 0 q 100 12 111 0 q 89 51 89 24 l 89 921 q 100 960 89 949 q 136 972 111 972 l 542 972 q 569 958 561 972 q 578 913 578 943 l 578 876 q 569 831 578 846 q 542 817 561 817 l 274 817 l 274 575 l 513 575 q 540 560 532 575 q 549 515 549 546 l 549 479 q 540 434 549 449 q 513 419 532 419 l 274 419 l 274 156 l 543 156 q 569 142 561 156 q 578 96 578 128 l 578 60 q 569 14 578 28 q 543 0 561 0 l 136 0 z "},"Ệ":{"ha":635,"x_min":89,"x_max":578,"o":"m 136 0 q 100 12 111 0 q 89 51 89 24 l 89 921 q 100 960 89 949 q 136 972 111 972 l 542 972 q 569 958 561 972 q 578 913 578 943 l 578 876 q 569 831 578 846 q 542 817 561 817 l 274 817 l 274 575 l 513 575 q 540 560 532 575 q 549 515 549 546 l 549 479 q 540 434 549 449 q 513 419 532 419 l 274 419 l 274 156 l 543 156 q 569 142 561 156 q 578 96 578 128 l 578 60 q 569 14 578 28 q 543 0 561 0 l 136 0 m 338 -269 q 253 -229 253 -269 l 253 -151 q 336 -111 253 -111 q 421 -151 421 -111 l 421 -229 q 338 -269 421 -269 m 206 1042 q 178 1057 178 1042 q 188 1082 178 1065 l 265 1215 q 292 1237 275 1231 q 338 1243 310 1243 l 346 1243 q 391 1237 374 1243 q 418 1215 408 1231 l 499 1082 q 507 1058 507 1063 q 481 1042 507 1042 l 446 1042 q 388 1065 400 1042 l 342 1142 l 297 1067 q 239 1042 281 1042 l 206 1042 z "},"Ề":{"ha":615,"x_min":89,"x_max":578,"o":"m 538 1183 q 494 1190 510 1183 q 468 1208 479 1196 q 436 1251 439 1247 q 404 1294 428 1263 q 376 1334 381 1325 q 371 1350 371 1343 q 383 1369 371 1364 q 425 1375 396 1375 q 522 1338 506 1375 q 558 1244 546 1278 q 571 1201 571 1210 q 564 1188 571 1192 q 538 1183 557 1183 m 204 1042 q 176 1057 176 1042 q 183 1081 176 1067 l 256 1215 q 283 1238 265 1232 q 328 1243 300 1243 l 338 1243 q 383 1238 365 1243 q 408 1215 400 1232 l 482 1081 q 490 1058 490 1064 q 463 1042 490 1042 l 428 1042 q 369 1065 382 1042 l 332 1142 l 296 1065 q 273 1047 288 1051 q 238 1042 258 1042 l 204 1042 m 136 0 q 100 12 111 0 q 89 51 89 24 l 89 921 q 100 960 89 949 q 136 972 111 972 l 542 972 q 569 958 561 972 q 578 913 578 943 l 578 876 q 569 831 578 846 q 542 817 561 817 l 274 817 l 274 575 l 513 575 q 540 560 532 575 q 549 515 549 546 l 549 479 q 540 434 549 449 q 513 419 532 419 l 274 419 l 274 156 l 543 156 q 569 142 561 156 q 578 96 578 128 l 578 60 q 569 14 578 28 q 543 0 561 0 l 136 0 z "},"Ể":{"ha":615,"x_min":89,"x_max":606,"o":"m 501 1193 q 460 1202 476 1193 q 443 1222 443 1211 q 474 1247 443 1233 q 507 1268 497 1260 q 517 1290 517 1276 q 506 1312 517 1304 q 479 1319 494 1319 q 431 1308 450 1319 q 408 1297 413 1297 q 385 1317 400 1297 q 371 1351 371 1338 q 407 1378 371 1365 q 481 1390 443 1390 q 570 1366 535 1390 q 606 1297 606 1342 q 565 1224 606 1257 q 533 1203 551 1213 q 501 1193 514 1193 m 204 1042 q 176 1057 176 1042 q 183 1081 176 1067 l 256 1215 q 283 1238 265 1232 q 328 1243 300 1243 l 338 1243 q 383 1238 365 1243 q 408 1215 400 1232 l 482 1081 q 490 1058 490 1064 q 463 1042 490 1042 l 428 1042 q 369 1065 382 1042 l 332 1142 l 296 1065 q 273 1047 288 1051 q 238 1042 258 1042 l 204 1042 m 136 0 q 100 12 111 0 q 89 51 89 24 l 89 921 q 100 960 89 949 q 136 972 111 972 l 542 972 q 569 958 561 972 q 578 913 578 943 l 578 876 q 569 831 578 846 q 542 817 561 817 l 274 817 l 274 575 l 513 575 q 540 560 532 575 q 549 515 549 546 l 549 479 q 540 434 549 449 q 513 419 532 419 l 274 419 l 274 156 l 543 156 q 569 142 561 156 q 578 96 578 128 l 578 60 q 569 14 578 28 q 543 0 561 0 l 136 0 z "},"Ễ":{"ha":615,"x_min":89,"x_max":578,"o":"m 161 1249 q 138 1278 138 1257 q 143 1299 138 1288 q 187 1369 158 1343 q 254 1394 215 1394 q 338 1369 279 1394 q 404 1349 385 1349 q 443 1375 424 1349 q 475 1399 456 1399 q 490 1394 482 1399 l 501 1390 q 525 1361 525 1383 q 522 1340 525 1354 q 477 1270 506 1296 q 411 1244 449 1244 q 326 1269 385 1244 q 258 1290 276 1290 q 221 1263 239 1290 q 206 1245 213 1250 q 190 1240 200 1240 q 175 1243 186 1240 l 161 1249 m 204 1042 q 183 1045 189 1042 q 176 1058 176 1049 q 188 1086 176 1064 l 256 1185 q 283 1206 267 1200 q 329 1213 300 1213 l 338 1213 q 383 1206 367 1213 q 411 1185 400 1200 l 478 1086 q 490 1058 490 1067 q 483 1047 490 1051 q 463 1042 476 1042 l 428 1042 q 392 1047 404 1042 q 371 1065 381 1053 l 333 1129 l 294 1065 q 272 1047 283 1051 q 238 1042 260 1042 l 204 1042 m 136 0 q 100 12 111 0 q 89 51 89 24 l 89 921 q 100 960 89 949 q 136 972 111 972 l 542 972 q 569 958 561 972 q 578 913 578 943 l 578 876 q 569 831 578 846 q 542 817 561 817 l 274 817 l 274 575 l 513 575 q 540 560 532 575 q 549 515 549 546 l 549 479 q 540 434 549 449 q 513 419 532 419 l 274 419 l 274 156 l 543 156 q 569 142 561 156 q 578 96 578 128 l 578 60 q 569 14 578 28 q 543 0 561 0 l 136 0 z "},"Ë":{"ha":635,"x_min":89,"x_max":578,"o":"m 136 0 q 100 12 111 0 q 89 51 89 24 l 89 921 q 100 960 89 949 q 136 972 111 972 l 542 972 q 569 958 561 972 q 578 913 578 943 l 578 876 q 569 831 578 846 q 542 817 561 817 l 274 817 l 274 575 l 513 575 q 540 560 532 575 q 549 515 549 546 l 549 479 q 540 434 549 449 q 513 419 532 419 l 274 419 l 274 156 l 543 156 q 569 142 561 156 q 578 96 578 128 l 578 60 q 569 14 578 28 q 543 0 561 0 l 136 0 m 242 1063 q 169 1103 169 1063 l 169 1181 q 240 1221 169 1221 q 311 1181 311 1221 l 311 1103 q 242 1063 311 1063 m 449 1063 q 378 1103 378 1063 l 378 1181 q 447 1221 378 1221 q 519 1181 519 1221 l 519 1103 q 449 1063 519 1063 z "},"Ė":{"ha":635,"x_min":89,"x_max":578,"o":"m 136 0 q 100 12 111 0 q 89 51 89 24 l 89 921 q 100 960 89 949 q 136 972 111 972 l 542 972 q 569 958 561 972 q 578 913 578 943 l 578 876 q 569 831 578 846 q 542 817 561 817 l 274 817 l 274 575 l 513 575 q 540 560 532 575 q 549 515 549 546 l 549 479 q 540 434 549 449 q 513 419 532 419 l 274 419 l 274 156 l 543 156 q 569 142 561 156 q 578 96 578 128 l 578 60 q 569 14 578 28 q 543 0 561 0 l 136 0 m 344 1063 q 260 1103 260 1063 l 260 1181 q 343 1221 260 1221 q 428 1181 428 1221 l 428 1103 q 344 1063 428 1063 z "},"Ẹ":{"ha":635,"x_min":89,"x_max":578,"o":"m 136 0 q 100 12 111 0 q 89 51 89 24 l 89 921 q 100 960 89 949 q 136 972 111 972 l 542 972 q 569 958 561 972 q 578 913 578 943 l 578 876 q 569 831 578 846 q 542 817 561 817 l 274 817 l 274 575 l 513 575 q 540 560 532 575 q 549 515 549 546 l 549 479 q 540 434 549 449 q 513 419 532 419 l 274 419 l 274 156 l 543 156 q 569 142 561 156 q 578 96 578 128 l 578 60 q 569 14 578 28 q 543 0 561 0 l 136 0 m 338 -269 q 253 -229 253 -269 l 253 -151 q 336 -111 253 -111 q 421 -151 421 -111 l 421 -229 q 338 -269 421 -269 z "},"È":{"ha":635,"x_min":89,"x_max":578,"o":"m 136 0 q 100 12 111 0 q 89 51 89 24 l 89 921 q 100 960 89 949 q 136 972 111 972 l 542 972 q 569 958 561 972 q 578 913 578 943 l 578 876 q 569 831 578 846 q 542 817 561 817 l 274 817 l 274 575 l 513 575 q 540 560 532 575 q 549 515 549 546 l 549 479 q 540 434 549 449 q 513 419 532 419 l 274 419 l 274 156 l 543 156 q 569 142 561 156 q 578 96 578 128 l 578 60 q 569 14 578 28 q 543 0 561 0 l 136 0 m 368 1049 q 310 1058 329 1049 q 281 1081 292 1067 l 218 1161 q 172 1223 181 1210 q 163 1246 163 1236 q 179 1260 163 1256 q 232 1264 196 1264 q 332 1228 311 1264 q 385 1117 367 1157 q 404 1068 404 1078 q 397 1053 404 1057 q 368 1049 389 1049 z "},"Ẻ":{"ha":635,"x_min":89,"x_max":578,"o":"m 136 0 q 100 12 111 0 q 89 51 89 24 l 89 921 q 100 960 89 949 q 136 972 111 972 l 542 972 q 569 958 561 972 q 578 913 578 943 l 578 876 q 569 831 578 846 q 542 817 561 817 l 274 817 l 274 575 l 513 575 q 540 560 532 575 q 549 515 549 546 l 549 479 q 540 434 549 449 q 513 419 532 419 l 274 419 l 274 156 l 543 156 q 569 142 561 156 q 578 96 578 128 l 578 60 q 569 14 578 28 q 543 0 561 0 l 136 0 m 368 1035 q 326 1044 349 1035 q 303 1064 303 1054 q 314 1083 303 1072 q 339 1104 325 1093 q 380 1140 365 1124 q 394 1175 394 1156 q 381 1199 394 1190 q 347 1208 367 1208 q 308 1200 325 1208 q 288 1192 290 1192 q 264 1212 279 1192 q 249 1246 249 1232 q 285 1274 249 1260 q 358 1289 322 1289 q 463 1262 422 1289 q 503 1182 503 1235 q 476 1113 503 1146 q 415 1057 449 1079 q 368 1035 382 1035 z "},"Ē":{"ha":635,"x_min":89,"x_max":578,"o":"m 136 0 q 100 12 111 0 q 89 51 89 24 l 89 921 q 100 960 89 949 q 136 972 111 972 l 542 972 q 569 958 561 972 q 578 913 578 943 l 578 876 q 569 831 578 846 q 542 817 561 817 l 274 817 l 274 575 l 513 575 q 540 560 532 575 q 549 515 549 546 l 549 479 q 540 434 549 449 q 513 419 532 419 l 274 419 l 274 156 l 543 156 q 569 142 561 156 q 578 96 578 128 l 578 60 q 569 14 578 28 q 543 0 561 0 l 136 0 m 211 1082 q 183 1094 192 1082 q 175 1133 175 1107 l 175 1151 q 183 1190 175 1178 q 211 1203 192 1203 l 479 1203 q 507 1191 499 1203 q 515 1151 515 1179 l 515 1133 q 507 1094 515 1106 q 479 1082 499 1082 l 211 1082 z "},"Ę":{"ha":635,"x_min":89,"x_max":688,"o":"m 651 -146 q 678 -155 669 -146 q 688 -185 688 -164 q 667 -226 688 -212 q 583 -246 628 -246 q 478 -205 506 -246 q 451 -118 451 -164 q 481 0 451 -60 l 136 0 q 100 12 111 0 q 89 51 89 24 l 89 921 q 100 960 89 949 q 136 972 111 972 l 542 972 q 569 958 561 972 q 578 913 578 943 l 578 876 q 569 831 578 846 q 542 817 561 817 l 274 817 l 274 575 l 513 575 q 540 560 532 575 q 549 515 549 546 l 549 479 q 540 434 549 449 q 513 419 532 419 l 274 419 l 274 156 l 543 156 q 569 142 561 156 q 578 96 578 128 l 578 60 q 568 13 578 26 q 542 -92 542 -42 q 610 -153 542 -153 q 633 -149 621 -153 q 651 -146 644 -146 z "},"Ẽ":{"ha":635,"x_min":89,"x_max":578,"o":"m 136 0 q 100 12 111 0 q 89 51 89 24 l 89 921 q 100 960 89 949 q 136 972 111 972 l 542 972 q 569 958 561 972 q 578 913 578 943 l 578 876 q 569 831 578 846 q 542 817 561 817 l 274 817 l 274 575 l 513 575 q 540 560 532 575 q 549 515 549 546 l 549 479 q 540 434 549 449 q 513 419 532 419 l 274 419 l 274 156 l 543 156 q 569 142 561 156 q 578 96 578 128 l 578 60 q 569 14 578 28 q 543 0 561 0 l 136 0 m 150 1063 q 124 1092 124 1069 q 129 1113 124 1100 q 176 1183 146 1158 q 250 1208 207 1208 q 343 1183 279 1208 q 417 1163 394 1163 q 458 1189 439 1163 q 493 1213 474 1213 q 511 1208 501 1213 l 524 1204 q 550 1175 550 1197 q 544 1154 550 1168 q 497 1084 528 1110 q 424 1058 465 1058 q 367 1069 399 1058 q 326 1083 335 1081 q 256 1104 276 1104 q 215 1076 233 1104 q 199 1059 207 1064 q 182 1054 192 1054 q 164 1057 175 1054 l 150 1063 z "},"F":{"ha":588,"x_min":89,"x_max":546,"o":"m 160 -3 q 89 38 89 -3 l 89 921 q 100 960 89 949 q 136 972 111 972 l 511 972 q 546 913 546 972 l 546 876 q 511 817 546 817 l 274 817 l 274 575 l 494 575 q 529 515 529 575 l 529 479 q 494 419 529 419 l 274 419 l 274 38 q 257 7 274 17 q 203 -3 240 -3 l 160 -3 z "},"G":{"ha":767,"x_min":57,"x_max":689,"o":"m 642 556 q 689 506 689 556 l 689 97 q 605 19 689 49 q 426 -10 521 -10 q 148 111 239 -10 q 57 485 57 232 q 150 859 57 736 q 433 982 243 982 q 548 968 492 982 q 639 932 604 954 q 674 888 674 910 q 647 821 674 863 q 600 779 621 779 q 570 792 594 779 q 515 813 546 804 q 442 822 485 822 q 293 740 339 822 q 247 489 247 658 q 292 233 247 317 q 428 150 336 150 q 508 160 475 150 l 508 400 l 421 400 q 393 415 401 400 q 385 460 385 429 l 385 496 q 393 541 385 526 q 421 556 401 556 l 642 556 z "},"Ğ":{"ha":767,"x_min":57,"x_max":689,"o":"m 642 556 q 689 506 689 556 l 689 97 q 605 19 689 49 q 426 -10 521 -10 q 148 111 239 -10 q 57 485 57 232 q 150 859 57 736 q 433 982 243 982 q 548 968 492 982 q 639 932 604 954 q 674 888 674 910 q 647 821 674 863 q 600 779 621 779 q 570 792 594 779 q 515 813 546 804 q 442 822 485 822 q 293 740 339 822 q 247 489 247 658 q 292 233 247 317 q 428 150 336 150 q 508 160 475 150 l 508 400 l 421 400 q 393 415 401 400 q 385 460 385 429 l 385 496 q 393 541 385 526 q 421 556 401 556 l 642 556 m 410 1049 q 283 1092 329 1049 q 236 1201 236 1136 q 281 1239 236 1239 q 303 1232 294 1239 q 318 1211 311 1225 q 349 1176 331 1189 q 411 1164 368 1164 q 476 1177 457 1164 q 506 1213 494 1190 q 540 1239 515 1239 q 585 1201 585 1239 q 538 1093 585 1138 q 410 1049 492 1049 z "},"Ĝ":{"ha":767,"x_min":57,"x_max":689,"o":"m 642 556 q 689 506 689 556 l 689 97 q 605 19 689 49 q 426 -10 521 -10 q 148 111 239 -10 q 57 485 57 232 q 150 859 57 736 q 433 982 243 982 q 548 968 492 982 q 639 932 604 954 q 674 888 674 910 q 647 821 674 863 q 600 779 621 779 q 570 792 594 779 q 515 813 546 804 q 442 822 485 822 q 293 740 339 822 q 247 489 247 658 q 292 233 247 317 q 428 150 336 150 q 508 160 475 150 l 508 400 l 421 400 q 393 415 401 400 q 385 460 385 429 l 385 496 q 393 541 385 526 q 421 556 401 556 l 642 556 m 274 1042 q 246 1057 246 1042 q 256 1082 246 1065 l 333 1215 q 360 1237 343 1231 q 406 1243 378 1243 l 414 1243 q 459 1237 442 1243 q 486 1215 476 1231 l 567 1082 q 575 1058 575 1063 q 549 1042 575 1042 l 514 1042 q 456 1065 468 1042 l 410 1142 l 365 1067 q 307 1042 349 1042 l 274 1042 z "},"Ģ":{"ha":767,"x_min":57,"x_max":689,"o":"m 642 556 q 689 506 689 556 l 689 97 q 605 19 689 49 q 426 -10 521 -10 q 148 111 239 -10 q 57 485 57 232 q 150 859 57 736 q 433 982 243 982 q 548 968 492 982 q 639 932 604 954 q 674 888 674 910 q 647 821 674 863 q 600 779 621 779 q 570 792 594 779 q 515 813 546 804 q 442 822 485 822 q 293 740 339 822 q 247 489 247 658 q 292 233 247 317 q 428 150 336 150 q 508 160 475 150 l 508 400 l 421 400 q 393 415 401 400 q 385 460 385 429 l 385 496 q 393 541 385 526 q 421 556 401 556 l 642 556 m 379 -331 q 342 -324 358 -331 q 325 -304 325 -318 q 331 -269 325 -297 q 349 -126 349 -207 q 419 -71 349 -71 l 442 -71 q 485 -85 471 -71 q 500 -124 500 -100 q 478 -222 500 -174 q 428 -300 457 -269 q 379 -331 400 -331 z "},"Ġ":{"ha":767,"x_min":57,"x_max":689,"o":"m 642 556 q 689 506 689 556 l 689 97 q 605 19 689 49 q 426 -10 521 -10 q 148 111 239 -10 q 57 485 57 232 q 150 859 57 736 q 433 982 243 982 q 548 968 492 982 q 639 932 604 954 q 674 888 674 910 q 647 821 674 863 q 600 779 621 779 q 570 792 594 779 q 515 813 546 804 q 442 822 485 822 q 293 740 339 822 q 247 489 247 658 q 292 233 247 317 q 428 150 336 150 q 508 160 475 150 l 508 400 l 421 400 q 393 415 401 400 q 385 460 385 429 l 385 496 q 393 541 385 526 q 421 556 401 556 l 642 556 m 413 1063 q 328 1103 328 1063 l 328 1181 q 411 1221 328 1221 q 496 1181 496 1221 l 496 1103 q 413 1063 496 1063 z "},"H":{"ha":833,"x_min":89,"x_max":743,"o":"m 160 -3 q 89 38 89 -3 l 89 935 q 160 975 89 975 l 206 975 q 275 935 275 975 l 275 575 l 557 575 l 557 935 q 628 975 557 975 l 672 975 q 743 935 743 975 l 743 38 q 672 -3 743 -3 l 628 -3 q 557 38 557 -3 l 557 418 l 275 418 l 275 38 q 206 -3 275 -3 l 160 -3 z "},"Ħ":{"ha":814,"x_min":28,"x_max":789,"o":"m 753 789 q 781 777 772 789 q 789 738 789 765 l 789 719 q 781 680 789 692 q 753 668 772 668 l 743 668 l 743 38 q 672 -3 743 -3 l 628 -3 q 557 38 557 -3 l 557 418 l 275 418 l 275 38 q 206 -3 275 -3 l 160 -3 q 89 38 89 -3 l 89 668 l 64 668 q 36 681 44 668 q 28 719 28 693 l 28 738 q 36 776 28 764 q 64 789 44 789 l 89 789 l 89 935 q 160 975 89 975 l 206 975 q 275 935 275 975 l 275 789 l 557 789 l 557 935 q 628 975 557 975 l 672 975 q 743 935 743 975 l 743 789 l 753 789 m 557 575 l 557 668 l 275 668 l 275 575 l 557 575 z "},"Ĥ":{"ha":833,"x_min":89,"x_max":743,"o":"m 160 -3 q 89 38 89 -3 l 89 935 q 160 975 89 975 l 206 975 q 275 935 275 975 l 275 575 l 557 575 l 557 935 q 628 975 557 975 l 672 975 q 743 935 743 975 l 743 38 q 672 -3 743 -3 l 628 -3 q 557 38 557 -3 l 557 418 l 275 418 l 275 38 q 206 -3 275 -3 l 160 -3 m 279 1042 q 251 1057 251 1042 q 261 1082 251 1065 l 339 1215 q 366 1237 349 1231 q 411 1243 383 1243 l 419 1243 q 465 1237 447 1243 q 492 1215 482 1231 l 572 1082 q 581 1058 581 1063 q 554 1042 581 1042 l 519 1042 q 461 1065 474 1042 l 415 1142 l 371 1067 q 313 1042 354 1042 l 279 1042 z "},"Ḥ":{"ha":833,"x_min":89,"x_max":743,"o":"m 160 -3 q 89 38 89 -3 l 89 935 q 160 975 89 975 l 206 975 q 275 935 275 975 l 275 575 l 557 575 l 557 935 q 628 975 557 975 l 672 975 q 743 935 743 975 l 743 38 q 672 -3 743 -3 l 628 -3 q 557 38 557 -3 l 557 418 l 275 418 l 275 38 q 206 -3 275 -3 l 160 -3 m 421 -269 q 336 -229 336 -269 l 336 -151 q 419 -111 336 -111 q 504 -151 504 -111 l 504 -229 q 421 -269 504 -269 z "},"I":{"ha":364,"x_min":89,"x_max":275,"o":"m 160 -4 q 89 38 89 -4 l 89 935 q 160 976 89 976 l 206 976 q 275 935 275 976 l 275 38 q 206 -4 275 -4 l 160 -4 z "},"Ĳ":{"ha":857,"x_min":89,"x_max":771,"o":"m 160 -4 q 89 38 89 -4 l 89 935 q 160 976 89 976 l 206 976 q 275 935 275 976 l 275 38 q 206 -4 275 -4 l 160 -4 m 522 -10 q 421 6 467 -10 q 375 47 375 22 q 390 118 375 79 q 425 158 406 157 q 451 153 431 158 q 494 149 472 149 q 564 184 543 149 q 585 300 585 219 l 585 935 q 656 976 585 976 l 700 976 q 771 935 771 976 l 771 282 q 522 -10 771 -10 z "},"Í":{"ha":364,"x_min":89,"x_max":365,"o":"m 160 -4 q 89 38 89 -4 l 89 935 q 160 976 89 976 l 206 976 q 275 935 275 976 l 275 38 q 206 -4 275 -4 l 160 -4 m 160 1049 q 131 1053 139 1049 q 124 1068 124 1057 q 133 1095 124 1075 q 152 1136 142 1115 q 168 1167 163 1157 l 199 1228 q 297 1264 215 1264 q 349 1260 333 1264 q 365 1246 365 1256 q 357 1223 365 1236 q 311 1163 349 1210 l 249 1081 q 218 1057 238 1065 q 160 1049 199 1049 z "},"Ĭ":{"ha":364,"x_min":7,"x_max":356,"o":"m 160 -4 q 89 38 89 -4 l 89 935 q 160 976 89 976 l 206 976 q 275 935 275 976 l 275 38 q 206 -4 275 -4 l 160 -4 m 181 1049 q 53 1092 100 1049 q 7 1201 7 1136 q 51 1239 7 1239 q 74 1232 65 1239 q 89 1211 82 1225 q 120 1176 101 1189 q 182 1164 139 1164 q 247 1177 228 1164 q 276 1213 265 1190 q 311 1239 286 1239 q 356 1201 356 1239 q 309 1093 356 1138 q 181 1049 263 1049 z "},"Î":{"ha":364,"x_min":17,"x_max":346,"o":"m 160 -4 q 89 38 89 -4 l 89 935 q 160 976 89 976 l 206 976 q 275 935 275 976 l 275 38 q 206 -4 275 -4 l 160 -4 m 44 1042 q 17 1057 17 1042 q 26 1082 17 1065 l 104 1215 q 131 1237 114 1231 q 176 1243 149 1243 l 185 1243 q 230 1237 213 1243 q 257 1215 247 1231 l 338 1082 q 346 1058 346 1063 q 319 1042 346 1042 l 285 1042 q 226 1065 239 1042 l 181 1142 l 136 1067 q 78 1042 119 1042 l 44 1042 z "},"Ï":{"ha":364,"x_min":8,"x_max":358,"o":"m 160 -4 q 89 38 89 -4 l 89 935 q 160 976 89 976 l 206 976 q 275 935 275 976 l 275 38 q 206 -4 275 -4 l 160 -4 m 81 1063 q 8 1103 8 1063 l 8 1181 q 79 1221 8 1221 q 150 1181 150 1221 l 150 1103 q 81 1063 150 1063 m 288 1063 q 217 1103 217 1063 l 217 1181 q 286 1221 217 1221 q 358 1181 358 1221 l 358 1103 q 288 1063 358 1063 z "},"İ":{"ha":364,"x_min":89,"x_max":275,"o":"m 160 -4 q 89 38 89 -4 l 89 935 q 160 976 89 976 l 206 976 q 275 935 275 976 l 275 38 q 206 -4 275 -4 l 160 -4 m 183 1063 q 99 1103 99 1063 l 99 1181 q 182 1221 99 1221 q 267 1181 267 1221 l 267 1103 q 183 1063 267 1063 z "},"Ị":{"ha":364,"x_min":89,"x_max":275,"o":"m 160 -4 q 89 38 89 -4 l 89 935 q 160 976 89 976 l 206 976 q 275 935 275 976 l 275 38 q 206 -4 275 -4 l 160 -4 m 186 -269 q 101 -229 101 -269 l 101 -151 q 185 -111 101 -111 q 269 -151 269 -111 l 269 -229 q 186 -269 269 -269 z "},"Ì":{"ha":364,"x_min":1,"x_max":275,"o":"m 160 -4 q 89 38 89 -4 l 89 935 q 160 976 89 976 l 206 976 q 275 935 275 976 l 275 38 q 206 -4 275 -4 l 160 -4 m 207 1049 q 149 1058 168 1049 q 119 1081 131 1067 l 57 1161 q 10 1223 19 1210 q 1 1246 1 1236 q 18 1260 1 1256 q 71 1264 35 1264 q 171 1228 150 1264 q 224 1117 206 1157 q 243 1068 243 1078 q 235 1053 243 1057 q 207 1049 228 1049 z "},"Ỉ":{"ha":364,"x_min":88,"x_max":342,"o":"m 160 -4 q 89 38 89 -4 l 89 935 q 160 976 89 976 l 206 976 q 275 935 275 976 l 275 38 q 206 -4 275 -4 l 160 -4 m 207 1035 q 165 1044 188 1035 q 142 1064 142 1054 q 153 1083 142 1072 q 178 1104 164 1093 q 219 1140 204 1124 q 233 1175 233 1156 q 219 1199 233 1190 q 186 1208 206 1208 q 147 1200 164 1208 q 126 1192 129 1192 q 103 1212 118 1192 q 88 1246 88 1232 q 124 1274 88 1260 q 197 1289 161 1289 q 301 1262 261 1289 q 342 1182 342 1235 q 315 1113 342 1146 q 254 1057 288 1079 q 207 1035 221 1035 z "},"Ī":{"ha":364,"x_min":14,"x_max":354,"o":"m 160 -4 q 89 38 89 -4 l 89 935 q 160 976 89 976 l 206 976 q 275 935 275 976 l 275 38 q 206 -4 275 -4 l 160 -4 m 50 1082 q 22 1094 31 1082 q 14 1133 14 1107 l 14 1151 q 22 1190 14 1178 q 50 1203 31 1203 l 318 1203 q 346 1191 338 1203 q 354 1151 354 1179 l 354 1133 q 346 1094 354 1106 q 318 1082 338 1082 l 50 1082 z "},"Į":{"ha":364,"x_min":89,"x_max":388,"o":"m 351 -140 q 378 -149 369 -140 q 388 -179 388 -158 q 367 -221 388 -207 q 283 -240 328 -240 q 178 -199 206 -240 q 151 -112 151 -158 q 176 -4 151 -58 l 160 -4 q 89 38 89 -4 l 89 935 q 160 976 89 976 l 206 976 q 275 935 275 976 l 275 38 q 267 14 275 22 q 242 -86 242 -36 q 310 -147 242 -147 q 333 -144 321 -147 q 351 -140 344 -140 z "},"Ĩ":{"ha":364,"x_min":-37,"x_max":389,"o":"m 160 -4 q 89 38 89 -4 l 89 935 q 160 976 89 976 l 206 976 q 275 935 275 976 l 275 38 q 206 -4 275 -4 l 160 -4 m -11 1063 q -37 1092 -37 1069 q -32 1113 -37 1100 q 15 1183 -15 1158 q 89 1208 46 1208 q 182 1183 118 1208 q 256 1163 233 1163 q 297 1189 278 1163 q 332 1213 313 1213 q 350 1208 340 1213 l 363 1204 q 389 1175 389 1197 q 383 1154 389 1168 q 335 1084 367 1110 q 263 1058 304 1058 q 206 1069 238 1058 q 165 1083 174 1081 q 94 1104 115 1104 q 54 1076 72 1104 q 38 1059 46 1064 q 21 1054 31 1054 q 3 1057 14 1054 l -11 1063 z "},"J":{"ha":493,"x_min":11,"x_max":407,"o":"m 158 -10 q 57 6 103 -10 q 11 47 11 22 q 26 118 11 79 q 61 158 42 157 q 88 153 67 158 q 131 149 108 149 q 200 184 179 149 q 221 300 221 219 l 221 935 q 292 976 221 976 l 336 976 q 407 935 407 976 l 407 282 q 158 -10 407 -10 z "},"Ĵ":{"ha":493,"x_min":11,"x_max":476,"o":"m 158 -10 q 57 6 103 -10 q 11 47 11 22 q 26 118 11 79 q 61 158 42 157 q 88 153 67 158 q 131 149 108 149 q 200 184 179 149 q 221 300 221 219 l 221 935 q 292 976 221 976 l 336 976 q 407 935 407 976 l 407 282 q 158 -10 407 -10 m 175 1042 q 147 1057 147 1042 q 157 1082 147 1065 l 235 1215 q 262 1237 244 1231 q 307 1243 279 1243 l 315 1243 q 360 1237 343 1243 q 388 1215 378 1231 l 468 1082 q 476 1058 476 1063 q 450 1042 476 1042 l 415 1042 q 357 1065 369 1042 l 311 1142 l 267 1067 q 208 1042 250 1042 l 175 1042 z "},"K":{"ha":708,"x_min":89,"x_max":715,"o":"m 707 44 q 715 18 715 29 q 650 -3 715 -3 l 579 -3 q 533 2 550 -3 q 507 21 515 7 l 279 463 l 275 461 l 275 38 q 201 -3 275 -3 l 160 -3 q 89 38 89 -3 l 89 935 q 160 975 89 975 l 201 975 q 275 935 275 975 l 275 515 l 279 514 l 504 951 q 528 970 511 965 q 572 975 544 975 l 631 975 q 697 956 697 975 q 688 926 697 944 l 444 496 l 707 44 z "},"Ķ":{"ha":708,"x_min":89,"x_max":715,"o":"m 707 44 q 715 18 715 29 q 650 -3 715 -3 l 579 -3 q 533 2 550 -3 q 507 21 515 7 l 279 463 l 275 461 l 275 38 q 201 -3 275 -3 l 160 -3 q 89 38 89 -3 l 89 935 q 160 975 89 975 l 201 975 q 275 935 275 975 l 275 515 l 279 514 l 504 951 q 528 970 511 965 q 572 975 544 975 l 631 975 q 697 956 697 975 q 688 926 697 944 l 444 496 l 707 44 m 317 -331 q 279 -324 296 -331 q 263 -304 263 -318 q 268 -269 263 -297 q 286 -126 286 -207 q 357 -71 286 -71 l 379 -71 q 423 -85 408 -71 q 438 -124 438 -100 q 416 -222 438 -174 q 366 -300 394 -269 q 317 -331 338 -331 z "},"L":{"ha":567,"x_min":89,"x_max":546,"o":"m 136 0 q 100 12 111 0 q 89 51 89 24 l 89 935 q 160 975 89 975 l 203 975 q 257 965 240 975 q 274 935 274 956 l 274 156 l 510 156 q 538 141 529 156 q 546 96 546 126 l 546 60 q 538 15 546 29 q 510 0 529 0 l 136 0 z "},"Ǉ":{"ha":886,"x_min":79,"x_max":815,"o":"m 567 -240 q 465 -224 511 -240 q 419 -183 419 -208 q 435 -111 419 -150 q 468 -72 450 -72 q 495 -77 474 -72 q 539 -82 517 -82 q 608 -46 588 -82 q 629 71 629 -10 l 629 935 q 699 976 629 976 l 744 976 q 815 935 815 976 l 815 58 q 755 -162 815 -85 q 567 -240 694 -240 m 126 0 q 90 12 101 0 q 79 51 79 24 l 79 935 q 150 975 79 975 l 193 975 q 247 965 231 975 q 264 935 264 956 l 264 156 l 457 156 q 485 141 476 156 q 493 96 493 126 l 493 60 q 485 15 493 29 q 457 0 476 0 l 126 0 z "},"Ĺ":{"ha":567,"x_min":89,"x_max":546,"o":"m 136 0 q 100 12 111 0 q 89 51 89 24 l 89 935 q 160 975 89 975 l 203 975 q 257 965 240 975 q 274 935 274 956 l 274 156 l 510 156 q 538 141 529 156 q 546 96 546 126 l 546 60 q 538 15 546 29 q 510 0 529 0 l 136 0 m 163 1050 q 134 1054 142 1050 q 126 1069 126 1058 q 135 1097 126 1076 q 155 1138 144 1117 q 171 1168 165 1158 l 201 1229 q 300 1265 218 1265 q 352 1261 336 1265 q 368 1247 368 1257 q 360 1224 368 1238 q 314 1164 351 1211 l 251 1082 q 221 1058 240 1067 q 163 1050 201 1050 z "},"Ľ":{"ha":567,"x_min":89,"x_max":546,"o":"m 136 0 q 100 12 111 0 q 89 51 89 24 l 89 935 q 160 975 89 975 l 203 975 q 257 965 240 975 q 274 935 274 956 l 274 156 l 510 156 q 538 141 529 156 q 546 96 546 126 l 546 60 q 538 15 546 29 q 510 0 529 0 l 136 0 m 411 717 q 374 724 390 717 q 357 744 357 731 q 358 790 357 771 q 361 824 360 810 q 367 917 367 882 q 383 958 367 943 q 431 972 399 972 l 453 972 q 500 958 483 972 q 517 919 517 943 q 499 824 517 871 q 455 748 481 778 q 411 717 429 718 z "},"Ļ":{"ha":567,"x_min":89,"x_max":546,"o":"m 136 0 q 100 12 111 0 q 89 51 89 24 l 89 935 q 160 975 89 975 l 203 975 q 257 965 240 975 q 274 935 274 956 l 274 156 l 510 156 q 538 141 529 156 q 546 96 546 126 l 546 60 q 538 15 546 29 q 510 0 529 0 l 136 0 m 263 -331 q 225 -324 242 -331 q 208 -304 208 -318 q 214 -269 208 -297 q 232 -126 232 -207 q 303 -71 232 -71 l 325 -71 q 369 -85 354 -71 q 383 -124 383 -100 q 362 -222 383 -174 q 312 -300 340 -269 q 263 -331 283 -331 z "},"Ŀ":{"ha":567,"x_min":89,"x_max":546,"o":"m 136 0 q 100 12 111 0 q 89 51 89 24 l 89 935 q 160 975 89 975 l 203 975 q 257 965 240 975 q 274 935 274 956 l 274 156 l 510 156 q 538 141 529 156 q 546 96 546 126 l 546 60 q 538 15 546 29 q 510 0 529 0 l 136 0 m 425 411 q 364 435 388 411 q 340 499 340 458 q 364 564 340 540 q 425 588 388 588 q 487 564 463 588 q 511 499 511 540 q 487 435 511 458 q 425 411 463 411 z "},"ǈ":{"ha":913,"x_min":89,"x_max":831,"o":"m 136 0 q 100 12 111 0 q 89 51 89 24 l 89 935 q 160 975 89 975 l 203 975 q 257 965 240 975 q 274 935 274 956 l 274 156 l 510 156 q 538 141 529 156 q 546 96 546 126 l 546 60 q 538 15 546 29 q 510 0 529 0 l 136 0 m 657 -294 q 566 -281 599 -294 q 533 -233 533 -268 q 544 -178 533 -208 q 571 -147 554 -147 q 590 -151 578 -147 q 615 -154 603 -154 q 646 -137 636 -154 q 656 -82 656 -121 l 656 689 q 729 729 656 729 l 757 729 q 831 689 831 729 l 831 -83 q 781 -242 831 -190 q 657 -294 731 -294 m 746 817 q 661 857 661 817 l 661 935 q 744 975 661 975 q 829 935 829 975 l 829 857 q 746 817 829 817 z "},"Ł":{"ha":567,"x_min":89,"x_max":546,"o":"m 510 156 q 538 141 529 156 q 546 96 546 126 l 546 60 q 538 15 546 29 q 510 0 529 0 l 136 0 q 100 12 111 0 q 89 51 89 24 l 89 935 q 160 975 89 975 l 203 975 q 257 965 240 975 q 274 935 274 956 l 274 618 q 276 608 276 615 l 276 593 q 274 578 276 586 l 274 156 l 510 156 z "},"M":{"ha":957,"x_min":82,"x_max":874,"o":"m 463 318 q 433 324 444 318 q 415 346 422 331 l 292 582 q 274 621 283 597 q 258 657 264 644 l 253 656 q 261 571 261 600 l 261 38 q 244 7 261 17 q 190 -3 228 -3 l 153 -3 q 99 7 115 -3 q 82 38 82 17 l 82 935 q 99 965 82 956 q 153 975 115 975 l 192 975 q 238 967 221 975 q 264 940 254 958 l 454 576 q 479 510 464 557 q 503 576 486 544 l 692 940 q 719 967 701 958 q 765 975 736 975 l 803 975 q 857 965 840 975 q 874 935 874 956 l 874 38 q 857 7 874 17 q 803 -3 840 -3 l 767 -3 q 713 7 729 -3 q 696 38 696 17 l 696 571 q 704 656 696 600 l 699 657 q 664 582 681 610 l 542 346 q 523 324 533 331 q 494 318 513 318 l 463 318 z "},"N":{"ha":819,"x_min":82,"x_max":738,"o":"m 153 -3 q 82 38 82 -3 l 82 935 q 153 975 82 975 l 189 975 q 229 968 214 975 q 254 940 244 961 l 529 429 q 572 328 546 399 l 579 331 q 568 435 568 386 l 568 935 q 639 975 568 975 l 667 975 q 738 935 738 975 l 738 38 q 667 -3 738 -3 l 639 -3 q 597 4 614 -3 q 572 31 581 11 l 285 561 q 247 649 271 586 l 240 646 q 251 551 251 594 l 251 38 q 181 -3 251 -3 l 153 -3 z "},"Ǌ":{"ha":1313,"x_min":82,"x_max":1226,"o":"m 153 -3 q 82 38 82 -3 l 82 935 q 153 975 82 975 l 189 975 q 229 968 214 975 q 254 940 244 961 l 529 429 q 572 328 546 399 l 579 331 q 568 435 568 386 l 568 935 q 639 975 568 975 l 667 975 q 738 935 738 975 l 738 38 q 667 -3 738 -3 l 639 -3 q 597 4 614 -3 q 572 31 581 11 l 285 561 q 247 649 271 586 l 240 646 q 251 551 251 594 l 251 38 q 181 -3 251 -3 l 153 -3 m 978 -10 q 876 6 922 -10 q 831 47 831 22 q 846 118 831 79 q 881 158 861 157 q 907 153 886 158 q 950 149 928 149 q 1019 184 999 149 q 1040 300 1040 219 l 1040 935 q 1111 976 1040 976 l 1156 976 q 1226 935 1226 976 l 1226 282 q 978 -10 1226 -10 z "},"Ń":{"ha":819,"x_min":82,"x_max":738,"o":"m 153 -3 q 82 38 82 -3 l 82 935 q 153 975 82 975 l 189 975 q 229 968 214 975 q 254 940 244 961 l 529 429 q 572 328 546 399 l 579 331 q 568 435 568 386 l 568 935 q 639 975 568 975 l 667 975 q 738 935 738 975 l 738 38 q 667 -3 738 -3 l 639 -3 q 597 4 614 -3 q 572 31 581 11 l 285 561 q 247 649 271 586 l 240 646 q 251 551 251 594 l 251 38 q 181 -3 251 -3 l 153 -3 m 388 1049 q 359 1053 367 1049 q 351 1068 351 1057 q 360 1095 351 1075 q 380 1136 369 1115 q 396 1167 390 1157 l 426 1228 q 525 1264 443 1264 q 577 1260 561 1264 q 593 1246 593 1256 q 585 1223 593 1236 q 539 1163 576 1210 l 476 1081 q 446 1057 465 1065 q 388 1049 426 1049 z "},"Ň":{"ha":819,"x_min":82,"x_max":738,"o":"m 153 -3 q 82 38 82 -3 l 82 935 q 153 975 82 975 l 189 975 q 229 968 214 975 q 254 940 244 961 l 529 429 q 572 328 546 399 l 579 331 q 568 435 568 386 l 568 935 q 639 975 568 975 l 667 975 q 738 935 738 975 l 738 38 q 667 -3 738 -3 l 639 -3 q 597 4 614 -3 q 572 31 581 11 l 285 561 q 247 649 271 586 l 240 646 q 251 551 251 594 l 251 38 q 181 -3 251 -3 l 153 -3 m 404 1046 q 360 1052 376 1046 q 333 1074 343 1058 l 256 1207 q 246 1231 246 1222 q 274 1246 246 1246 l 307 1246 q 365 1222 347 1246 l 410 1146 l 456 1222 q 514 1246 468 1246 l 549 1246 q 575 1231 575 1246 q 567 1207 575 1224 l 486 1074 q 460 1052 476 1058 q 417 1046 443 1046 l 404 1046 z "},"Ņ":{"ha":819,"x_min":82,"x_max":738,"o":"m 153 -3 q 82 38 82 -3 l 82 935 q 153 975 82 975 l 189 975 q 229 968 214 975 q 254 940 244 961 l 529 429 q 572 328 546 399 l 579 331 q 568 435 568 386 l 568 935 q 639 975 568 975 l 667 975 q 738 935 738 975 l 738 38 q 667 -3 738 -3 l 639 -3 q 597 4 614 -3 q 572 31 581 11 l 285 561 q 247 649 271 586 l 240 646 q 251 551 251 594 l 251 38 q 181 -3 251 -3 l 153 -3 m 364 -331 q 326 -324 343 -331 q 310 -304 310 -318 q 315 -269 310 -297 q 333 -126 333 -207 q 404 -71 333 -71 l 426 -71 q 470 -85 456 -71 q 485 -124 485 -100 q 463 -222 485 -174 q 413 -300 442 -269 q 364 -331 385 -331 z "},"Ṅ":{"ha":819,"x_min":82,"x_max":738,"o":"m 153 -3 q 82 38 82 -3 l 82 935 q 153 975 82 975 l 189 975 q 229 968 214 975 q 254 940 244 961 l 529 429 q 572 328 546 399 l 579 331 q 568 435 568 386 l 568 935 q 639 975 568 975 l 667 975 q 738 935 738 975 l 738 38 q 667 -3 738 -3 l 639 -3 q 597 4 614 -3 q 572 31 581 11 l 285 561 q 247 649 271 586 l 240 646 q 251 551 251 594 l 251 38 q 181 -3 251 -3 l 153 -3 m 411 1063 q 326 1103 326 1063 l 326 1181 q 410 1221 326 1221 q 494 1181 494 1221 l 494 1103 q 411 1063 494 1063 z "},"Ŋ":{"ha":819,"x_min":82,"x_max":738,"o":"m 667 975 q 738 935 738 975 l 738 -83 q 688 -242 738 -190 q 563 -294 638 -294 q 472 -281 504 -294 q 439 -233 439 -267 q 449 -178 439 -208 q 478 -147 460 -147 q 497 -151 483 -147 q 522 -154 510 -154 q 558 -138 547 -154 q 569 -82 569 -122 l 569 35 l 285 561 q 247 649 271 586 l 240 646 q 251 551 251 594 l 251 38 q 181 -3 251 -3 l 153 -3 q 82 38 82 -3 l 82 935 q 153 975 82 975 l 189 975 q 229 968 214 975 q 254 940 244 961 l 529 429 q 572 328 546 399 l 579 331 q 568 435 568 386 l 568 935 q 639 975 568 975 l 667 975 z "},"ǋ":{"ha":1165,"x_min":82,"x_max":1083,"o":"m 153 -3 q 82 38 82 -3 l 82 935 q 153 975 82 975 l 189 975 q 229 968 214 975 q 254 940 244 961 l 529 429 q 572 328 546 399 l 579 331 q 568 435 568 386 l 568 935 q 639 975 568 975 l 667 975 q 738 935 738 975 l 738 38 q 667 -3 738 -3 l 639 -3 q 597 4 614 -3 q 572 31 581 11 l 285 561 q 247 649 271 586 l 240 646 q 251 551 251 594 l 251 38 q 181 -3 251 -3 l 153 -3 m 910 -294 q 819 -281 851 -294 q 786 -233 786 -268 q 797 -178 786 -208 q 824 -147 807 -147 q 843 -151 831 -147 q 868 -154 856 -154 q 899 -137 889 -154 q 908 -82 908 -121 l 908 689 q 982 729 908 729 l 1010 729 q 1083 689 1083 729 l 1083 -83 q 1033 -242 1083 -190 q 910 -294 983 -294 m 999 817 q 914 857 914 817 l 914 935 q 997 975 914 975 q 1082 935 1082 975 l 1082 857 q 999 817 1082 817 z "},"Ñ":{"ha":819,"x_min":82,"x_max":738,"o":"m 153 -3 q 82 38 82 -3 l 82 935 q 153 975 82 975 l 189 975 q 229 968 214 975 q 254 940 244 961 l 529 429 q 572 328 546 399 l 579 331 q 568 435 568 386 l 568 935 q 639 975 568 975 l 667 975 q 738 935 738 975 l 738 38 q 667 -3 738 -3 l 639 -3 q 597 4 614 -3 q 572 31 581 11 l 285 561 q 247 649 271 586 l 240 646 q 251 551 251 594 l 251 38 q 181 -3 251 -3 l 153 -3 m 217 1063 q 190 1092 190 1069 q 196 1113 190 1100 q 243 1183 213 1158 q 317 1208 274 1208 q 410 1183 346 1208 q 483 1163 461 1163 q 525 1189 506 1163 q 560 1213 540 1213 q 578 1208 568 1213 l 590 1204 q 617 1175 617 1197 q 611 1154 617 1168 q 563 1084 594 1110 q 490 1058 532 1058 q 433 1069 465 1058 q 393 1083 401 1081 q 322 1104 343 1104 q 282 1076 300 1104 q 266 1059 274 1064 q 249 1054 258 1054 q 231 1057 242 1054 l 217 1063 z "},"O":{"ha":832,"x_min":58,"x_max":774,"o":"m 417 -10 q 58 488 58 -10 q 417 982 58 982 q 774 488 774 982 q 417 -10 774 -10 m 418 146 q 544 224 503 146 q 586 488 586 303 q 545 749 586 672 q 418 826 504 826 q 289 749 331 826 q 247 488 247 672 q 289 224 247 303 q 418 146 331 146 z "},"Ó":{"ha":832,"x_min":58,"x_max":774,"o":"m 417 -10 q 58 488 58 -10 q 417 982 58 982 q 774 488 774 982 q 417 -10 774 -10 m 418 146 q 544 224 503 146 q 586 488 586 303 q 545 749 586 672 q 418 826 504 826 q 289 749 331 826 q 247 488 247 672 q 289 224 247 303 q 418 146 331 146 m 394 1049 q 366 1053 374 1049 q 358 1068 358 1057 q 367 1095 358 1075 q 387 1136 376 1115 q 403 1167 397 1157 l 433 1228 q 532 1264 450 1264 q 584 1260 568 1264 q 600 1246 600 1256 q 592 1223 600 1236 q 546 1163 583 1210 l 483 1081 q 453 1057 472 1065 q 394 1049 433 1049 z "},"Ŏ":{"ha":832,"x_min":58,"x_max":774,"o":"m 417 -10 q 58 488 58 -10 q 417 982 58 982 q 774 488 774 982 q 417 -10 774 -10 m 418 146 q 544 224 503 146 q 586 488 586 303 q 545 749 586 672 q 418 826 504 826 q 289 749 331 826 q 247 488 247 672 q 289 224 247 303 q 418 146 331 146 m 415 1049 q 288 1092 335 1049 q 242 1201 242 1136 q 286 1239 242 1239 q 308 1232 300 1239 q 324 1211 317 1225 q 355 1176 336 1189 q 417 1164 374 1164 q 481 1177 463 1164 q 511 1213 500 1190 q 546 1239 521 1239 q 590 1201 590 1239 q 544 1093 590 1138 q 415 1049 497 1049 z "},"Ô":{"ha":832,"x_min":58,"x_max":774,"o":"m 417 -10 q 58 488 58 -10 q 417 982 58 982 q 774 488 774 982 q 417 -10 774 -10 m 418 146 q 544 224 503 146 q 586 488 586 303 q 545 749 586 672 q 418 826 504 826 q 289 749 331 826 q 247 488 247 672 q 289 224 247 303 q 418 146 331 146 m 279 1042 q 251 1057 251 1042 q 261 1082 251 1065 l 339 1215 q 366 1237 349 1231 q 411 1243 383 1243 l 419 1243 q 465 1237 447 1243 q 492 1215 482 1231 l 572 1082 q 581 1058 581 1063 q 554 1042 581 1042 l 519 1042 q 461 1065 474 1042 l 415 1142 l 371 1067 q 313 1042 354 1042 l 279 1042 z "},"Ố":{"ha":813,"x_min":58,"x_max":774,"o":"m 549 1183 q 525 1188 532 1183 q 518 1201 518 1192 q 526 1231 518 1208 q 550 1292 535 1254 l 569 1338 q 664 1375 589 1375 q 703 1369 692 1375 q 715 1347 715 1364 q 697 1313 715 1339 q 640 1238 679 1288 l 615 1206 q 592 1189 607 1194 q 549 1183 576 1183 m 278 1042 q 250 1057 250 1042 q 257 1081 250 1067 l 329 1215 q 356 1238 338 1232 q 401 1243 374 1243 l 410 1243 q 456 1238 439 1243 q 482 1215 474 1232 l 556 1081 q 564 1058 564 1064 q 536 1042 564 1042 l 501 1042 q 443 1065 456 1042 l 406 1142 l 368 1065 q 347 1047 361 1051 q 311 1042 332 1042 l 278 1042 m 417 -10 q 58 488 58 -10 q 417 982 58 982 q 774 488 774 982 q 417 -10 774 -10 m 418 146 q 544 224 503 146 q 586 488 586 303 q 545 749 586 672 q 418 826 504 826 q 289 749 331 826 q 247 488 247 672 q 289 224 247 303 q 418 146 331 146 z "},"Ộ":{"ha":832,"x_min":58,"x_max":774,"o":"m 417 -10 q 58 488 58 -10 q 417 982 58 982 q 774 488 774 982 q 417 -10 774 -10 m 418 146 q 544 224 503 146 q 586 488 586 303 q 545 749 586 672 q 418 826 504 826 q 289 749 331 826 q 247 488 247 672 q 289 224 247 303 q 418 146 331 146 m 421 -269 q 336 -229 336 -269 l 336 -151 q 419 -111 336 -111 q 504 -151 504 -111 l 504 -229 q 421 -269 504 -269 m 279 1042 q 251 1057 251 1042 q 261 1082 251 1065 l 339 1215 q 366 1237 349 1231 q 411 1243 383 1243 l 419 1243 q 465 1237 447 1243 q 492 1215 482 1231 l 572 1082 q 581 1058 581 1063 q 554 1042 581 1042 l 519 1042 q 461 1065 474 1042 l 415 1142 l 371 1067 q 313 1042 354 1042 l 279 1042 z "},"Ồ":{"ha":813,"x_min":58,"x_max":774,"o":"m 611 1183 q 542 1208 561 1183 q 510 1251 513 1247 q 478 1294 501 1263 q 449 1334 454 1325 q 444 1350 444 1343 q 457 1369 444 1364 q 499 1375 469 1375 q 596 1338 579 1375 q 632 1244 619 1278 q 644 1201 644 1210 q 638 1188 644 1192 q 611 1183 631 1183 m 278 1042 q 250 1057 250 1042 q 257 1081 250 1067 l 329 1215 q 356 1238 338 1232 q 401 1243 374 1243 l 410 1243 q 456 1238 439 1243 q 482 1215 474 1232 l 556 1081 q 564 1058 564 1064 q 536 1042 564 1042 l 501 1042 q 443 1065 456 1042 l 406 1142 l 368 1065 q 347 1047 361 1051 q 311 1042 332 1042 l 278 1042 m 417 -10 q 58 488 58 -10 q 417 982 58 982 q 774 488 774 982 q 417 -10 774 -10 m 418 146 q 544 224 503 146 q 586 488 586 303 q 545 749 586 672 q 418 826 504 826 q 289 749 331 826 q 247 488 247 672 q 289 224 247 303 q 418 146 331 146 z "},"Ổ":{"ha":813,"x_min":58,"x_max":774,"o":"m 575 1193 q 534 1202 550 1193 q 518 1222 518 1211 q 547 1247 518 1233 q 581 1268 571 1260 q 590 1290 590 1276 q 579 1312 590 1304 q 553 1319 568 1319 q 505 1308 524 1319 q 482 1297 486 1297 q 459 1317 474 1297 q 444 1351 444 1338 q 481 1378 444 1365 q 554 1390 517 1390 q 644 1366 608 1390 q 679 1297 679 1342 q 639 1224 679 1257 q 606 1203 625 1213 q 575 1193 588 1193 m 278 1042 q 250 1057 250 1042 q 257 1081 250 1067 l 329 1215 q 356 1238 338 1232 q 401 1243 374 1243 l 410 1243 q 456 1238 439 1243 q 482 1215 474 1232 l 556 1081 q 564 1058 564 1064 q 536 1042 564 1042 l 501 1042 q 443 1065 456 1042 l 406 1142 l 368 1065 q 347 1047 361 1051 q 311 1042 332 1042 l 278 1042 m 417 -10 q 58 488 58 -10 q 417 982 58 982 q 774 488 774 982 q 417 -10 774 -10 m 418 146 q 544 224 503 146 q 586 488 586 303 q 545 749 586 672 q 418 826 504 826 q 289 749 331 826 q 247 488 247 672 q 289 224 247 303 q 418 146 331 146 z "},"Ỗ":{"ha":813,"x_min":58,"x_max":774,"o":"m 235 1247 q 213 1276 213 1254 q 217 1297 213 1285 q 260 1368 232 1343 q 328 1393 289 1393 q 413 1368 354 1393 q 442 1356 419 1365 q 479 1347 464 1347 q 515 1375 499 1347 q 547 1397 531 1397 q 564 1394 553 1397 l 575 1390 q 600 1360 600 1381 q 599 1349 600 1353 q 596 1340 597 1344 q 551 1270 579 1296 q 485 1244 522 1244 q 399 1269 457 1244 q 369 1281 393 1272 q 331 1290 346 1290 q 294 1263 314 1290 q 281 1245 288 1250 q 264 1240 274 1240 q 249 1243 260 1240 l 235 1247 m 278 1042 q 256 1045 263 1042 q 250 1058 250 1049 q 261 1086 250 1064 l 329 1185 q 357 1206 340 1200 q 403 1213 374 1213 l 411 1213 q 457 1206 440 1213 q 483 1185 474 1200 l 553 1086 q 564 1058 564 1068 q 557 1047 564 1051 q 536 1042 550 1042 l 501 1042 q 466 1047 478 1042 q 444 1065 454 1053 l 407 1129 l 368 1065 q 345 1047 357 1051 q 311 1042 333 1042 l 278 1042 m 417 -10 q 58 488 58 -10 q 417 982 58 982 q 774 488 774 982 q 417 -10 774 -10 m 418 146 q 544 224 503 146 q 586 488 586 303 q 545 749 586 672 q 418 826 504 826 q 289 749 331 826 q 247 488 247 672 q 289 224 247 303 q 418 146 331 146 z "},"Ö":{"ha":832,"x_min":58,"x_max":774,"o":"m 417 -10 q 58 488 58 -10 q 417 982 58 982 q 774 488 774 982 q 417 -10 774 -10 m 418 146 q 544 224 503 146 q 586 488 586 303 q 545 749 586 672 q 418 826 504 826 q 289 749 331 826 q 247 488 247 672 q 289 224 247 303 q 418 146 331 146 m 315 1063 q 243 1103 243 1063 l 243 1181 q 314 1221 243 1221 q 385 1181 385 1221 l 385 1103 q 315 1063 385 1063 m 522 1063 q 451 1103 451 1063 l 451 1181 q 521 1221 451 1221 q 593 1181 593 1221 l 593 1103 q 522 1063 593 1063 z "},"Ọ":{"ha":832,"x_min":58,"x_max":774,"o":"m 417 -10 q 58 488 58 -10 q 417 982 58 982 q 774 488 774 982 q 417 -10 774 -10 m 418 146 q 544 224 503 146 q 586 488 586 303 q 545 749 586 672 q 418 826 504 826 q 289 749 331 826 q 247 488 247 672 q 289 224 247 303 q 418 146 331 146 m 421 -269 q 336 -229 336 -269 l 336 -151 q 419 -111 336 -111 q 504 -151 504 -111 l 504 -229 q 421 -269 504 -269 z "},"Ò":{"ha":832,"x_min":58,"x_max":774,"o":"m 417 -10 q 58 488 58 -10 q 417 982 58 982 q 774 488 774 982 q 417 -10 774 -10 m 418 146 q 544 224 503 146 q 586 488 586 303 q 545 749 586 672 q 418 826 504 826 q 289 749 331 826 q 247 488 247 672 q 289 224 247 303 q 418 146 331 146 m 442 1049 q 384 1058 403 1049 q 354 1081 365 1067 l 292 1161 q 245 1223 254 1210 q 236 1246 236 1236 q 253 1260 236 1256 q 306 1264 269 1264 q 406 1228 385 1264 q 459 1117 440 1157 q 478 1068 478 1078 q 470 1053 478 1057 q 442 1049 463 1049 z "},"Ỏ":{"ha":832,"x_min":58,"x_max":774,"o":"m 417 -10 q 58 488 58 -10 q 417 982 58 982 q 774 488 774 982 q 417 -10 774 -10 m 418 146 q 544 224 503 146 q 586 488 586 303 q 545 749 586 672 q 418 826 504 826 q 289 749 331 826 q 247 488 247 672 q 289 224 247 303 q 418 146 331 146 m 442 1035 q 399 1044 422 1035 q 376 1064 376 1054 q 388 1083 376 1072 q 413 1104 399 1093 q 453 1140 439 1124 q 468 1175 468 1156 q 454 1199 468 1190 q 421 1208 440 1208 q 381 1200 399 1208 q 361 1192 364 1192 q 338 1212 353 1192 q 322 1246 322 1232 q 359 1274 322 1260 q 432 1289 396 1289 q 536 1262 496 1289 q 576 1182 576 1235 q 549 1113 576 1146 q 489 1057 522 1079 q 442 1035 456 1035 z "},"Ơ":{"ha":832,"x_min":58,"x_max":821,"o":"m 417 -10 q 58 488 58 -10 q 417 982 58 982 q 618 922 536 982 q 668 907 640 907 q 719 951 719 907 q 696 1007 719 978 q 688 1017 694 1008 q 682 1033 682 1026 q 696 1057 682 1049 l 738 1085 q 757 1092 744 1092 q 801 1053 782 1092 q 821 981 821 1015 q 788 892 821 925 q 686 853 754 858 q 774 488 774 729 q 417 -10 774 -10 m 418 146 q 544 224 503 146 q 586 488 586 303 q 545 749 586 672 q 418 826 504 826 q 289 749 331 826 q 247 488 247 672 q 289 224 247 303 q 418 146 331 146 z "},"Ớ":{"ha":832,"x_min":58,"x_max":821,"o":"m 417 -10 q 58 488 58 -10 q 417 982 58 982 q 618 922 536 982 q 668 907 640 907 q 719 951 719 907 q 696 1007 719 978 q 688 1017 694 1008 q 682 1033 682 1026 q 696 1057 682 1049 l 738 1085 q 757 1092 744 1092 q 801 1053 782 1092 q 821 981 821 1015 q 788 892 821 925 q 686 853 754 858 q 774 488 774 729 q 417 -10 774 -10 m 418 146 q 544 224 503 146 q 586 488 586 303 q 545 749 586 672 q 418 826 504 826 q 289 749 331 826 q 247 488 247 672 q 289 224 247 303 q 418 146 331 146 m 394 1049 q 366 1053 374 1049 q 358 1068 358 1057 q 367 1095 358 1075 q 387 1136 376 1115 q 403 1167 397 1157 l 433 1228 q 532 1264 450 1264 q 584 1260 568 1264 q 600 1246 600 1256 q 592 1223 600 1236 q 546 1163 583 1210 l 483 1081 q 453 1057 472 1065 q 394 1049 433 1049 z "},"Ợ":{"ha":832,"x_min":58,"x_max":821,"o":"m 417 -10 q 58 488 58 -10 q 417 982 58 982 q 618 922 536 982 q 668 907 640 907 q 719 951 719 907 q 696 1007 719 978 q 688 1017 694 1008 q 682 1033 682 1026 q 696 1057 682 1049 l 738 1085 q 757 1092 744 1092 q 801 1053 782 1092 q 821 981 821 1015 q 788 892 821 925 q 686 853 754 858 q 774 488 774 729 q 417 -10 774 -10 m 418 146 q 544 224 503 146 q 586 488 586 303 q 545 749 586 672 q 418 826 504 826 q 289 749 331 826 q 247 488 247 672 q 289 224 247 303 q 418 146 331 146 m 421 -269 q 336 -229 336 -269 l 336 -151 q 419 -111 336 -111 q 504 -151 504 -111 l 504 -229 q 421 -269 504 -269 z "},"Ờ":{"ha":832,"x_min":58,"x_max":821,"o":"m 417 -10 q 58 488 58 -10 q 417 982 58 982 q 618 922 536 982 q 668 907 640 907 q 719 951 719 907 q 696 1007 719 978 q 688 1017 694 1008 q 682 1033 682 1026 q 696 1057 682 1049 l 738 1085 q 757 1092 744 1092 q 801 1053 782 1092 q 821 981 821 1015 q 788 892 821 925 q 686 853 754 858 q 774 488 774 729 q 417 -10 774 -10 m 418 146 q 544 224 503 146 q 586 488 586 303 q 545 749 586 672 q 418 826 504 826 q 289 749 331 826 q 247 488 247 672 q 289 224 247 303 q 418 146 331 146 m 442 1049 q 384 1058 403 1049 q 354 1081 365 1067 l 292 1161 q 245 1223 254 1210 q 236 1246 236 1236 q 253 1260 236 1256 q 306 1264 269 1264 q 406 1228 385 1264 q 459 1117 440 1157 q 478 1068 478 1078 q 470 1053 478 1057 q 442 1049 463 1049 z "},"Ở":{"ha":832,"x_min":58,"x_max":821,"o":"m 417 -10 q 58 488 58 -10 q 417 982 58 982 q 618 922 536 982 q 668 907 640 907 q 719 951 719 907 q 696 1007 719 978 q 688 1017 694 1008 q 682 1033 682 1026 q 696 1057 682 1049 l 738 1085 q 757 1092 744 1092 q 801 1053 782 1092 q 821 981 821 1015 q 788 892 821 925 q 686 853 754 858 q 774 488 774 729 q 417 -10 774 -10 m 418 146 q 544 224 503 146 q 586 488 586 303 q 545 749 586 672 q 418 826 504 826 q 289 749 331 826 q 247 488 247 672 q 289 224 247 303 q 418 146 331 146 m 442 1035 q 399 1044 422 1035 q 376 1064 376 1054 q 388 1083 376 1072 q 413 1104 399 1093 q 453 1140 439 1124 q 468 1175 468 1156 q 454 1199 468 1190 q 421 1208 440 1208 q 381 1200 399 1208 q 361 1192 364 1192 q 338 1212 353 1192 q 322 1246 322 1232 q 359 1274 322 1260 q 432 1289 396 1289 q 536 1262 496 1289 q 576 1182 576 1235 q 549 1113 576 1146 q 489 1057 522 1079 q 442 1035 456 1035 z "},"Ỡ":{"ha":832,"x_min":58,"x_max":821,"o":"m 417 -10 q 58 488 58 -10 q 417 982 58 982 q 618 922 536 982 q 668 907 640 907 q 719 951 719 907 q 696 1007 719 978 q 688 1017 694 1008 q 682 1033 682 1026 q 696 1057 682 1049 l 738 1085 q 757 1092 744 1092 q 801 1053 782 1092 q 821 981 821 1015 q 788 892 821 925 q 686 853 754 858 q 774 488 774 729 q 417 -10 774 -10 m 418 146 q 544 224 503 146 q 586 488 586 303 q 545 749 586 672 q 418 826 504 826 q 289 749 331 826 q 247 488 247 672 q 289 224 247 303 q 418 146 331 146 m 224 1063 q 197 1092 197 1069 q 203 1113 197 1100 q 250 1183 219 1158 q 324 1208 281 1208 q 417 1183 353 1208 q 490 1163 468 1163 q 532 1189 513 1163 q 567 1213 547 1213 q 585 1208 575 1213 l 597 1204 q 624 1175 624 1197 q 618 1154 624 1168 q 570 1084 601 1110 q 497 1058 539 1058 q 440 1069 472 1058 q 400 1083 408 1081 q 329 1104 350 1104 q 289 1076 307 1104 q 273 1059 281 1064 q 256 1054 265 1054 q 238 1057 249 1054 l 224 1063 z "},"Ő":{"ha":832,"x_min":58,"x_max":774,"o":"m 417 -10 q 58 488 58 -10 q 417 982 58 982 q 774 488 774 982 q 417 -10 774 -10 m 418 146 q 544 224 503 146 q 586 488 586 303 q 545 749 586 672 q 418 826 504 826 q 289 749 331 826 q 247 488 247 672 q 289 224 247 303 q 418 146 331 146 m 276 1049 q 248 1053 256 1049 q 240 1068 240 1057 q 252 1100 240 1075 q 267 1132 264 1125 l 313 1228 q 413 1264 331 1264 q 465 1260 449 1264 q 482 1246 482 1256 q 472 1221 482 1236 q 436 1174 461 1206 q 409 1139 426 1161 q 365 1081 392 1117 q 334 1057 353 1065 q 276 1049 315 1049 m 488 1049 q 459 1053 467 1049 q 451 1068 451 1057 q 475 1124 451 1078 q 525 1228 483 1140 q 624 1264 543 1264 q 676 1260 660 1264 q 693 1246 693 1256 q 683 1222 693 1236 q 624 1143 674 1207 q 576 1081 613 1126 q 547 1057 565 1065 q 488 1049 528 1049 z "},"Ō":{"ha":832,"x_min":58,"x_max":774,"o":"m 417 -10 q 58 488 58 -10 q 417 982 58 982 q 774 488 774 982 q 417 -10 774 -10 m 418 146 q 544 224 503 146 q 586 488 586 303 q 545 749 586 672 q 418 826 504 826 q 289 749 331 826 q 247 488 247 672 q 289 224 247 303 q 418 146 331 146 m 285 1082 q 257 1094 265 1082 q 249 1133 249 1107 l 249 1151 q 257 1190 249 1178 q 285 1203 265 1203 l 553 1203 q 581 1191 572 1203 q 589 1151 589 1179 l 589 1133 q 581 1094 589 1106 q 553 1082 572 1082 l 285 1082 z "},"Ǫ":{"ha":832,"x_min":58,"x_max":774,"o":"m 774 488 q 521 3 774 69 q 496 -97 496 -47 q 564 -158 496 -158 q 587 -155 575 -158 q 606 -151 599 -151 q 633 -160 624 -151 q 642 -190 642 -169 q 621 -232 642 -218 q 538 -251 582 -251 q 433 -210 460 -251 q 406 -124 406 -169 q 413 -69 406 -100 q 433 -10 419 -39 l 417 -10 q 58 488 58 -10 q 417 982 58 982 q 774 488 774 982 m 247 488 q 289 224 247 303 q 418 146 331 146 q 544 224 503 146 q 586 488 586 303 q 545 749 586 672 q 418 826 504 826 q 289 749 331 826 q 247 488 247 672 z "},"Ø":{"ha":832,"x_min":56,"x_max":774,"o":"m 692 847 q 774 488 774 725 q 417 -10 774 -10 q 190 67 276 -10 l 142 -10 q 113 -29 129 -29 q 76 -14 97 -29 q 56 17 56 1 q 64 40 56 28 l 129 143 q 58 488 58 268 q 417 982 58 982 q 628 918 546 982 l 672 988 q 701 1007 686 1007 q 738 992 717 1007 q 758 961 758 976 q 750 938 758 949 l 692 847 m 247 488 q 256 340 247 401 l 532 769 q 418 826 493 826 q 289 749 331 826 q 247 488 247 672 m 418 146 q 544 224 503 146 q 586 488 586 303 q 572 661 586 596 l 290 222 q 343 164 311 182 q 418 146 375 146 z "},"Ǿ":{"ha":832,"x_min":56,"x_max":774,"o":"m 692 847 q 774 488 774 725 q 417 -10 774 -10 q 190 67 276 -10 l 142 -10 q 113 -29 129 -29 q 76 -14 97 -29 q 56 17 56 1 q 64 40 56 28 l 129 143 q 58 488 58 268 q 417 982 58 982 q 628 918 546 982 l 672 988 q 701 1007 686 1007 q 738 992 717 1007 q 758 961 758 976 q 750 938 758 949 l 692 847 m 247 488 q 256 340 247 401 l 532 769 q 418 826 493 826 q 289 749 331 826 q 247 488 247 672 m 418 146 q 544 224 503 146 q 586 488 586 303 q 572 661 586 596 l 290 222 q 343 164 311 182 q 418 146 375 146 m 394 1049 q 366 1053 374 1049 q 358 1068 358 1057 q 367 1095 358 1075 q 387 1136 376 1115 q 403 1167 397 1157 l 433 1228 q 532 1264 450 1264 q 584 1260 568 1264 q 600 1246 600 1256 q 592 1223 600 1236 q 546 1163 583 1210 l 483 1081 q 453 1057 472 1065 q 394 1049 433 1049 z "},"Õ":{"ha":832,"x_min":58,"x_max":774,"o":"m 417 -10 q 58 488 58 -10 q 417 982 58 982 q 774 488 774 982 q 417 -10 774 -10 m 418 146 q 544 224 503 146 q 586 488 586 303 q 545 749 586 672 q 418 826 504 826 q 289 749 331 826 q 247 488 247 672 q 289 224 247 303 q 418 146 331 146 m 224 1063 q 197 1092 197 1069 q 203 1113 197 1100 q 250 1183 219 1158 q 324 1208 281 1208 q 417 1183 353 1208 q 490 1163 468 1163 q 532 1189 513 1163 q 567 1213 547 1213 q 585 1208 575 1213 l 597 1204 q 624 1175 624 1197 q 618 1154 624 1168 q 570 1084 601 1110 q 497 1058 539 1058 q 440 1069 472 1058 q 400 1083 408 1081 q 329 1104 350 1104 q 289 1076 307 1104 q 273 1059 281 1064 q 256 1054 265 1054 q 238 1057 249 1054 l 224 1063 z "},"Œ":{"ha":1143,"x_min":57,"x_max":1088,"o":"m 1054 156 q 1088 96 1088 156 l 1088 60 q 1054 0 1088 0 l 632 0 q 596 12 607 0 q 585 51 585 24 l 585 60 q 497 7 543 24 q 396 -10 451 -10 q 145 113 233 -10 q 57 488 57 235 q 145 861 57 740 q 397 982 233 982 q 499 966 454 982 q 585 914 544 950 l 585 924 q 596 960 585 949 q 632 972 607 972 l 1053 972 q 1078 958 1071 972 q 1086 913 1086 944 l 1086 876 q 1078 831 1086 844 q 1053 817 1071 817 l 769 817 l 769 575 l 1022 575 q 1049 561 1040 575 q 1057 515 1057 547 l 1057 479 q 1049 433 1057 447 q 1022 419 1040 419 l 769 419 l 769 156 l 1054 156 m 415 146 q 542 224 501 146 q 583 488 583 303 q 542 750 583 674 q 415 826 501 826 q 288 750 329 826 q 247 488 247 674 q 288 224 247 303 q 415 146 329 146 z "},"P":{"ha":669,"x_min":85,"x_max":640,"o":"m 158 -3 q 85 38 85 -3 l 85 921 q 97 960 85 947 q 135 972 108 972 l 371 972 q 558 910 476 972 q 640 679 640 849 q 593 493 640 560 q 488 403 546 426 q 383 381 429 381 l 268 381 l 268 38 q 196 -3 268 -3 l 158 -3 m 365 535 q 431 567 403 535 q 460 679 460 599 q 431 786 460 756 q 363 817 403 817 l 267 817 l 267 535 l 365 535 z "},"Þ":{"ha":669,"x_min":85,"x_max":640,"o":"m 156 -3 q 85 38 85 -3 l 85 935 q 156 975 85 975 l 199 975 q 269 935 269 975 l 269 815 l 371 815 q 558 753 476 815 q 640 522 640 692 q 593 336 640 403 q 488 247 546 269 q 383 224 429 224 l 269 224 l 269 38 q 199 -3 269 -3 l 156 -3 m 365 378 q 431 410 403 378 q 458 522 458 442 q 431 629 458 599 q 363 660 403 660 l 269 660 l 269 378 l 365 378 z "},"Q":{"ha":832,"x_min":58,"x_max":814,"o":"m 731 -225 q 622 -171 722 -225 q 258 21 450 -75 q 108 185 158 71 q 58 486 58 299 q 417 982 58 982 q 774 486 774 982 q 578 26 774 118 l 578 21 l 797 -85 q 814 -108 814 -92 q 799 -150 813 -121 q 767 -202 786 -179 q 731 -225 749 -225 m 418 143 q 544 222 503 143 q 586 486 586 300 q 545 749 586 671 q 418 826 504 826 q 289 749 331 826 q 247 486 247 671 q 289 222 247 300 q 418 143 331 143 z "},"R":{"ha":713,"x_min":86,"x_max":689,"o":"m 158 -3 q 86 38 86 -3 l 86 921 q 98 960 86 947 q 135 972 110 972 l 358 972 q 638 708 638 972 q 507 474 638 543 l 507 468 q 601 317 563 438 l 685 49 q 688 40 686 44 q 689 31 689 35 q 614 -1 689 -1 l 574 -1 q 501 31 508 -1 l 425 297 q 387 363 408 344 q 321 381 365 381 l 269 381 l 269 38 q 196 -3 269 -3 l 158 -3 m 368 550 q 432 588 406 550 q 458 688 458 625 q 433 785 458 754 q 363 817 407 817 l 268 817 l 268 550 l 368 550 z "},"Ŕ":{"ha":713,"x_min":86,"x_max":689,"o":"m 158 -3 q 86 38 86 -3 l 86 921 q 98 960 86 947 q 135 972 110 972 l 358 972 q 638 708 638 972 q 507 474 638 543 l 507 468 q 601 317 563 438 l 685 49 q 688 40 686 44 q 689 31 689 35 q 614 -1 689 -1 l 574 -1 q 501 31 508 -1 l 425 297 q 387 363 408 344 q 321 381 365 381 l 269 381 l 269 38 q 196 -3 269 -3 l 158 -3 m 368 550 q 432 588 406 550 q 458 688 458 625 q 433 785 458 754 q 363 817 407 817 l 268 817 l 268 550 l 368 550 m 328 1049 q 299 1053 307 1049 q 292 1068 292 1057 q 301 1095 292 1075 q 320 1136 310 1115 q 336 1167 331 1157 l 367 1228 q 465 1264 383 1264 q 517 1260 501 1264 q 533 1246 533 1256 q 525 1223 533 1236 q 479 1163 517 1210 l 417 1081 q 386 1057 406 1065 q 328 1049 367 1049 z "},"Ř":{"ha":713,"x_min":86,"x_max":689,"o":"m 158 -3 q 86 38 86 -3 l 86 921 q 98 960 86 947 q 135 972 110 972 l 358 972 q 638 708 638 972 q 507 474 638 543 l 507 468 q 601 317 563 438 l 685 49 q 688 40 686 44 q 689 31 689 35 q 614 -1 689 -1 l 574 -1 q 501 31 508 -1 l 425 297 q 387 363 408 344 q 321 381 365 381 l 269 381 l 269 38 q 196 -3 269 -3 l 158 -3 m 368 550 q 432 588 406 550 q 458 688 458 625 q 433 785 458 754 q 363 817 407 817 l 268 817 l 268 550 l 368 550 m 344 1046 q 300 1052 317 1046 q 274 1074 283 1058 l 196 1207 q 186 1231 186 1222 q 214 1246 186 1246 l 247 1246 q 306 1222 288 1246 l 350 1146 l 396 1222 q 454 1246 408 1246 l 489 1246 q 515 1231 515 1246 q 507 1207 515 1224 l 426 1074 q 400 1052 417 1058 q 357 1046 383 1046 l 344 1046 z "},"Ŗ":{"ha":713,"x_min":86,"x_max":689,"o":"m 158 -3 q 86 38 86 -3 l 86 921 q 98 960 86 947 q 135 972 110 972 l 358 972 q 638 708 638 972 q 507 474 638 543 l 507 468 q 601 317 563 438 l 685 49 q 688 40 686 44 q 689 31 689 35 q 614 -1 689 -1 l 574 -1 q 501 31 508 -1 l 425 297 q 387 363 408 344 q 321 381 365 381 l 269 381 l 269 38 q 196 -3 269 -3 l 158 -3 m 368 550 q 432 588 406 550 q 458 688 458 625 q 433 785 458 754 q 363 817 407 817 l 268 817 l 268 550 l 368 550 m 314 -331 q 276 -324 293 -331 q 260 -304 260 -318 q 265 -269 260 -297 q 283 -126 283 -207 q 354 -71 283 -71 l 376 -71 q 420 -85 406 -71 q 435 -124 435 -100 q 413 -222 435 -174 q 363 -300 392 -269 q 314 -331 335 -331 z "},"Ṛ":{"ha":713,"x_min":86,"x_max":689,"o":"m 158 -3 q 86 38 86 -3 l 86 921 q 98 960 86 947 q 135 972 110 972 l 358 972 q 638 708 638 972 q 507 474 638 543 l 507 468 q 601 317 563 438 l 685 49 q 688 40 686 44 q 689 31 689 35 q 614 -1 689 -1 l 574 -1 q 501 31 508 -1 l 425 297 q 387 363 408 344 q 321 381 365 381 l 269 381 l 269 38 q 196 -3 269 -3 l 158 -3 m 368 550 q 432 588 406 550 q 458 688 458 625 q 433 785 458 754 q 363 817 407 817 l 268 817 l 268 550 l 368 550 m 364 -269 q 279 -229 279 -269 l 279 -151 q 363 -111 279 -111 q 447 -151 447 -111 l 447 -229 q 364 -269 447 -269 z "},"S":{"ha":607,"x_min":39,"x_max":581,"o":"m 283 -10 q 153 9 217 -10 q 56 61 90 28 q 43 83 47 74 q 39 106 39 92 q 56 174 39 139 q 93 210 72 210 q 121 199 103 210 q 144 186 139 189 q 274 147 207 147 q 363 175 326 147 q 400 261 400 203 q 367 351 400 319 q 267 419 335 383 q 151 495 196 457 q 80 587 106 533 q 54 717 54 640 q 135 913 54 842 q 344 985 215 985 q 442 972 392 985 q 522 938 492 958 q 542 900 542 924 q 526 832 542 869 q 492 794 511 794 q 460 804 483 794 q 356 826 407 826 q 267 797 297 826 q 238 725 238 768 q 256 655 238 683 q 299 611 275 626 q 388 560 324 596 q 533 444 486 506 q 581 276 581 382 q 547 131 581 196 q 445 28 513 65 q 283 -10 378 -10 z "},"Ś":{"ha":607,"x_min":39,"x_max":581,"o":"m 283 -10 q 153 9 217 -10 q 56 61 90 28 q 43 83 47 74 q 39 106 39 92 q 56 174 39 139 q 93 210 72 210 q 121 199 103 210 q 144 186 139 189 q 274 147 207 147 q 363 175 326 147 q 400 261 400 203 q 367 351 400 319 q 267 419 335 383 q 151 495 196 457 q 80 587 106 533 q 54 717 54 640 q 135 913 54 842 q 344 985 215 985 q 442 972 392 985 q 522 938 492 958 q 542 900 542 924 q 526 832 542 869 q 492 794 511 794 q 460 804 483 794 q 356 826 407 826 q 267 797 297 826 q 238 725 238 768 q 256 655 238 683 q 299 611 275 626 q 388 560 324 596 q 533 444 486 506 q 581 276 581 382 q 547 131 581 196 q 445 28 513 65 q 283 -10 378 -10 m 292 1049 q 263 1053 271 1049 q 256 1068 256 1057 q 265 1095 256 1075 q 284 1136 274 1115 q 300 1167 294 1157 l 331 1228 q 429 1264 347 1264 q 481 1260 465 1264 q 497 1246 497 1256 q 489 1223 497 1236 q 443 1163 481 1210 l 381 1081 q 350 1057 369 1065 q 292 1049 331 1049 z "},"Š":{"ha":607,"x_min":39,"x_max":581,"o":"m 283 -10 q 153 9 217 -10 q 56 61 90 28 q 43 83 47 74 q 39 106 39 92 q 56 174 39 139 q 93 210 72 210 q 121 199 103 210 q 144 186 139 189 q 274 147 207 147 q 363 175 326 147 q 400 261 400 203 q 367 351 400 319 q 267 419 335 383 q 151 495 196 457 q 80 587 106 533 q 54 717 54 640 q 135 913 54 842 q 344 985 215 985 q 442 972 392 985 q 522 938 492 958 q 542 900 542 924 q 526 832 542 869 q 492 794 511 794 q 460 804 483 794 q 356 826 407 826 q 267 797 297 826 q 238 725 238 768 q 256 655 238 683 q 299 611 275 626 q 388 560 324 596 q 533 444 486 506 q 581 276 581 382 q 547 131 581 196 q 445 28 513 65 q 283 -10 378 -10 m 308 1046 q 264 1052 281 1046 q 238 1074 247 1058 l 160 1207 q 150 1231 150 1222 q 178 1246 150 1246 l 211 1246 q 269 1222 251 1246 l 314 1146 l 360 1222 q 418 1246 372 1246 l 453 1246 q 479 1231 479 1246 q 471 1207 479 1224 l 390 1074 q 364 1052 381 1058 q 321 1046 347 1046 l 308 1046 z "},"Ş":{"ha":607,"x_min":39,"x_max":581,"o":"m 581 276 q 519 90 581 167 q 347 -4 458 13 l 329 -72 q 396 -101 369 -76 q 422 -172 422 -126 q 383 -263 422 -233 q 281 -293 344 -293 q 183 -273 226 -293 q 140 -225 140 -253 q 153 -190 140 -204 q 178 -175 165 -175 q 211 -186 186 -175 q 269 -204 247 -204 q 295 -197 285 -204 q 306 -175 306 -190 q 297 -153 306 -160 q 268 -137 288 -147 q 236 -110 236 -126 q 244 -77 236 -101 q 267 -10 251 -53 q 147 11 204 -7 q 56 61 89 29 q 43 83 47 74 q 39 106 39 92 q 56 174 39 139 q 93 210 72 210 q 121 199 103 210 q 144 186 139 189 q 274 147 207 147 q 363 175 326 147 q 400 261 400 203 q 367 351 400 319 q 267 419 335 383 q 151 495 196 457 q 80 587 106 533 q 54 717 54 640 q 135 913 54 842 q 344 985 215 985 q 442 972 392 985 q 522 938 492 958 q 542 900 542 924 q 526 832 542 869 q 492 794 511 794 q 460 804 483 794 q 356 826 407 826 q 267 797 297 826 q 238 725 238 768 q 256 655 238 683 q 299 611 275 626 q 388 560 324 596 q 533 444 486 506 q 581 276 581 382 z "},"Ŝ":{"ha":607,"x_min":39,"x_max":581,"o":"m 283 -10 q 153 9 217 -10 q 56 61 90 28 q 43 83 47 74 q 39 106 39 92 q 56 174 39 139 q 93 210 72 210 q 121 199 103 210 q 144 186 139 189 q 274 147 207 147 q 363 175 326 147 q 400 261 400 203 q 367 351 400 319 q 267 419 335 383 q 151 495 196 457 q 80 587 106 533 q 54 717 54 640 q 135 913 54 842 q 344 985 215 985 q 442 972 392 985 q 522 938 492 958 q 542 900 542 924 q 526 832 542 869 q 492 794 511 794 q 460 804 483 794 q 356 826 407 826 q 267 797 297 826 q 238 725 238 768 q 256 655 238 683 q 299 611 275 626 q 388 560 324 596 q 533 444 486 506 q 581 276 581 382 q 547 131 581 196 q 445 28 513 65 q 283 -10 378 -10 m 176 1042 q 149 1057 149 1042 q 158 1082 149 1065 l 236 1215 q 263 1237 246 1231 q 308 1243 281 1243 l 317 1243 q 362 1237 344 1243 q 389 1215 379 1231 l 469 1082 q 478 1058 478 1063 q 451 1042 478 1042 l 417 1042 q 358 1065 371 1042 l 313 1142 l 268 1067 q 210 1042 251 1042 l 176 1042 z "},"Ș":{"ha":607,"x_min":39,"x_max":581,"o":"m 283 -10 q 153 9 217 -10 q 56 61 90 28 q 43 83 47 74 q 39 106 39 92 q 56 174 39 139 q 93 210 72 210 q 121 199 103 210 q 144 186 139 189 q 274 147 207 147 q 363 175 326 147 q 400 261 400 203 q 367 351 400 319 q 267 419 335 383 q 151 495 196 457 q 80 587 106 533 q 54 717 54 640 q 135 913 54 842 q 344 985 215 985 q 442 972 392 985 q 522 938 492 958 q 542 900 542 924 q 526 832 542 869 q 492 794 511 794 q 460 804 483 794 q 356 826 407 826 q 267 797 297 826 q 238 725 238 768 q 256 655 238 683 q 299 611 275 626 q 388 560 324 596 q 533 444 486 506 q 581 276 581 382 q 547 131 581 196 q 445 28 513 65 q 283 -10 378 -10 m 258 -331 q 221 -324 238 -331 q 204 -304 204 -318 q 210 -269 204 -297 q 228 -126 228 -207 q 299 -71 228 -71 l 321 -71 q 365 -85 350 -71 q 379 -124 379 -100 q 358 -222 379 -174 q 308 -300 336 -269 q 258 -331 279 -331 z "},"Ṣ":{"ha":607,"x_min":39,"x_max":581,"o":"m 283 -10 q 153 9 217 -10 q 56 61 90 28 q 43 83 47 74 q 39 106 39 92 q 56 174 39 139 q 93 210 72 210 q 121 199 103 210 q 144 186 139 189 q 274 147 207 147 q 363 175 326 147 q 400 261 400 203 q 367 351 400 319 q 267 419 335 383 q 151 495 196 457 q 80 587 106 533 q 54 717 54 640 q 135 913 54 842 q 344 985 215 985 q 442 972 392 985 q 522 938 492 958 q 542 900 542 924 q 526 832 542 869 q 492 794 511 794 q 460 804 483 794 q 356 826 407 826 q 267 797 297 826 q 238 725 238 768 q 256 655 238 683 q 299 611 275 626 q 388 560 324 596 q 533 444 486 506 q 581 276 581 382 q 547 131 581 196 q 445 28 513 65 q 283 -10 378 -10 m 308 -269 q 224 -229 224 -269 l 224 -151 q 307 -111 224 -111 q 392 -151 392 -111 l 392 -229 q 308 -269 392 -269 z "},"ẞ":{"ha":824,"x_min":79,"x_max":783,"o":"m 515 -10 q 383 15 450 -10 q 317 79 317 40 q 338 137 317 101 q 378 172 360 172 q 410 158 389 172 q 453 138 436 144 q 496 131 471 131 q 575 169 544 131 q 606 286 606 207 q 479 442 606 442 l 449 442 q 417 481 433 442 q 401 547 401 519 q 404 563 401 557 l 539 813 q 417 826 486 826 q 300 772 338 826 q 263 606 263 717 l 263 38 q 189 -3 263 -3 l 153 -3 q 79 38 79 -3 l 79 607 q 164 888 79 793 q 413 982 249 982 q 700 949 553 982 q 728 907 713 947 q 744 840 744 867 q 742 828 744 833 l 604 569 q 735 473 686 539 q 783 285 783 407 q 708 67 783 143 q 515 -10 633 -10 z "},"Ə":{"ha":778,"x_min":51,"x_max":694,"o":"m 361 -6 q 123 109 194 -6 q 51 443 51 224 q 76 488 51 458 q 113 517 100 517 l 513 517 q 489 711 510 642 q 431 808 468 781 q 338 836 394 836 q 244 823 286 836 q 164 790 203 810 q 128 776 136 776 q 88 812 110 776 q 65 869 65 847 q 110 925 65 899 q 221 967 154 951 q 349 982 288 982 q 610 855 525 982 q 694 464 694 728 q 610 107 694 219 q 361 -6 525 -6 m 360 139 q 467 196 431 139 q 514 392 503 253 l 224 392 q 253 200 224 261 q 360 139 283 139 z "},"T":{"ha":631,"x_min":17,"x_max":615,"o":"m 293 -3 q 222 38 222 -3 l 222 817 l 53 817 q 25 831 33 817 q 17 876 17 846 l 17 913 q 25 958 17 943 q 53 972 33 972 l 578 972 q 606 958 597 972 q 615 913 615 944 l 615 876 q 606 831 615 844 q 578 817 597 817 l 408 817 l 408 38 q 338 -3 408 -3 l 293 -3 z "},"Ŧ":{"ha":610,"x_min":17,"x_max":615,"o":"m 578 972 q 606 958 597 972 q 615 913 615 944 l 615 876 q 606 831 615 844 q 578 817 597 817 l 408 817 l 408 549 l 503 549 q 531 537 522 549 q 539 497 539 525 l 539 479 q 531 440 539 451 q 503 428 522 428 l 408 428 l 408 38 q 338 -3 408 -3 l 293 -3 q 222 38 222 -3 l 222 428 l 111 428 q 83 440 92 428 q 75 479 75 453 l 75 497 q 83 536 75 524 q 111 549 92 549 l 222 549 l 222 817 l 53 817 q 25 831 33 817 q 17 876 17 846 l 17 913 q 25 958 17 943 q 53 972 33 972 l 578 972 z "},"Ť":{"ha":631,"x_min":17,"x_max":615,"o":"m 293 -3 q 222 38 222 -3 l 222 817 l 53 817 q 25 831 33 817 q 17 876 17 846 l 17 913 q 25 958 17 943 q 53 972 33 972 l 578 972 q 606 958 597 972 q 615 913 615 944 l 615 876 q 606 831 615 844 q 578 817 597 817 l 408 817 l 408 38 q 338 -3 408 -3 l 293 -3 m 310 1046 q 265 1052 282 1046 q 239 1074 249 1058 l 161 1207 q 151 1231 151 1222 q 179 1246 151 1246 l 213 1246 q 271 1222 253 1246 l 315 1146 l 361 1222 q 419 1246 374 1246 l 454 1246 q 481 1231 481 1246 q 472 1207 481 1224 l 392 1074 q 365 1052 382 1058 q 322 1046 349 1046 l 310 1046 z "},"Ţ":{"ha":631,"x_min":17,"x_max":615,"o":"m 578 972 q 606 958 597 972 q 615 913 615 944 l 615 876 q 606 831 615 844 q 578 817 597 817 l 408 817 l 408 38 q 360 -1 408 3 l 340 -72 q 407 -101 381 -76 q 433 -172 433 -126 q 394 -263 433 -233 q 292 -293 356 -293 q 194 -273 238 -293 q 151 -225 151 -253 q 164 -190 151 -204 q 189 -175 176 -175 q 222 -186 197 -175 q 281 -204 258 -204 q 306 -197 296 -204 q 317 -175 317 -190 q 308 -153 317 -160 q 279 -137 299 -147 q 247 -110 247 -126 q 256 -75 247 -101 q 281 -3 264 -49 q 222 38 222 1 l 222 817 l 53 817 q 25 831 33 817 q 17 876 17 846 l 17 913 q 25 958 17 943 q 53 972 33 972 l 578 972 z "},"Ț":{"ha":631,"x_min":17,"x_max":615,"o":"m 293 -3 q 222 38 222 -3 l 222 817 l 53 817 q 25 831 33 817 q 17 876 17 846 l 17 913 q 25 958 17 943 q 53 972 33 972 l 578 972 q 606 958 597 972 q 615 913 615 944 l 615 876 q 606 831 615 844 q 578 817 597 817 l 408 817 l 408 38 q 338 -3 408 -3 l 293 -3 m 269 -331 q 232 -324 249 -331 q 215 -304 215 -318 q 221 -269 215 -297 q 239 -126 239 -207 q 310 -71 239 -71 l 332 -71 q 376 -85 361 -71 q 390 -124 390 -100 q 369 -222 390 -174 q 319 -300 347 -269 q 269 -331 290 -331 z "},"Ṭ":{"ha":631,"x_min":17,"x_max":615,"o":"m 293 -3 q 222 38 222 -3 l 222 817 l 53 817 q 25 831 33 817 q 17 876 17 846 l 17 913 q 25 958 17 943 q 53 972 33 972 l 578 972 q 606 958 597 972 q 615 913 615 944 l 615 876 q 606 831 615 844 q 578 817 597 817 l 408 817 l 408 38 q 338 -3 408 -3 l 293 -3 m 319 -269 q 235 -229 235 -269 l 235 -151 q 318 -111 235 -111 q 403 -151 403 -111 l 403 -229 q 319 -269 403 -269 z "},"U":{"ha":810,"x_min":79,"x_max":731,"o":"m 406 -10 q 165 67 251 -10 q 79 281 79 143 l 79 935 q 150 975 79 975 l 193 975 q 264 935 264 975 l 264 288 q 303 185 264 225 q 406 146 342 146 q 508 185 468 146 q 547 288 547 225 l 547 935 q 618 975 547 975 l 660 975 q 731 935 731 975 l 731 281 q 645 67 731 143 q 406 -10 560 -10 z "},"Ú":{"ha":810,"x_min":79,"x_max":731,"o":"m 406 -10 q 165 67 251 -10 q 79 281 79 143 l 79 935 q 150 975 79 975 l 193 975 q 264 935 264 975 l 264 288 q 303 185 264 225 q 406 146 342 146 q 508 185 468 146 q 547 288 547 225 l 547 935 q 618 975 547 975 l 660 975 q 731 935 731 975 l 731 281 q 645 67 731 143 q 406 -10 560 -10 m 383 1049 q 355 1053 363 1049 q 347 1068 347 1057 q 356 1095 347 1075 q 376 1136 365 1115 q 392 1167 386 1157 l 422 1228 q 521 1264 439 1264 q 573 1260 557 1264 q 589 1246 589 1256 q 581 1223 589 1236 q 535 1163 572 1210 l 472 1081 q 442 1057 461 1065 q 383 1049 422 1049 z "},"Ŭ":{"ha":810,"x_min":79,"x_max":731,"o":"m 406 -10 q 165 67 251 -10 q 79 281 79 143 l 79 935 q 150 975 79 975 l 193 975 q 264 935 264 975 l 264 288 q 303 185 264 225 q 406 146 342 146 q 508 185 468 146 q 547 288 547 225 l 547 935 q 618 975 547 975 l 660 975 q 731 935 731 975 l 731 281 q 645 67 731 143 q 406 -10 560 -10 m 404 1049 q 277 1092 324 1049 q 231 1201 231 1136 q 275 1239 231 1239 q 297 1232 289 1239 q 313 1211 306 1225 q 344 1176 325 1189 q 406 1164 363 1164 q 470 1177 451 1164 q 500 1213 489 1190 q 535 1239 510 1239 q 579 1201 579 1239 q 533 1093 579 1138 q 404 1049 486 1049 z "},"Û":{"ha":810,"x_min":79,"x_max":731,"o":"m 406 -10 q 165 67 251 -10 q 79 281 79 143 l 79 935 q 150 975 79 975 l 193 975 q 264 935 264 975 l 264 288 q 303 185 264 225 q 406 146 342 146 q 508 185 468 146 q 547 288 547 225 l 547 935 q 618 975 547 975 l 660 975 q 731 935 731 975 l 731 281 q 645 67 731 143 q 406 -10 560 -10 m 268 1042 q 240 1057 240 1042 q 250 1082 240 1065 l 328 1215 q 355 1237 338 1231 q 400 1243 372 1243 l 408 1243 q 453 1237 436 1243 q 481 1215 471 1231 l 561 1082 q 569 1058 569 1063 q 543 1042 569 1042 l 508 1042 q 450 1065 463 1042 l 404 1142 l 360 1067 q 301 1042 343 1042 l 268 1042 z "},"Ü":{"ha":810,"x_min":79,"x_max":731,"o":"m 406 -10 q 165 67 251 -10 q 79 281 79 143 l 79 935 q 150 975 79 975 l 193 975 q 264 935 264 975 l 264 288 q 303 185 264 225 q 406 146 342 146 q 508 185 468 146 q 547 288 547 225 l 547 935 q 618 975 547 975 l 660 975 q 731 935 731 975 l 731 281 q 645 67 731 143 q 406 -10 560 -10 m 304 1063 q 232 1103 232 1063 l 232 1181 q 303 1221 232 1221 q 374 1181 374 1221 l 374 1103 q 304 1063 374 1063 m 511 1063 q 440 1103 440 1063 l 440 1181 q 510 1221 440 1221 q 582 1181 582 1221 l 582 1103 q 511 1063 582 1063 z "},"Ụ":{"ha":810,"x_min":79,"x_max":731,"o":"m 406 -10 q 165 67 251 -10 q 79 281 79 143 l 79 935 q 150 975 79 975 l 193 975 q 264 935 264 975 l 264 288 q 303 185 264 225 q 406 146 342 146 q 508 185 468 146 q 547 288 547 225 l 547 935 q 618 975 547 975 l 660 975 q 731 935 731 975 l 731 281 q 645 67 731 143 q 406 -10 560 -10 m 410 -269 q 325 -229 325 -269 l 325 -151 q 408 -111 325 -111 q 493 -151 493 -111 l 493 -229 q 410 -269 493 -269 z "},"Ù":{"ha":810,"x_min":79,"x_max":731,"o":"m 406 -10 q 165 67 251 -10 q 79 281 79 143 l 79 935 q 150 975 79 975 l 193 975 q 264 935 264 975 l 264 288 q 303 185 264 225 q 406 146 342 146 q 508 185 468 146 q 547 288 547 225 l 547 935 q 618 975 547 975 l 660 975 q 731 935 731 975 l 731 281 q 645 67 731 143 q 406 -10 560 -10 m 431 1049 q 373 1058 392 1049 q 343 1081 354 1067 l 281 1161 q 234 1223 243 1210 q 225 1246 225 1236 q 242 1260 225 1256 q 294 1264 258 1264 q 394 1228 374 1264 q 448 1117 429 1157 q 467 1068 467 1078 q 459 1053 467 1057 q 431 1049 451 1049 z "},"Ủ":{"ha":810,"x_min":79,"x_max":731,"o":"m 406 -10 q 165 67 251 -10 q 79 281 79 143 l 79 935 q 150 975 79 975 l 193 975 q 264 935 264 975 l 264 288 q 303 185 264 225 q 406 146 342 146 q 508 185 468 146 q 547 288 547 225 l 547 935 q 618 975 547 975 l 660 975 q 731 935 731 975 l 731 281 q 645 67 731 143 q 406 -10 560 -10 m 431 1035 q 388 1044 411 1035 q 365 1064 365 1054 q 376 1083 365 1072 q 401 1104 388 1093 q 442 1140 428 1124 q 457 1175 457 1156 q 443 1199 457 1190 q 410 1208 429 1208 q 370 1200 388 1208 q 350 1192 353 1192 q 326 1212 342 1192 q 311 1246 311 1232 q 348 1274 311 1260 q 421 1289 385 1289 q 525 1262 485 1289 q 565 1182 565 1235 q 538 1113 565 1146 q 478 1057 511 1079 q 431 1035 444 1035 z "},"Ư":{"ha":792,"x_min":69,"x_max":829,"o":"m 829 1049 q 802 967 829 999 q 721 925 775 935 l 721 281 q 635 67 721 143 q 396 -10 550 -10 q 156 67 242 -10 q 69 281 69 143 l 69 935 q 140 975 69 975 l 183 975 q 254 935 254 975 l 254 288 q 293 185 254 225 q 396 146 332 146 q 498 185 458 146 q 538 288 538 225 l 538 935 q 608 975 538 975 l 668 975 q 713 988 697 975 q 728 1021 728 1001 q 722 1049 728 1036 q 703 1077 715 1061 q 690 1100 690 1093 q 704 1125 690 1117 l 746 1153 q 765 1160 753 1160 q 810 1122 790 1160 q 829 1049 829 1083 z "},"Ứ":{"ha":792,"x_min":69,"x_max":829,"o":"m 829 1049 q 802 967 829 999 q 721 925 775 935 l 721 281 q 635 67 721 143 q 396 -10 550 -10 q 156 67 242 -10 q 69 281 69 143 l 69 935 q 140 975 69 975 l 183 975 q 254 935 254 975 l 254 288 q 293 185 254 225 q 396 146 332 146 q 498 185 458 146 q 538 288 538 225 l 538 935 q 608 975 538 975 l 668 975 q 713 988 697 975 q 728 1021 728 1001 q 722 1049 728 1036 q 703 1077 715 1061 q 690 1100 690 1093 q 704 1125 690 1117 l 746 1153 q 765 1160 753 1160 q 810 1122 790 1160 q 829 1049 829 1083 m 374 1049 q 345 1053 353 1049 q 338 1068 338 1057 q 347 1095 338 1075 q 366 1136 356 1115 q 382 1167 376 1157 l 413 1228 q 511 1264 429 1264 q 563 1260 547 1264 q 579 1246 579 1256 q 571 1223 579 1236 q 525 1163 563 1210 l 463 1081 q 432 1057 451 1065 q 374 1049 413 1049 z "},"Ự":{"ha":792,"x_min":69,"x_max":829,"o":"m 829 1049 q 802 967 829 999 q 721 925 775 935 l 721 281 q 635 67 721 143 q 396 -10 550 -10 q 156 67 242 -10 q 69 281 69 143 l 69 935 q 140 975 69 975 l 183 975 q 254 935 254 975 l 254 288 q 293 185 254 225 q 396 146 332 146 q 498 185 458 146 q 538 288 538 225 l 538 935 q 608 975 538 975 l 668 975 q 713 988 697 975 q 728 1021 728 1001 q 722 1049 728 1036 q 703 1077 715 1061 q 690 1100 690 1093 q 704 1125 690 1117 l 746 1153 q 765 1160 753 1160 q 810 1122 790 1160 q 829 1049 829 1083 m 400 -269 q 315 -229 315 -269 l 315 -151 q 399 -111 315 -111 q 483 -151 483 -111 l 483 -229 q 400 -269 483 -269 z "},"Ừ":{"ha":792,"x_min":69,"x_max":829,"o":"m 829 1049 q 802 967 829 999 q 721 925 775 935 l 721 281 q 635 67 721 143 q 396 -10 550 -10 q 156 67 242 -10 q 69 281 69 143 l 69 935 q 140 975 69 975 l 183 975 q 254 935 254 975 l 254 288 q 293 185 254 225 q 396 146 332 146 q 498 185 458 146 q 538 288 538 225 l 538 935 q 608 975 538 975 l 668 975 q 713 988 697 975 q 728 1021 728 1001 q 722 1049 728 1036 q 703 1077 715 1061 q 690 1100 690 1093 q 704 1125 690 1117 l 746 1153 q 765 1160 753 1160 q 810 1122 790 1160 q 829 1049 829 1083 m 421 1049 q 363 1058 382 1049 q 333 1081 344 1067 l 271 1161 q 224 1223 233 1210 q 215 1246 215 1236 q 232 1260 215 1256 q 285 1264 249 1264 q 385 1228 364 1264 q 438 1117 419 1157 q 457 1068 457 1078 q 449 1053 457 1057 q 421 1049 442 1049 z "},"Ử":{"ha":792,"x_min":69,"x_max":829,"o":"m 829 1049 q 802 967 829 999 q 721 925 775 935 l 721 281 q 635 67 721 143 q 396 -10 550 -10 q 156 67 242 -10 q 69 281 69 143 l 69 935 q 140 975 69 975 l 183 975 q 254 935 254 975 l 254 288 q 293 185 254 225 q 396 146 332 146 q 498 185 458 146 q 538 288 538 225 l 538 935 q 608 975 538 975 l 668 975 q 713 988 697 975 q 728 1021 728 1001 q 722 1049 728 1036 q 703 1077 715 1061 q 690 1100 690 1093 q 704 1125 690 1117 l 746 1153 q 765 1160 753 1160 q 810 1122 790 1160 q 829 1049 829 1083 m 421 1035 q 378 1044 401 1035 q 356 1064 356 1054 q 367 1083 356 1072 q 392 1104 378 1093 q 433 1140 418 1124 q 447 1175 447 1156 q 433 1199 447 1190 q 400 1208 419 1208 q 360 1200 378 1208 q 340 1192 343 1192 q 317 1212 332 1192 q 301 1246 301 1232 q 338 1274 301 1260 q 411 1289 375 1289 q 515 1262 475 1289 q 556 1182 556 1235 q 528 1113 556 1146 q 468 1057 501 1079 q 421 1035 435 1035 z "},"Ữ":{"ha":792,"x_min":69,"x_max":829,"o":"m 829 1049 q 802 967 829 999 q 721 925 775 935 l 721 281 q 635 67 721 143 q 396 -10 550 -10 q 156 67 242 -10 q 69 281 69 143 l 69 935 q 140 975 69 975 l 183 975 q 254 935 254 975 l 254 288 q 293 185 254 225 q 396 146 332 146 q 498 185 458 146 q 538 288 538 225 l 538 935 q 608 975 538 975 l 668 975 q 713 988 697 975 q 728 1021 728 1001 q 722 1049 728 1036 q 703 1077 715 1061 q 690 1100 690 1093 q 704 1125 690 1117 l 746 1153 q 765 1160 753 1160 q 810 1122 790 1160 q 829 1049 829 1083 m 203 1063 q 176 1092 176 1069 q 182 1113 176 1100 q 229 1183 199 1158 q 303 1208 260 1208 q 396 1183 332 1208 q 469 1163 447 1163 q 511 1189 492 1163 q 546 1213 526 1213 q 564 1208 554 1213 l 576 1204 q 603 1175 603 1197 q 597 1154 603 1168 q 549 1084 581 1110 q 476 1058 518 1058 q 419 1069 451 1058 q 379 1083 388 1081 q 308 1104 329 1104 q 268 1076 286 1104 q 252 1059 260 1064 q 235 1054 244 1054 q 217 1057 228 1054 l 203 1063 z "},"Ű":{"ha":810,"x_min":79,"x_max":731,"o":"m 406 -10 q 165 67 251 -10 q 79 281 79 143 l 79 935 q 150 975 79 975 l 193 975 q 264 935 264 975 l 264 288 q 303 185 264 225 q 406 146 342 146 q 508 185 468 146 q 547 288 547 225 l 547 935 q 618 975 547 975 l 660 975 q 731 935 731 975 l 731 281 q 645 67 731 143 q 406 -10 560 -10 m 265 1049 q 237 1053 244 1049 q 229 1068 229 1057 q 241 1100 229 1075 q 256 1132 253 1125 l 301 1228 q 401 1264 319 1264 q 454 1260 438 1264 q 471 1246 471 1256 q 460 1221 471 1236 q 425 1174 450 1206 q 398 1139 415 1161 q 354 1081 381 1117 q 323 1057 342 1065 q 265 1049 304 1049 m 476 1049 q 448 1053 456 1049 q 440 1068 440 1057 q 464 1124 440 1078 q 514 1228 472 1140 q 613 1264 532 1264 q 665 1260 649 1264 q 682 1246 682 1256 q 672 1222 682 1236 q 613 1143 663 1207 q 565 1081 601 1126 q 535 1057 554 1065 q 476 1049 517 1049 z "},"Ū":{"ha":810,"x_min":79,"x_max":731,"o":"m 406 -10 q 165 67 251 -10 q 79 281 79 143 l 79 935 q 150 975 79 975 l 193 975 q 264 935 264 975 l 264 288 q 303 185 264 225 q 406 146 342 146 q 508 185 468 146 q 547 288 547 225 l 547 935 q 618 975 547 975 l 660 975 q 731 935 731 975 l 731 281 q 645 67 731 143 q 406 -10 560 -10 m 274 1082 q 246 1094 254 1082 q 238 1133 238 1107 l 238 1151 q 246 1190 238 1178 q 274 1203 254 1203 l 542 1203 q 569 1191 561 1203 q 578 1151 578 1179 l 578 1133 q 569 1094 578 1106 q 542 1082 561 1082 l 274 1082 z "},"Ų":{"ha":810,"x_min":79,"x_max":731,"o":"m 731 281 q 697 132 731 194 q 597 33 663 69 q 571 -71 571 -21 q 639 -132 571 -132 q 662 -128 650 -132 q 681 -125 674 -125 q 708 -134 699 -125 q 717 -164 717 -143 q 696 -206 717 -192 q 613 -225 657 -225 q 508 -184 535 -225 q 481 -97 481 -143 q 500 -1 481 -49 q 406 -10 457 -10 q 165 67 251 -10 q 79 281 79 143 l 79 935 q 150 975 79 975 l 193 975 q 264 935 264 975 l 264 288 q 303 185 264 225 q 406 146 342 146 q 508 185 468 146 q 547 288 547 225 l 547 935 q 618 975 547 975 l 660 975 q 731 935 731 975 l 731 281 z "},"Ů":{"ha":810,"x_min":79,"x_max":731,"o":"m 406 -10 q 165 67 251 -10 q 79 281 79 143 l 79 935 q 150 975 79 975 l 193 975 q 264 935 264 975 l 264 288 q 303 185 264 225 q 406 146 342 146 q 508 185 468 146 q 547 288 547 225 l 547 935 q 618 975 547 975 l 660 975 q 731 935 731 975 l 731 281 q 645 67 731 143 q 406 -10 560 -10 m 403 1017 q 309 1053 344 1017 q 274 1147 274 1089 q 309 1242 274 1206 q 403 1278 344 1278 q 499 1242 464 1278 q 533 1147 533 1206 q 499 1053 533 1089 q 403 1017 464 1017 m 404 1090 q 445 1105 431 1090 q 460 1146 460 1119 q 445 1189 460 1174 q 404 1204 431 1204 q 363 1189 378 1204 q 347 1146 349 1174 q 404 1090 350 1090 z "},"Ũ":{"ha":810,"x_min":79,"x_max":731,"o":"m 406 -10 q 165 67 251 -10 q 79 281 79 143 l 79 935 q 150 975 79 975 l 193 975 q 264 935 264 975 l 264 288 q 303 185 264 225 q 406 146 342 146 q 508 185 468 146 q 547 288 547 225 l 547 935 q 618 975 547 975 l 660 975 q 731 935 731 975 l 731 281 q 645 67 731 143 q 406 -10 560 -10 m 213 1063 q 186 1092 186 1069 q 192 1113 186 1100 q 239 1183 208 1158 q 313 1208 269 1208 q 406 1183 342 1208 q 479 1163 457 1163 q 521 1189 501 1163 q 556 1213 536 1213 q 574 1208 564 1213 l 586 1204 q 613 1175 613 1197 q 607 1154 613 1168 q 559 1084 590 1110 q 486 1058 528 1058 q 429 1069 461 1058 q 389 1083 397 1081 q 318 1104 339 1104 q 278 1076 296 1104 q 262 1059 269 1064 q 244 1054 254 1054 q 226 1057 238 1054 l 213 1063 z "},"V":{"ha":706,"x_min":13,"x_max":690,"o":"m 306 -3 q 239 24 246 -3 l 18 924 q 13 947 13 943 q 31 967 13 960 q 85 975 49 975 l 126 975 q 193 942 186 975 l 335 275 l 347 188 l 353 188 l 365 275 l 511 942 q 579 975 518 975 l 618 975 q 690 947 690 975 q 686 924 690 939 l 464 24 q 397 -3 457 -3 l 306 -3 z "},"W":{"ha":1044,"x_min":14,"x_max":1032,"o":"m 261 -3 q 201 24 207 -3 l 15 922 q 15 934 14 928 q 15 942 15 940 q 88 975 15 975 l 119 975 q 197 939 192 975 l 283 372 l 300 250 l 308 182 q 339 374 318 249 l 439 947 q 456 969 442 963 q 499 975 469 975 l 553 975 q 597 969 582 975 q 614 947 611 963 l 713 372 q 731 258 719 342 q 742 179 733 228 l 768 372 l 856 939 q 932 975 860 975 l 958 975 q 1032 942 1032 975 l 1029 922 l 842 24 q 782 -3 836 -3 l 703 -3 q 644 24 649 -3 l 540 547 l 522 704 l 504 547 l 399 24 q 340 -3 393 -3 l 261 -3 z "},"Ẃ":{"ha":1044,"x_min":15,"x_max":1032,"o":"m 261 -3 q 201 24 207 -3 l 15 922 q 15 934 14 928 q 15 942 15 940 q 88 975 15 975 l 119 975 q 197 939 192 975 l 283 372 l 300 250 l 308 182 q 339 374 318 249 l 439 947 q 456 969 442 963 q 499 975 469 975 l 553 975 q 597 969 582 975 q 614 947 611 963 l 713 372 q 731 258 719 342 q 742 179 733 228 l 768 372 l 856 939 q 932 975 860 975 l 958 975 q 1032 942 1032 975 l 1029 922 l 842 24 q 782 -3 836 -3 l 703 -3 q 644 24 649 -3 l 540 547 l 522 704 l 504 547 l 399 24 q 340 -3 393 -3 l 261 -3 m 500 1049 q 472 1053 479 1049 q 464 1068 464 1057 q 473 1095 464 1075 q 492 1136 482 1115 q 508 1167 503 1157 l 539 1228 q 638 1264 556 1264 q 690 1260 674 1264 q 706 1246 706 1256 q 697 1223 706 1236 q 651 1163 689 1210 l 589 1081 q 558 1057 578 1065 q 500 1049 539 1049 z "},"Ŵ":{"ha":1044,"x_min":15,"x_max":1032,"o":"m 261 -3 q 201 24 207 -3 l 15 922 q 15 934 14 928 q 15 942 15 940 q 88 975 15 975 l 119 975 q 197 939 192 975 l 283 372 l 300 250 l 308 182 q 339 374 318 249 l 439 947 q 456 969 442 963 q 499 975 469 975 l 553 975 q 597 969 582 975 q 614 947 611 963 l 713 372 q 731 258 719 342 q 742 179 733 228 l 768 372 l 856 939 q 932 975 860 975 l 958 975 q 1032 942 1032 975 l 1029 922 l 842 24 q 782 -3 836 -3 l 703 -3 q 644 24 649 -3 l 540 547 l 522 704 l 504 547 l 399 24 q 340 -3 393 -3 l 261 -3 m 385 1042 q 357 1057 357 1042 q 367 1082 357 1065 l 444 1215 q 472 1237 454 1231 q 517 1243 489 1243 l 525 1243 q 570 1237 553 1243 q 597 1215 588 1231 l 678 1082 q 686 1058 686 1063 q 660 1042 686 1042 l 625 1042 q 567 1065 579 1042 l 521 1142 l 476 1067 q 418 1042 460 1042 l 385 1042 z "},"Ẅ":{"ha":1044,"x_min":15,"x_max":1032,"o":"m 261 -3 q 201 24 207 -3 l 15 922 q 15 934 14 928 q 15 942 15 940 q 88 975 15 975 l 119 975 q 197 939 192 975 l 283 372 l 300 250 l 308 182 q 339 374 318 249 l 439 947 q 456 969 442 963 q 499 975 469 975 l 553 975 q 597 969 582 975 q 614 947 611 963 l 713 372 q 731 258 719 342 q 742 179 733 228 l 768 372 l 856 939 q 932 975 860 975 l 958 975 q 1032 942 1032 975 l 1029 922 l 842 24 q 782 -3 836 -3 l 703 -3 q 644 24 649 -3 l 540 547 l 522 704 l 504 547 l 399 24 q 340 -3 393 -3 l 261 -3 m 421 1063 q 349 1103 349 1063 l 349 1181 q 419 1221 349 1221 q 490 1181 490 1221 l 490 1103 q 421 1063 490 1063 m 628 1063 q 557 1103 557 1063 l 557 1181 q 626 1221 557 1221 q 699 1181 699 1221 l 699 1103 q 628 1063 699 1063 z "},"Ẁ":{"ha":1044,"x_min":15,"x_max":1032,"o":"m 261 -3 q 201 24 207 -3 l 15 922 q 15 934 14 928 q 15 942 15 940 q 88 975 15 975 l 119 975 q 197 939 192 975 l 283 372 l 300 250 l 308 182 q 339 374 318 249 l 439 947 q 456 969 442 963 q 499 975 469 975 l 553 975 q 597 969 582 975 q 614 947 611 963 l 713 372 q 731 258 719 342 q 742 179 733 228 l 768 372 l 856 939 q 932 975 860 975 l 958 975 q 1032 942 1032 975 l 1029 922 l 842 24 q 782 -3 836 -3 l 703 -3 q 644 24 649 -3 l 540 547 l 522 704 l 504 547 l 399 24 q 340 -3 393 -3 l 261 -3 m 547 1049 q 490 1058 508 1049 q 460 1081 471 1067 l 397 1161 q 351 1223 360 1210 q 342 1246 342 1236 q 358 1260 342 1256 q 411 1264 375 1264 q 511 1228 490 1264 q 565 1117 546 1157 q 583 1068 583 1078 q 576 1053 583 1057 q 547 1049 568 1049 z "},"X":{"ha":703,"x_min":18,"x_max":685,"o":"m 92 -3 q 18 22 18 -3 q 22 39 18 29 q 28 54 26 49 l 240 507 l 54 918 q 48 931 53 921 q 43 950 43 942 q 118 975 43 975 l 169 975 q 215 969 197 975 q 238 950 232 964 l 356 615 l 483 950 q 506 970 489 965 q 553 975 522 975 l 601 975 q 675 950 675 975 q 665 918 675 943 l 468 507 l 674 54 q 681 39 676 49 q 685 22 685 29 q 610 -3 685 -3 l 561 -3 q 493 22 501 -3 l 356 390 l 208 22 q 185 1 201 6 q 139 -3 169 -3 l 92 -3 z "},"Y":{"ha":672,"x_min":11,"x_max":661,"o":"m 315 -3 q 243 38 243 -3 l 243 426 l 22 917 q 11 949 11 936 q 85 975 11 975 l 140 975 q 187 969 169 975 q 208 950 204 964 l 340 592 l 471 951 q 493 970 475 965 q 540 975 511 975 l 585 975 q 661 949 661 975 q 651 917 661 942 l 429 422 l 429 38 q 358 -3 429 -3 l 315 -3 z "},"Ý":{"ha":672,"x_min":11,"x_max":661,"o":"m 315 -3 q 243 38 243 -3 l 243 426 l 22 917 q 11 949 11 936 q 85 975 11 975 l 140 975 q 187 969 169 975 q 208 950 204 964 l 340 592 l 471 951 q 493 970 475 965 q 540 975 511 975 l 585 975 q 661 949 661 975 q 651 917 661 942 l 429 422 l 429 38 q 358 -3 429 -3 l 315 -3 m 314 1049 q 285 1053 293 1049 q 278 1068 278 1057 q 287 1095 278 1075 q 306 1136 296 1115 q 322 1167 317 1157 l 353 1228 q 451 1264 369 1264 q 503 1260 488 1264 q 519 1246 519 1256 q 511 1223 519 1236 q 465 1163 503 1210 l 403 1081 q 372 1057 392 1065 q 314 1049 353 1049 z "},"Ŷ":{"ha":672,"x_min":11,"x_max":661,"o":"m 315 -3 q 243 38 243 -3 l 243 426 l 22 917 q 11 949 11 936 q 85 975 11 975 l 140 975 q 187 969 169 975 q 208 950 204 964 l 340 592 l 471 951 q 493 970 475 965 q 540 975 511 975 l 585 975 q 661 949 661 975 q 651 917 661 942 l 429 422 l 429 38 q 358 -3 429 -3 l 315 -3 m 199 1042 q 171 1057 171 1042 q 181 1082 171 1065 l 258 1215 q 285 1237 268 1231 q 331 1243 303 1243 l 339 1243 q 384 1237 367 1243 q 411 1215 401 1231 l 492 1082 q 500 1058 500 1063 q 474 1042 500 1042 l 439 1042 q 381 1065 393 1042 l 335 1142 l 290 1067 q 232 1042 274 1042 l 199 1042 z "},"Ÿ":{"ha":672,"x_min":11,"x_max":661,"o":"m 315 -3 q 243 38 243 -3 l 243 426 l 22 917 q 11 949 11 936 q 85 975 11 975 l 140 975 q 187 969 169 975 q 208 950 204 964 l 340 592 l 471 951 q 493 970 475 965 q 540 975 511 975 l 585 975 q 661 949 661 975 q 651 917 661 942 l 429 422 l 429 38 q 358 -3 429 -3 l 315 -3 m 235 1063 q 163 1103 163 1063 l 163 1181 q 233 1221 163 1221 q 304 1181 304 1221 l 304 1103 q 235 1063 304 1063 m 442 1063 q 371 1103 371 1063 l 371 1181 q 440 1221 371 1221 q 513 1181 513 1221 l 513 1103 q 442 1063 513 1063 z "},"Ỵ":{"ha":672,"x_min":11,"x_max":661,"o":"m 315 -3 q 243 38 243 -3 l 243 426 l 22 917 q 11 949 11 936 q 85 975 11 975 l 140 975 q 187 969 169 975 q 208 950 204 964 l 340 592 l 471 951 q 493 970 475 965 q 540 975 511 975 l 585 975 q 661 949 661 975 q 651 917 661 942 l 429 422 l 429 38 q 358 -3 429 -3 l 315 -3 m 342 -269 q 257 -229 257 -269 l 257 -151 q 340 -111 257 -111 q 425 -151 425 -111 l 425 -229 q 342 -269 425 -269 z "},"Ỳ":{"ha":672,"x_min":11,"x_max":661,"o":"m 315 -3 q 243 38 243 -3 l 243 426 l 22 917 q 11 949 11 936 q 85 975 11 975 l 140 975 q 187 969 169 975 q 208 950 204 964 l 340 592 l 471 951 q 493 970 475 965 q 540 975 511 975 l 585 975 q 661 949 661 975 q 651 917 661 942 l 429 422 l 429 38 q 358 -3 429 -3 l 315 -3 m 361 1049 q 303 1058 322 1049 q 274 1081 285 1067 l 211 1161 q 165 1223 174 1210 q 156 1246 156 1236 q 172 1260 156 1256 q 225 1264 189 1264 q 325 1228 304 1264 q 378 1117 360 1157 q 397 1068 397 1078 q 390 1053 397 1057 q 361 1049 382 1049 z "},"Ỷ":{"ha":672,"x_min":11,"x_max":661,"o":"m 315 -3 q 243 38 243 -3 l 243 426 l 22 917 q 11 949 11 936 q 85 975 11 975 l 140 975 q 187 969 169 975 q 208 950 204 964 l 340 592 l 471 951 q 493 970 475 965 q 540 975 511 975 l 585 975 q 661 949 661 975 q 651 917 661 942 l 429 422 l 429 38 q 358 -3 429 -3 l 315 -3 m 361 1035 q 319 1044 342 1035 q 296 1064 296 1054 q 307 1083 296 1072 q 332 1104 318 1093 q 373 1140 358 1124 q 388 1175 388 1156 q 374 1199 388 1190 q 340 1208 360 1208 q 301 1200 318 1208 q 281 1192 283 1192 q 257 1212 272 1192 q 242 1246 242 1232 q 278 1274 242 1260 q 351 1289 315 1289 q 456 1262 415 1289 q 496 1182 496 1235 q 469 1113 496 1146 q 408 1057 442 1079 q 361 1035 375 1035 z "},"Ỹ":{"ha":672,"x_min":11,"x_max":661,"o":"m 315 -3 q 243 38 243 -3 l 243 426 l 22 917 q 11 949 11 936 q 85 975 11 975 l 140 975 q 187 969 169 975 q 208 950 204 964 l 340 592 l 471 951 q 493 970 475 965 q 540 975 511 975 l 585 975 q 661 949 661 975 q 651 917 661 942 l 429 422 l 429 38 q 358 -3 429 -3 l 315 -3 m 143 1063 q 117 1092 117 1069 q 122 1113 117 1100 q 169 1183 139 1158 q 243 1208 200 1208 q 336 1183 272 1208 q 410 1163 388 1163 q 451 1189 432 1163 q 486 1213 467 1213 q 504 1208 494 1213 l 517 1204 q 543 1175 543 1197 q 538 1154 543 1168 q 490 1084 521 1110 q 417 1058 458 1058 q 360 1069 392 1058 q 319 1083 328 1081 q 249 1104 269 1104 q 208 1076 226 1104 q 192 1059 200 1064 q 175 1054 185 1054 q 157 1057 168 1054 l 143 1063 z "},"Z":{"ha":704,"x_min":38,"x_max":657,"o":"m 85 0 q 53 39 69 0 q 38 107 38 78 q 39 121 38 118 l 424 817 l 104 817 q 78 831 86 817 q 69 879 69 846 l 69 911 q 78 958 69 943 q 104 972 86 972 l 611 972 q 640 932 625 972 q 656 864 656 892 q 656 856 656 860 q 656 850 657 853 l 272 156 l 622 156 q 649 141 640 156 q 657 94 657 126 l 657 61 q 649 15 657 29 q 622 0 640 0 l 85 0 z "},"Ź":{"ha":704,"x_min":38,"x_max":657,"o":"m 85 0 q 53 39 69 0 q 38 107 38 78 q 39 121 38 118 l 424 817 l 104 817 q 78 831 86 817 q 69 879 69 846 l 69 911 q 78 958 69 943 q 104 972 86 972 l 611 972 q 640 932 625 972 q 656 864 656 892 q 656 856 656 860 q 656 850 657 853 l 272 156 l 622 156 q 649 141 640 156 q 657 94 657 126 l 657 61 q 649 15 657 29 q 622 0 640 0 l 85 0 m 333 1049 q 305 1053 313 1049 q 297 1068 297 1057 q 306 1095 297 1075 q 326 1136 315 1115 q 342 1167 336 1157 l 372 1228 q 471 1264 389 1264 q 523 1260 507 1264 q 539 1246 539 1256 q 531 1223 539 1236 q 485 1163 522 1210 l 422 1081 q 392 1057 411 1065 q 333 1049 372 1049 z "},"Ž":{"ha":704,"x_min":38,"x_max":657,"o":"m 85 0 q 53 39 69 0 q 38 107 38 78 q 39 121 38 118 l 424 817 l 104 817 q 78 831 86 817 q 69 879 69 846 l 69 911 q 78 958 69 943 q 104 972 86 972 l 611 972 q 640 932 625 972 q 656 864 656 892 q 656 856 656 860 q 656 850 657 853 l 272 156 l 622 156 q 649 141 640 156 q 657 94 657 126 l 657 61 q 649 15 657 29 q 622 0 640 0 l 85 0 m 350 1046 q 306 1052 322 1046 q 279 1074 289 1058 l 201 1207 q 192 1231 192 1222 q 219 1246 192 1246 l 253 1246 q 311 1222 293 1246 l 356 1146 l 401 1222 q 460 1246 414 1246 l 494 1246 q 521 1231 521 1246 q 513 1207 521 1224 l 432 1074 q 406 1052 422 1058 q 363 1046 389 1046 l 350 1046 z "},"Ż":{"ha":704,"x_min":38,"x_max":657,"o":"m 85 0 q 53 39 69 0 q 38 107 38 78 q 39 121 38 118 l 424 817 l 104 817 q 78 831 86 817 q 69 879 69 846 l 69 911 q 78 958 69 943 q 104 972 86 972 l 611 972 q 640 932 625 972 q 656 864 656 892 q 656 856 656 860 q 656 850 657 853 l 272 156 l 622 156 q 649 141 640 156 q 657 94 657 126 l 657 61 q 649 15 657 29 q 622 0 640 0 l 85 0 m 357 1063 q 272 1103 272 1063 l 272 1181 q 356 1221 272 1221 q 440 1181 440 1221 l 440 1103 q 357 1063 440 1063 z "},"Ẓ":{"ha":704,"x_min":38,"x_max":657,"o":"m 85 0 q 53 39 69 0 q 38 107 38 78 q 39 121 38 118 l 424 817 l 104 817 q 78 831 86 817 q 69 879 69 846 l 69 911 q 78 958 69 943 q 104 972 86 972 l 611 972 q 640 932 625 972 q 656 864 656 892 q 656 856 656 860 q 656 850 657 853 l 272 156 l 622 156 q 649 141 640 156 q 657 94 657 126 l 657 61 q 649 15 657 29 q 622 0 640 0 l 85 0 m 358 -269 q 274 -229 274 -269 l 274 -151 q 357 -111 274 -111 q 442 -151 442 -111 l 442 -229 q 358 -269 442 -269 z "},"a":{"ha":668,"x_min":60,"x_max":592,"o":"m 254 -10 q 110 48 161 -10 q 60 207 60 106 q 142 394 60 325 q 400 464 225 464 l 400 501 q 303 596 400 596 q 238 587 265 596 q 178 563 210 578 q 151 551 160 551 q 110 590 133 551 q 88 649 88 628 q 120 691 88 671 q 206 724 153 711 q 314 736 258 736 q 511 675 447 736 q 575 507 575 614 l 575 231 q 583 92 575 136 q 592 39 592 49 q 546 9 592 19 q 464 -1 500 -1 q 433 17 443 -1 q 414 74 424 35 q 349 15 390 39 q 254 -10 308 -10 m 303 125 q 358 140 332 125 q 400 182 383 156 l 400 350 q 222 218 222 350 q 242 149 222 174 q 303 125 263 125 z "},"á":{"ha":668,"x_min":60,"x_max":592,"o":"m 254 -10 q 110 48 161 -10 q 60 207 60 106 q 142 394 60 325 q 400 464 225 464 l 400 501 q 303 596 400 596 q 238 587 265 596 q 178 563 210 578 q 151 551 160 551 q 110 590 133 551 q 88 649 88 628 q 120 691 88 671 q 206 724 153 711 q 314 736 258 736 q 511 675 447 736 q 575 507 575 614 l 575 231 q 583 92 575 136 q 592 39 592 49 q 546 9 592 19 q 464 -1 500 -1 q 433 17 443 -1 q 414 74 424 35 q 349 15 390 39 q 254 -10 308 -10 m 303 125 q 358 140 332 125 q 400 182 383 156 l 400 350 q 222 218 222 350 q 242 149 222 174 q 303 125 263 125 m 308 803 q 280 807 288 803 q 272 822 272 811 q 281 849 272 829 q 301 890 290 869 q 317 921 311 911 l 347 982 q 446 1018 364 1018 q 498 1014 482 1018 q 514 1000 514 1010 q 506 977 514 990 q 460 917 497 964 l 397 835 q 367 811 386 819 q 308 803 347 803 z "},"ă":{"ha":668,"x_min":60,"x_max":592,"o":"m 254 -10 q 110 48 161 -10 q 60 207 60 106 q 142 394 60 325 q 400 464 225 464 l 400 501 q 303 596 400 596 q 238 587 265 596 q 178 563 210 578 q 151 551 160 551 q 110 590 133 551 q 88 649 88 628 q 120 691 88 671 q 206 724 153 711 q 314 736 258 736 q 511 675 447 736 q 575 507 575 614 l 575 231 q 583 92 575 136 q 592 39 592 49 q 546 9 592 19 q 464 -1 500 -1 q 433 17 443 -1 q 414 74 424 35 q 349 15 390 39 q 254 -10 308 -10 m 303 125 q 358 140 332 125 q 400 182 383 156 l 400 350 q 222 218 222 350 q 242 149 222 174 q 303 125 263 125 m 329 803 q 202 847 249 803 q 156 956 156 890 q 200 993 156 993 q 222 986 214 993 q 238 965 231 979 q 269 931 250 943 q 331 918 288 918 q 395 931 376 918 q 425 967 414 944 q 460 993 435 993 q 504 956 504 993 q 458 847 504 892 q 329 803 411 803 z "},"ắ":{"ha":668,"x_min":60,"x_max":592,"o":"m 254 -10 q 110 48 161 -10 q 60 207 60 106 q 142 394 60 325 q 400 464 225 464 l 400 501 q 303 596 400 596 q 238 587 265 596 q 178 563 210 578 q 151 551 160 551 q 110 590 133 551 q 88 649 88 628 q 120 691 88 671 q 206 724 153 711 q 314 736 258 736 q 511 675 447 736 q 575 507 575 614 l 575 231 q 583 92 575 136 q 592 39 592 49 q 546 9 592 19 q 464 -1 500 -1 q 433 17 443 -1 q 414 74 424 35 q 349 15 390 39 q 254 -10 308 -10 m 303 125 q 358 140 332 125 q 400 182 383 156 l 400 350 q 222 218 222 350 q 242 149 222 174 q 303 125 263 125 m 329 803 q 202 847 249 803 q 156 956 156 890 q 200 993 156 993 q 222 986 214 993 q 238 965 231 979 q 269 931 250 943 q 331 918 288 918 q 395 931 376 918 q 425 967 414 944 q 460 993 435 993 q 504 956 504 993 q 458 847 504 892 q 329 803 411 803 m 308 1049 q 280 1053 288 1049 q 272 1068 272 1057 q 281 1095 272 1075 q 301 1136 290 1115 q 317 1167 311 1157 l 347 1228 q 446 1264 364 1264 q 498 1260 482 1264 q 514 1246 514 1256 q 506 1223 514 1236 q 460 1163 497 1210 l 397 1081 q 367 1057 386 1065 q 308 1049 347 1049 z "},"ặ":{"ha":668,"x_min":60,"x_max":592,"o":"m 254 -10 q 110 48 161 -10 q 60 207 60 106 q 142 394 60 325 q 400 464 225 464 l 400 501 q 303 596 400 596 q 238 587 265 596 q 178 563 210 578 q 151 551 160 551 q 110 590 133 551 q 88 649 88 628 q 120 691 88 671 q 206 724 153 711 q 314 736 258 736 q 511 675 447 736 q 575 507 575 614 l 575 231 q 583 92 575 136 q 592 39 592 49 q 546 9 592 19 q 464 -1 500 -1 q 433 17 443 -1 q 414 74 424 35 q 349 15 390 39 q 254 -10 308 -10 m 303 125 q 358 140 332 125 q 400 182 383 156 l 400 350 q 222 218 222 350 q 242 149 222 174 q 303 125 263 125 m 331 -269 q 246 -229 246 -269 l 246 -151 q 329 -111 246 -111 q 414 -151 414 -111 l 414 -229 q 331 -269 414 -269 m 329 803 q 202 847 249 803 q 156 956 156 890 q 200 993 156 993 q 222 986 214 993 q 238 965 231 979 q 269 931 250 943 q 331 918 288 918 q 395 931 376 918 q 425 967 414 944 q 460 993 435 993 q 504 956 504 993 q 458 847 504 892 q 329 803 411 803 z "},"ằ":{"ha":668,"x_min":60,"x_max":592,"o":"m 254 -10 q 110 48 161 -10 q 60 207 60 106 q 142 394 60 325 q 400 464 225 464 l 400 501 q 303 596 400 596 q 238 587 265 596 q 178 563 210 578 q 151 551 160 551 q 110 590 133 551 q 88 649 88 628 q 120 691 88 671 q 206 724 153 711 q 314 736 258 736 q 511 675 447 736 q 575 507 575 614 l 575 231 q 583 92 575 136 q 592 39 592 49 q 546 9 592 19 q 464 -1 500 -1 q 433 17 443 -1 q 414 74 424 35 q 349 15 390 39 q 254 -10 308 -10 m 303 125 q 358 140 332 125 q 400 182 383 156 l 400 350 q 222 218 222 350 q 242 149 222 174 q 303 125 263 125 m 329 803 q 202 847 249 803 q 156 956 156 890 q 200 993 156 993 q 222 986 214 993 q 238 965 231 979 q 269 931 250 943 q 331 918 288 918 q 395 931 376 918 q 425 967 414 944 q 460 993 435 993 q 504 956 504 993 q 458 847 504 892 q 329 803 411 803 m 356 1049 q 298 1058 317 1049 q 268 1081 279 1067 l 206 1161 q 159 1223 168 1210 q 150 1246 150 1236 q 167 1260 150 1256 q 219 1264 183 1264 q 319 1228 299 1264 q 373 1117 354 1157 q 392 1068 392 1078 q 384 1053 392 1057 q 356 1049 376 1049 z "},"ẳ":{"ha":668,"x_min":60,"x_max":592,"o":"m 254 -10 q 110 48 161 -10 q 60 207 60 106 q 142 394 60 325 q 400 464 225 464 l 400 501 q 303 596 400 596 q 238 587 265 596 q 178 563 210 578 q 151 551 160 551 q 110 590 133 551 q 88 649 88 628 q 120 691 88 671 q 206 724 153 711 q 314 736 258 736 q 511 675 447 736 q 575 507 575 614 l 575 231 q 583 92 575 136 q 592 39 592 49 q 546 9 592 19 q 464 -1 500 -1 q 433 17 443 -1 q 414 74 424 35 q 349 15 390 39 q 254 -10 308 -10 m 303 125 q 358 140 332 125 q 400 182 383 156 l 400 350 q 222 218 222 350 q 242 149 222 174 q 303 125 263 125 m 329 803 q 202 847 249 803 q 156 956 156 890 q 200 993 156 993 q 222 986 214 993 q 238 965 231 979 q 269 931 250 943 q 331 918 288 918 q 395 931 376 918 q 425 967 414 944 q 460 993 435 993 q 504 956 504 993 q 458 847 504 892 q 329 803 411 803 m 356 1035 q 313 1044 336 1035 q 290 1064 290 1054 q 301 1083 290 1072 q 326 1104 313 1093 q 367 1140 353 1124 q 382 1175 382 1156 q 368 1199 382 1190 q 335 1208 354 1208 q 295 1200 313 1208 q 275 1192 278 1192 q 251 1212 267 1192 q 236 1246 236 1232 q 273 1274 236 1260 q 346 1289 310 1289 q 450 1262 410 1289 q 490 1182 490 1235 q 463 1113 490 1146 q 403 1057 436 1079 q 356 1035 369 1035 z "},"ẵ":{"ha":668,"x_min":60,"x_max":592,"o":"m 254 -10 q 110 48 161 -10 q 60 207 60 106 q 142 394 60 325 q 400 464 225 464 l 400 501 q 303 596 400 596 q 238 587 265 596 q 178 563 210 578 q 151 551 160 551 q 110 590 133 551 q 88 649 88 628 q 120 691 88 671 q 206 724 153 711 q 314 736 258 736 q 511 675 447 736 q 575 507 575 614 l 575 231 q 583 92 575 136 q 592 39 592 49 q 546 9 592 19 q 464 -1 500 -1 q 433 17 443 -1 q 414 74 424 35 q 349 15 390 39 q 254 -10 308 -10 m 303 125 q 358 140 332 125 q 400 182 383 156 l 400 350 q 222 218 222 350 q 242 149 222 174 q 303 125 263 125 m 329 803 q 202 847 249 803 q 156 956 156 890 q 200 993 156 993 q 222 986 214 993 q 238 965 231 979 q 269 931 250 943 q 331 918 288 918 q 395 931 376 918 q 425 967 414 944 q 460 993 435 993 q 504 956 504 993 q 458 847 504 892 q 329 803 411 803 m 138 1063 q 111 1092 111 1069 q 117 1113 111 1100 q 164 1183 133 1158 q 238 1208 194 1208 q 331 1183 267 1208 q 404 1163 382 1163 q 446 1189 426 1163 q 481 1213 461 1213 q 499 1208 489 1213 l 511 1204 q 538 1175 538 1197 q 532 1154 538 1168 q 484 1084 515 1110 q 411 1058 453 1058 q 354 1069 386 1058 q 314 1083 322 1081 q 243 1104 264 1104 q 203 1076 221 1104 q 187 1059 194 1064 q 169 1054 179 1054 q 151 1057 163 1054 l 138 1063 z "},"â":{"ha":668,"x_min":60,"x_max":592,"o":"m 254 -10 q 110 48 161 -10 q 60 207 60 106 q 142 394 60 325 q 400 464 225 464 l 400 501 q 303 596 400 596 q 238 587 265 596 q 178 563 210 578 q 151 551 160 551 q 110 590 133 551 q 88 649 88 628 q 120 691 88 671 q 206 724 153 711 q 314 736 258 736 q 511 675 447 736 q 575 507 575 614 l 575 231 q 583 92 575 136 q 592 39 592 49 q 546 9 592 19 q 464 -1 500 -1 q 433 17 443 -1 q 414 74 424 35 q 349 15 390 39 q 254 -10 308 -10 m 303 125 q 358 140 332 125 q 400 182 383 156 l 400 350 q 222 218 222 350 q 242 149 222 174 q 303 125 263 125 m 193 796 q 165 811 165 796 q 175 836 165 819 l 253 969 q 280 991 263 985 q 325 997 297 997 l 333 997 q 378 991 361 997 q 406 969 396 985 l 486 836 q 494 813 494 817 q 468 796 494 796 l 433 796 q 375 819 388 796 l 329 896 l 285 821 q 226 796 268 796 l 193 796 z "},"ấ":{"ha":618,"x_min":60,"x_max":653,"o":"m 447 990 q 419 994 426 990 q 411 1010 411 999 q 420 1037 411 1017 q 440 1078 429 1057 q 456 1108 450 1099 l 486 1169 q 585 1206 503 1206 q 637 1201 621 1206 q 653 1188 653 1197 q 644 1165 653 1178 q 599 1104 636 1151 l 536 1022 q 506 999 525 1007 q 447 990 486 990 m 176 796 q 147 811 147 796 q 154 835 147 821 l 228 969 q 254 992 238 986 q 300 997 271 997 l 310 997 q 354 992 338 997 q 379 969 371 986 l 453 835 q 463 813 463 821 q 435 796 463 796 l 400 796 q 342 819 353 796 l 304 896 l 267 819 q 244 801 260 806 q 208 796 229 796 l 176 796 m 254 -10 q 110 48 161 -10 q 60 207 60 106 q 142 394 60 325 q 400 464 225 464 l 400 501 q 303 596 400 596 q 238 587 265 596 q 178 563 210 578 q 151 551 160 551 q 110 590 133 551 q 88 649 88 628 q 120 691 88 671 q 206 724 153 711 q 314 736 258 736 q 511 675 447 736 q 575 507 575 614 l 575 231 q 583 92 575 136 q 592 39 592 49 q 546 9 592 19 q 464 -1 500 -1 q 433 17 443 -1 q 414 74 424 35 q 349 15 390 39 q 254 -10 308 -10 m 303 125 q 358 140 332 125 q 400 182 383 156 l 400 350 q 222 218 222 350 q 242 149 222 174 q 303 125 263 125 z "},"ậ":{"ha":668,"x_min":60,"x_max":592,"o":"m 254 -10 q 110 48 161 -10 q 60 207 60 106 q 142 394 60 325 q 400 464 225 464 l 400 501 q 303 596 400 596 q 238 587 265 596 q 178 563 210 578 q 151 551 160 551 q 110 590 133 551 q 88 649 88 628 q 120 691 88 671 q 206 724 153 711 q 314 736 258 736 q 511 675 447 736 q 575 507 575 614 l 575 231 q 583 92 575 136 q 592 39 592 49 q 546 9 592 19 q 464 -1 500 -1 q 433 17 443 -1 q 414 74 424 35 q 349 15 390 39 q 254 -10 308 -10 m 303 125 q 358 140 332 125 q 400 182 383 156 l 400 350 q 222 218 222 350 q 242 149 222 174 q 303 125 263 125 m 331 -269 q 246 -229 246 -269 l 246 -151 q 329 -111 246 -111 q 414 -151 414 -111 l 414 -229 q 331 -269 414 -269 m 193 796 q 165 811 165 796 q 175 836 165 819 l 253 969 q 280 991 263 985 q 325 997 297 997 l 333 997 q 378 991 361 997 q 406 969 396 985 l 486 836 q 494 813 494 817 q 468 796 494 796 l 433 796 q 375 819 388 796 l 329 896 l 285 821 q 226 796 268 796 l 193 796 z "},"ầ":{"ha":618,"x_min":60,"x_max":592,"o":"m 494 990 q 437 999 456 990 q 407 1022 418 1008 l 344 1103 q 298 1165 307 1151 q 289 1188 289 1178 q 306 1201 289 1197 q 358 1206 322 1206 q 458 1169 438 1206 q 512 1059 493 1099 q 531 1010 531 1019 q 523 994 531 999 q 494 990 515 990 m 176 796 q 147 811 147 796 q 154 835 147 821 l 228 969 q 254 992 238 986 q 300 997 271 997 l 310 997 q 354 992 338 997 q 379 969 371 986 l 453 835 q 463 813 463 821 q 435 796 463 796 l 400 796 q 342 819 353 796 l 304 896 l 267 819 q 244 801 260 806 q 208 796 229 796 l 176 796 m 254 -10 q 110 48 161 -10 q 60 207 60 106 q 142 394 60 325 q 400 464 225 464 l 400 501 q 303 596 400 596 q 238 587 265 596 q 178 563 210 578 q 151 551 160 551 q 110 590 133 551 q 88 649 88 628 q 120 691 88 671 q 206 724 153 711 q 314 736 258 736 q 511 675 447 736 q 575 507 575 614 l 575 231 q 583 92 575 136 q 592 39 592 49 q 546 9 592 19 q 464 -1 500 -1 q 433 17 443 -1 q 414 74 424 35 q 349 15 390 39 q 254 -10 308 -10 m 303 125 q 358 140 332 125 q 400 182 383 156 l 400 350 q 222 218 222 350 q 242 149 222 174 q 303 125 263 125 z "},"ẩ":{"ha":618,"x_min":60,"x_max":629,"o":"m 494 976 q 452 986 475 976 q 429 1006 429 996 q 440 1024 429 1014 q 465 1046 451 1035 q 506 1081 492 1065 q 521 1117 521 1097 q 507 1141 521 1132 q 474 1150 493 1150 q 434 1142 451 1150 q 414 1133 417 1133 q 390 1153 406 1133 q 375 1188 375 1174 q 412 1216 375 1201 q 485 1231 449 1231 q 589 1203 549 1231 q 629 1124 629 1176 q 602 1054 629 1088 q 542 999 575 1021 q 494 976 508 976 m 176 796 q 147 811 147 796 q 154 835 147 821 l 228 969 q 254 992 238 986 q 300 997 271 997 l 310 997 q 354 992 338 997 q 379 969 371 986 l 453 835 q 463 813 463 821 q 435 796 463 796 l 400 796 q 342 819 353 796 l 304 896 l 267 819 q 244 801 260 806 q 208 796 229 796 l 176 796 m 254 -10 q 110 48 161 -10 q 60 207 60 106 q 142 394 60 325 q 400 464 225 464 l 400 501 q 303 596 400 596 q 238 587 265 596 q 178 563 210 578 q 151 551 160 551 q 110 590 133 551 q 88 649 88 628 q 120 691 88 671 q 206 724 153 711 q 314 736 258 736 q 511 675 447 736 q 575 507 575 614 l 575 231 q 583 92 575 136 q 592 39 592 49 q 546 9 592 19 q 464 -1 500 -1 q 433 17 443 -1 q 414 74 424 35 q 349 15 390 39 q 254 -10 308 -10 m 303 125 q 358 140 332 125 q 400 182 383 156 l 400 350 q 222 218 222 350 q 242 149 222 174 q 303 125 263 125 z "},"ẫ":{"ha":618,"x_min":60,"x_max":592,"o":"m 157 1039 q 133 1068 133 1047 q 139 1089 133 1076 q 250 1185 174 1185 q 333 1160 275 1185 q 401 1139 381 1139 q 439 1165 421 1139 q 469 1189 451 1189 q 486 1185 478 1189 l 497 1181 q 521 1151 521 1174 q 518 1131 521 1144 q 473 1060 501 1086 q 407 1035 444 1035 q 321 1060 379 1035 q 254 1081 271 1081 q 235 1075 243 1081 q 217 1053 226 1069 q 188 1031 203 1031 q 171 1033 182 1031 l 157 1039 m 176 796 q 154 799 161 796 q 147 813 147 803 q 160 840 147 821 l 228 939 q 255 960 239 954 q 300 967 271 967 l 310 967 q 356 960 339 967 q 382 939 372 954 l 450 840 q 463 813 463 821 q 456 801 463 806 q 435 796 449 796 l 400 796 q 365 801 376 796 q 342 819 353 807 l 306 883 l 267 819 q 243 801 254 806 q 210 796 232 796 l 176 796 m 254 -10 q 110 48 161 -10 q 60 207 60 106 q 142 394 60 325 q 400 464 225 464 l 400 501 q 303 596 400 596 q 238 587 265 596 q 178 563 210 578 q 151 551 160 551 q 110 590 133 551 q 88 649 88 628 q 120 691 88 671 q 206 724 153 711 q 314 736 258 736 q 511 675 447 736 q 575 507 575 614 l 575 231 q 583 92 575 136 q 592 39 592 49 q 546 9 592 19 q 464 -1 500 -1 q 433 17 443 -1 q 414 74 424 35 q 349 15 390 39 q 254 -10 308 -10 m 303 125 q 358 140 332 125 q 400 182 383 156 l 400 350 q 222 218 222 350 q 242 149 222 174 q 303 125 263 125 z "},"ä":{"ha":668,"x_min":60,"x_max":592,"o":"m 254 -10 q 110 48 161 -10 q 60 207 60 106 q 142 394 60 325 q 400 464 225 464 l 400 501 q 303 596 400 596 q 238 587 265 596 q 178 563 210 578 q 151 551 160 551 q 110 590 133 551 q 88 649 88 628 q 120 691 88 671 q 206 724 153 711 q 314 736 258 736 q 511 675 447 736 q 575 507 575 614 l 575 231 q 583 92 575 136 q 592 39 592 49 q 546 9 592 19 q 464 -1 500 -1 q 433 17 443 -1 q 414 74 424 35 q 349 15 390 39 q 254 -10 308 -10 m 303 125 q 358 140 332 125 q 400 182 383 156 l 400 350 q 222 218 222 350 q 242 149 222 174 q 303 125 263 125 m 229 817 q 157 857 157 817 l 157 935 q 228 975 157 975 q 299 935 299 975 l 299 857 q 229 817 299 817 m 436 817 q 365 857 365 817 l 365 935 q 435 975 365 975 q 507 935 507 975 l 507 857 q 436 817 507 817 z "},"ạ":{"ha":668,"x_min":60,"x_max":592,"o":"m 254 -10 q 110 48 161 -10 q 60 207 60 106 q 142 394 60 325 q 400 464 225 464 l 400 501 q 303 596 400 596 q 238 587 265 596 q 178 563 210 578 q 151 551 160 551 q 110 590 133 551 q 88 649 88 628 q 120 691 88 671 q 206 724 153 711 q 314 736 258 736 q 511 675 447 736 q 575 507 575 614 l 575 231 q 583 92 575 136 q 592 39 592 49 q 546 9 592 19 q 464 -1 500 -1 q 433 17 443 -1 q 414 74 424 35 q 349 15 390 39 q 254 -10 308 -10 m 303 125 q 358 140 332 125 q 400 182 383 156 l 400 350 q 222 218 222 350 q 242 149 222 174 q 303 125 263 125 m 331 -269 q 246 -229 246 -269 l 246 -151 q 329 -111 246 -111 q 414 -151 414 -111 l 414 -229 q 331 -269 414 -269 z "},"à":{"ha":668,"x_min":60,"x_max":592,"o":"m 254 -10 q 110 48 161 -10 q 60 207 60 106 q 142 394 60 325 q 400 464 225 464 l 400 501 q 303 596 400 596 q 238 587 265 596 q 178 563 210 578 q 151 551 160 551 q 110 590 133 551 q 88 649 88 628 q 120 691 88 671 q 206 724 153 711 q 314 736 258 736 q 511 675 447 736 q 575 507 575 614 l 575 231 q 583 92 575 136 q 592 39 592 49 q 546 9 592 19 q 464 -1 500 -1 q 433 17 443 -1 q 414 74 424 35 q 349 15 390 39 q 254 -10 308 -10 m 303 125 q 358 140 332 125 q 400 182 383 156 l 400 350 q 222 218 222 350 q 242 149 222 174 q 303 125 263 125 m 356 803 q 298 812 317 803 q 268 835 279 821 l 206 915 q 159 977 168 964 q 150 1000 150 990 q 167 1014 150 1010 q 219 1018 183 1018 q 319 982 299 1018 q 373 872 354 911 q 392 822 392 832 q 384 807 392 811 q 356 803 376 803 z "},"ả":{"ha":668,"x_min":60,"x_max":592,"o":"m 254 -10 q 110 48 161 -10 q 60 207 60 106 q 142 394 60 325 q 400 464 225 464 l 400 501 q 303 596 400 596 q 238 587 265 596 q 178 563 210 578 q 151 551 160 551 q 110 590 133 551 q 88 649 88 628 q 120 691 88 671 q 206 724 153 711 q 314 736 258 736 q 511 675 447 736 q 575 507 575 614 l 575 231 q 583 92 575 136 q 592 39 592 49 q 546 9 592 19 q 464 -1 500 -1 q 433 17 443 -1 q 414 74 424 35 q 349 15 390 39 q 254 -10 308 -10 m 303 125 q 358 140 332 125 q 400 182 383 156 l 400 350 q 222 218 222 350 q 242 149 222 174 q 303 125 263 125 m 356 789 q 313 799 336 789 q 290 818 290 808 q 301 837 290 826 q 326 858 313 847 q 367 894 353 878 q 382 929 382 910 q 368 953 382 944 q 335 963 354 963 q 295 954 313 963 q 275 946 278 946 q 251 966 267 946 q 236 1000 236 986 q 273 1028 236 1014 q 346 1043 310 1043 q 450 1016 410 1043 q 490 936 490 989 q 463 867 490 900 q 403 811 436 833 q 356 789 369 789 z "},"ā":{"ha":668,"x_min":60,"x_max":592,"o":"m 254 -10 q 110 48 161 -10 q 60 207 60 106 q 142 394 60 325 q 400 464 225 464 l 400 501 q 303 596 400 596 q 238 587 265 596 q 178 563 210 578 q 151 551 160 551 q 110 590 133 551 q 88 649 88 628 q 120 691 88 671 q 206 724 153 711 q 314 736 258 736 q 511 675 447 736 q 575 507 575 614 l 575 231 q 583 92 575 136 q 592 39 592 49 q 546 9 592 19 q 464 -1 500 -1 q 433 17 443 -1 q 414 74 424 35 q 349 15 390 39 q 254 -10 308 -10 m 303 125 q 358 140 332 125 q 400 182 383 156 l 400 350 q 222 218 222 350 q 242 149 222 174 q 303 125 263 125 m 199 836 q 171 849 179 836 q 163 888 163 861 l 163 906 q 171 944 163 932 q 199 957 179 957 l 467 957 q 494 945 486 957 q 503 906 503 933 l 503 888 q 494 848 503 860 q 467 836 486 836 l 199 836 z "},"ą":{"ha":668,"x_min":60,"x_max":708,"o":"m 672 -122 q 699 -131 690 -122 q 708 -161 708 -140 q 688 -203 708 -189 q 604 -222 649 -222 q 499 -181 526 -222 q 472 -94 472 -140 q 492 0 472 -47 q 464 -1 481 -1 q 433 17 443 -1 q 414 74 424 35 q 349 15 390 39 q 254 -10 308 -10 q 110 48 161 -10 q 60 207 60 106 q 142 394 60 325 q 400 464 225 464 l 400 501 q 303 596 400 596 q 238 587 265 596 q 178 563 210 578 q 151 551 160 551 q 110 590 133 551 q 88 649 88 628 q 120 691 88 671 q 206 724 153 711 q 314 736 258 736 q 511 675 447 736 q 575 507 575 614 l 575 231 q 583 92 575 136 q 592 39 592 49 q 585 25 592 32 q 563 -68 563 -24 q 631 -129 563 -129 q 653 -126 642 -129 q 672 -122 665 -122 m 400 350 q 222 218 222 350 q 242 149 222 174 q 303 125 263 125 q 358 140 332 125 q 400 182 383 156 l 400 350 z "},"å":{"ha":668,"x_min":60,"x_max":592,"o":"m 254 -10 q 110 48 161 -10 q 60 207 60 106 q 142 394 60 325 q 400 464 225 464 l 400 501 q 303 596 400 596 q 238 587 265 596 q 178 563 210 578 q 151 551 160 551 q 110 590 133 551 q 88 649 88 628 q 120 691 88 671 q 206 724 153 711 q 314 736 258 736 q 511 675 447 736 q 575 507 575 614 l 575 231 q 583 92 575 136 q 592 39 592 49 q 546 9 592 19 q 464 -1 500 -1 q 433 17 443 -1 q 414 74 424 35 q 349 15 390 39 q 254 -10 308 -10 m 303 125 q 358 140 332 125 q 400 182 383 156 l 400 350 q 222 218 222 350 q 242 149 222 174 q 303 125 263 125 m 328 771 q 234 807 269 771 q 199 901 199 843 q 234 996 199 960 q 328 1032 269 1032 q 424 996 389 1032 q 458 901 458 960 q 424 807 458 843 q 328 771 389 771 m 329 844 q 370 859 356 844 q 385 900 385 874 q 370 943 385 928 q 329 958 356 958 q 288 943 303 958 q 272 900 274 928 q 329 844 275 844 z "},"ǻ":{"ha":668,"x_min":60,"x_max":592,"o":"m 254 -10 q 110 48 161 -10 q 60 207 60 106 q 142 394 60 325 q 400 464 225 464 l 400 501 q 303 596 400 596 q 238 587 265 596 q 178 563 210 578 q 151 551 160 551 q 110 590 133 551 q 88 649 88 628 q 120 691 88 671 q 206 724 153 711 q 314 736 258 736 q 511 675 447 736 q 575 507 575 614 l 575 231 q 583 92 575 136 q 592 39 592 49 q 546 9 592 19 q 464 -1 500 -1 q 433 17 443 -1 q 414 74 424 35 q 349 15 390 39 q 254 -10 308 -10 m 303 125 q 358 140 332 125 q 400 182 383 156 l 400 350 q 222 218 222 350 q 242 149 222 174 q 303 125 263 125 m 328 771 q 234 807 269 771 q 199 901 199 843 q 234 996 199 960 q 328 1032 269 1032 q 424 996 389 1032 q 458 901 458 960 q 424 807 458 843 q 328 771 389 771 m 329 844 q 370 859 356 844 q 385 900 385 874 q 370 943 385 928 q 329 958 356 958 q 288 943 303 958 q 272 900 274 928 q 329 844 275 844 m 308 1065 q 280 1069 288 1065 q 272 1085 272 1074 q 281 1112 272 1092 q 301 1153 290 1132 q 317 1183 311 1174 l 347 1244 q 446 1281 364 1281 q 498 1276 482 1281 q 514 1263 514 1272 q 506 1240 514 1253 q 460 1179 497 1226 l 397 1097 q 367 1074 386 1082 q 308 1065 347 1065 z "},"ã":{"ha":668,"x_min":60,"x_max":592,"o":"m 254 -10 q 110 48 161 -10 q 60 207 60 106 q 142 394 60 325 q 400 464 225 464 l 400 501 q 303 596 400 596 q 238 587 265 596 q 178 563 210 578 q 151 551 160 551 q 110 590 133 551 q 88 649 88 628 q 120 691 88 671 q 206 724 153 711 q 314 736 258 736 q 511 675 447 736 q 575 507 575 614 l 575 231 q 583 92 575 136 q 592 39 592 49 q 546 9 592 19 q 464 -1 500 -1 q 433 17 443 -1 q 414 74 424 35 q 349 15 390 39 q 254 -10 308 -10 m 303 125 q 358 140 332 125 q 400 182 383 156 l 400 350 q 222 218 222 350 q 242 149 222 174 q 303 125 263 125 m 138 817 q 111 846 111 824 q 117 867 111 854 q 164 938 133 913 q 238 963 194 963 q 331 938 267 963 q 404 917 382 917 q 446 943 426 917 q 481 967 461 967 q 499 963 489 967 l 511 958 q 538 929 538 951 q 532 908 538 922 q 484 838 515 864 q 411 813 453 813 q 354 824 386 813 q 314 838 322 835 q 243 858 264 858 q 203 831 221 858 q 187 813 194 818 q 169 808 179 808 q 151 811 163 808 l 138 817 z "},"æ":{"ha":922,"x_min":33,"x_max":892,"o":"m 242 -10 q 88 48 143 -10 q 33 207 33 106 q 111 390 33 321 q 361 461 189 460 q 378 538 365 504 q 278 596 356 596 q 217 588 243 596 q 157 564 190 579 q 128 553 138 553 q 87 590 110 553 q 64 649 64 628 q 96 691 64 671 q 181 724 128 711 q 290 736 233 736 q 394 724 347 736 q 471 688 440 711 q 636 736 536 736 q 830 644 768 736 q 892 374 892 553 q 867 329 892 358 q 829 300 842 300 l 538 300 q 667 131 542 131 q 731 141 703 131 q 782 165 758 151 q 811 178 806 178 q 851 141 828 178 q 874 83 874 104 q 840 37 874 58 q 756 3 807 15 q 656 -10 704 -10 q 438 72 515 -10 q 356 13 408 36 q 242 -10 304 -10 m 719 425 q 699 555 719 514 q 636 596 678 596 q 566 556 592 596 q 535 425 540 517 l 719 425 m 275 135 q 332 147 306 135 q 376 185 358 160 q 356 338 358 242 q 204 218 204 335 q 222 157 204 179 q 275 135 240 135 z "},"ǽ":{"ha":922,"x_min":33,"x_max":892,"o":"m 242 -10 q 88 48 143 -10 q 33 207 33 106 q 111 390 33 321 q 361 461 189 460 q 378 538 365 504 q 278 596 356 596 q 217 588 243 596 q 157 564 190 579 q 128 553 138 553 q 87 590 110 553 q 64 649 64 628 q 96 691 64 671 q 181 724 128 711 q 290 736 233 736 q 394 724 347 736 q 471 688 440 711 q 636 736 536 736 q 830 644 768 736 q 892 374 892 553 q 867 329 892 358 q 829 300 842 300 l 538 300 q 667 131 542 131 q 731 141 703 131 q 782 165 758 151 q 811 178 806 178 q 851 141 828 178 q 874 83 874 104 q 840 37 874 58 q 756 3 807 15 q 656 -10 704 -10 q 438 72 515 -10 q 356 13 408 36 q 242 -10 304 -10 m 719 425 q 699 555 719 514 q 636 596 678 596 q 566 556 592 596 q 535 425 540 517 l 719 425 m 275 135 q 332 147 306 135 q 376 185 358 160 q 356 338 358 242 q 204 218 204 335 q 222 157 204 179 q 275 135 240 135 m 449 803 q 420 807 428 803 q 413 822 413 811 q 422 849 413 829 q 441 890 431 869 q 457 921 451 911 l 488 982 q 586 1018 504 1018 q 638 1014 622 1018 q 654 1000 654 1010 q 646 977 654 990 q 600 917 638 964 l 538 835 q 507 811 526 819 q 449 803 488 803 z "},"b":{"ha":669,"x_min":83,"x_max":615,"o":"m 401 -10 q 312 17 354 -10 q 244 89 269 43 l 232 26 q 210 3 226 10 q 167 -3 194 -3 l 153 -3 q 83 38 83 -3 l 83 1007 q 156 1046 83 1046 l 186 1046 q 258 1007 258 1046 l 258 685 q 385 736 310 736 q 554 640 493 736 q 615 364 615 543 q 589 164 615 249 q 514 35 563 79 q 401 -10 465 -10 m 347 135 q 415 190 393 135 q 436 365 436 246 q 412 541 436 488 q 338 594 388 594 q 258 560 293 594 l 258 199 q 347 135 299 135 z "},"c":{"ha":567,"x_min":53,"x_max":546,"o":"m 346 -10 q 126 81 199 -10 q 53 363 53 172 q 127 645 53 554 q 349 736 201 736 q 481 710 422 736 q 540 651 540 685 q 521 593 540 629 q 485 557 501 557 q 463 567 479 557 q 416 588 438 581 q 364 596 394 596 q 266 542 299 596 q 233 365 233 489 q 264 185 233 240 q 363 131 294 131 q 419 139 396 131 q 467 160 442 147 q 479 167 472 163 q 490 171 486 171 q 527 135 508 171 q 546 76 546 100 q 513 34 546 54 q 433 2 481 14 q 346 -10 385 -10 z "},"ć":{"ha":567,"x_min":53,"x_max":546,"o":"m 346 -10 q 126 81 199 -10 q 53 363 53 172 q 127 645 53 554 q 349 736 201 736 q 481 710 422 736 q 540 651 540 685 q 521 593 540 629 q 485 557 501 557 q 463 567 479 557 q 416 588 438 581 q 364 596 394 596 q 266 542 299 596 q 233 365 233 489 q 264 185 233 240 q 363 131 294 131 q 419 139 396 131 q 467 160 442 147 q 479 167 472 163 q 490 171 486 171 q 527 135 508 171 q 546 76 546 100 q 513 34 546 54 q 433 2 481 14 q 346 -10 385 -10 m 299 803 q 270 807 278 803 q 263 822 263 811 q 272 849 263 829 q 291 890 281 869 q 307 921 301 911 l 338 982 q 436 1018 354 1018 q 488 1014 472 1018 q 504 1000 504 1010 q 496 977 504 990 q 450 917 488 964 l 388 835 q 357 811 376 819 q 299 803 338 803 z "},"č":{"ha":567,"x_min":53,"x_max":546,"o":"m 346 -10 q 126 81 199 -10 q 53 363 53 172 q 127 645 53 554 q 349 736 201 736 q 481 710 422 736 q 540 651 540 685 q 521 593 540 629 q 485 557 501 557 q 463 567 479 557 q 416 588 438 581 q 364 596 394 596 q 266 542 299 596 q 233 365 233 489 q 264 185 233 240 q 363 131 294 131 q 419 139 396 131 q 467 160 442 147 q 479 167 472 163 q 490 171 486 171 q 527 135 508 171 q 546 76 546 100 q 513 34 546 54 q 433 2 481 14 q 346 -10 385 -10 m 315 800 q 271 806 288 800 q 244 828 254 813 l 167 961 q 157 985 157 976 q 185 1000 157 1000 l 218 1000 q 276 976 258 1000 l 321 900 l 367 976 q 425 1000 379 1000 l 460 1000 q 486 985 486 1000 q 478 961 486 978 l 397 828 q 371 806 388 813 q 328 800 354 800 l 315 800 z "},"ç":{"ha":567,"x_min":53,"x_max":546,"o":"m 546 76 q 496 25 546 49 q 385 -7 446 1 l 367 -72 q 433 -101 407 -76 q 460 -172 460 -126 q 421 -263 460 -233 q 318 -293 382 -293 q 221 -273 264 -293 q 178 -225 178 -253 q 190 -190 178 -204 q 215 -175 203 -175 q 249 -186 224 -175 q 307 -204 285 -204 q 333 -197 322 -204 q 343 -175 343 -190 q 334 -153 343 -160 q 306 -137 325 -147 q 274 -110 274 -126 q 306 -8 274 -97 q 116 95 179 4 q 53 363 53 186 q 127 645 53 554 q 349 736 201 736 q 481 710 422 736 q 540 651 540 685 q 521 593 540 629 q 485 557 501 557 q 463 567 479 557 q 416 588 438 581 q 364 596 394 596 q 266 542 299 596 q 233 365 233 489 q 264 185 233 240 q 363 131 294 131 q 419 139 396 131 q 467 160 442 147 q 479 167 472 163 q 490 171 486 171 q 527 135 508 171 q 546 76 546 100 z "},"ĉ":{"ha":567,"x_min":53,"x_max":546,"o":"m 346 -10 q 126 81 199 -10 q 53 363 53 172 q 127 645 53 554 q 349 736 201 736 q 481 710 422 736 q 540 651 540 685 q 521 593 540 629 q 485 557 501 557 q 463 567 479 557 q 416 588 438 581 q 364 596 394 596 q 266 542 299 596 q 233 365 233 489 q 264 185 233 240 q 363 131 294 131 q 419 139 396 131 q 467 160 442 147 q 479 167 472 163 q 490 171 486 171 q 527 135 508 171 q 546 76 546 100 q 513 34 546 54 q 433 2 481 14 q 346 -10 385 -10 m 183 796 q 156 811 156 796 q 165 836 156 819 l 243 969 q 270 991 253 985 q 315 997 288 997 l 324 997 q 369 991 351 997 q 396 969 386 985 l 476 836 q 485 813 485 817 q 458 796 485 796 l 424 796 q 365 819 378 796 l 319 896 l 275 821 q 217 796 258 796 l 183 796 z "},"ċ":{"ha":567,"x_min":53,"x_max":546,"o":"m 346 -10 q 126 81 199 -10 q 53 363 53 172 q 127 645 53 554 q 349 736 201 736 q 481 710 422 736 q 540 651 540 685 q 521 593 540 629 q 485 557 501 557 q 463 567 479 557 q 416 588 438 581 q 364 596 394 596 q 266 542 299 596 q 233 365 233 489 q 264 185 233 240 q 363 131 294 131 q 419 139 396 131 q 467 160 442 147 q 479 167 472 163 q 490 171 486 171 q 527 135 508 171 q 546 76 546 100 q 513 34 546 54 q 433 2 481 14 q 346 -10 385 -10 m 322 817 q 238 857 238 817 l 238 935 q 321 975 238 975 q 406 935 406 975 l 406 857 q 322 817 406 817 z "},"d":{"ha":668,"x_min":54,"x_max":603,"o":"m 267 -10 q 156 35 204 -10 q 81 165 108 81 q 54 367 54 250 q 116 640 54 543 q 285 736 178 736 q 411 686 358 736 l 411 1007 q 483 1046 411 1046 l 514 1046 q 586 1007 586 1046 l 586 231 q 594 92 586 138 q 603 39 603 46 q 555 9 603 19 q 472 -1 507 -1 q 438 22 447 -1 q 419 89 428 44 q 355 17 394 43 q 267 -10 315 -10 m 322 135 q 370 153 347 135 q 411 204 393 172 l 411 560 q 333 594 376 594 q 258 540 282 594 q 233 364 233 485 q 256 191 233 247 q 322 135 278 135 z "},"ð":{"ha":663,"x_min":54,"x_max":610,"o":"m 471 847 q 572 620 533 746 q 610 363 610 494 q 539 86 610 182 q 332 -10 468 -10 q 125 86 196 -10 q 54 363 54 182 q 125 636 54 542 q 332 731 196 731 q 372 728 344 731 q 322 826 350 781 q 225 814 232 814 q 192 831 207 814 q 178 867 178 847 q 183 881 178 876 q 203 888 189 885 l 276 899 q 250 933 269 908 q 231 968 231 958 q 256 985 231 981 l 324 993 q 371 976 350 993 q 424 918 389 963 l 522 931 q 554 913 540 931 q 568 878 568 894 q 542 857 568 861 l 471 847 m 332 131 q 408 185 385 131 q 431 364 431 239 q 408 538 431 485 q 332 590 385 590 q 256 538 279 590 q 232 364 232 485 q 256 185 232 239 q 332 131 279 131 z "},"ď":{"ha":668,"x_min":54,"x_max":778,"o":"m 267 -10 q 156 35 204 -10 q 81 165 108 81 q 54 367 54 250 q 116 640 54 543 q 285 736 178 736 q 411 686 358 736 l 411 1007 q 483 1046 411 1046 l 514 1046 q 586 1007 586 1046 l 586 231 q 594 92 586 138 q 603 39 603 46 q 555 9 603 19 q 472 -1 507 -1 q 438 22 447 -1 q 419 89 428 44 q 355 17 394 43 q 267 -10 315 -10 m 322 135 q 370 153 347 135 q 411 204 393 172 l 411 560 q 333 594 376 594 q 258 540 282 594 q 233 364 233 485 q 256 191 233 247 q 322 135 278 135 m 672 717 q 635 724 651 717 q 618 744 618 731 q 619 790 618 771 q 622 824 621 810 q 628 917 628 882 q 644 958 628 943 q 692 972 660 972 l 714 972 q 761 958 744 972 q 778 919 778 943 q 760 824 778 871 q 716 748 742 778 q 672 717 690 718 z "},"đ":{"ha":649,"x_min":54,"x_max":678,"o":"m 635 938 q 668 926 658 938 q 678 886 678 914 l 678 868 q 668 828 678 840 q 635 817 658 817 l 586 817 l 586 231 q 594 92 586 138 q 603 39 603 46 q 555 9 603 19 q 472 -1 507 -1 q 438 22 447 -1 q 419 89 428 44 q 355 17 394 43 q 267 -10 315 -10 q 156 35 204 -10 q 81 165 108 81 q 54 367 54 250 q 116 640 54 543 q 285 736 178 736 q 411 686 358 736 l 411 817 l 317 817 q 284 828 294 817 q 274 868 274 840 l 274 886 q 284 926 274 914 q 317 938 294 938 l 411 938 l 411 1007 q 483 1046 411 1046 l 514 1046 q 586 1007 586 1046 l 586 938 l 635 938 m 411 560 q 333 594 376 594 q 258 540 282 594 q 233 364 233 485 q 256 191 233 247 q 322 135 278 135 q 370 153 347 135 q 411 204 393 172 l 411 560 z "},"ḍ":{"ha":668,"x_min":54,"x_max":603,"o":"m 267 -10 q 156 35 204 -10 q 81 165 108 81 q 54 367 54 250 q 116 640 54 543 q 285 736 178 736 q 411 686 358 736 l 411 1007 q 483 1046 411 1046 l 514 1046 q 586 1007 586 1046 l 586 231 q 594 92 586 138 q 603 39 603 46 q 555 9 603 19 q 472 -1 507 -1 q 438 22 447 -1 q 419 89 428 44 q 355 17 394 43 q 267 -10 315 -10 m 322 135 q 370 153 347 135 q 411 204 393 172 l 411 560 q 333 594 376 594 q 258 540 282 594 q 233 364 233 485 q 256 191 233 247 q 322 135 278 135 m 336 -269 q 251 -229 251 -269 l 251 -151 q 335 -111 251 -111 q 419 -151 419 -111 l 419 -229 q 336 -269 419 -269 z "},"ǳ":{"ha":1231,"x_min":54,"x_max":1192,"o":"m 267 -10 q 156 35 204 -10 q 81 165 108 81 q 54 367 54 250 q 116 640 54 543 q 285 736 178 736 q 411 686 358 736 l 411 1007 q 483 1046 411 1046 l 514 1046 q 586 1007 586 1046 l 586 231 q 594 92 586 138 q 603 39 603 46 q 555 9 603 19 q 472 -1 507 -1 q 438 22 447 -1 q 419 89 428 44 q 355 17 394 43 q 267 -10 315 -10 m 322 135 q 370 153 347 135 q 411 204 393 172 l 411 560 q 333 594 376 594 q 258 540 282 594 q 233 364 233 485 q 256 191 233 247 q 322 135 278 135 m 740 0 q 717 33 729 0 q 706 93 706 67 q 708 111 706 103 l 972 586 l 758 586 q 724 646 724 586 l 724 667 q 758 726 724 726 l 1153 726 q 1174 692 1163 726 q 1186 632 1186 657 q 1183 613 1186 624 l 921 140 l 1157 140 q 1183 126 1175 140 q 1192 81 1192 113 l 1192 60 q 1157 0 1192 0 l 740 0 z "},"ǆ":{"ha":1231,"x_min":54,"x_max":1192,"o":"m 267 -10 q 156 35 204 -10 q 81 165 108 81 q 54 367 54 250 q 116 640 54 543 q 285 736 178 736 q 411 686 358 736 l 411 1007 q 483 1046 411 1046 l 514 1046 q 586 1007 586 1046 l 586 231 q 594 92 586 138 q 603 39 603 46 q 555 9 603 19 q 472 -1 507 -1 q 438 22 447 -1 q 419 89 428 44 q 355 17 394 43 q 267 -10 315 -10 m 322 135 q 370 153 347 135 q 411 204 393 172 l 411 560 q 333 594 376 594 q 258 540 282 594 q 233 364 233 485 q 256 191 233 247 q 322 135 278 135 m 740 0 q 717 33 729 0 q 706 93 706 67 q 708 111 706 103 l 972 586 l 758 586 q 724 646 724 586 l 724 667 q 758 726 724 726 l 1153 726 q 1174 692 1163 726 q 1186 632 1186 657 q 1183 613 1186 624 l 921 140 l 1157 140 q 1183 126 1175 140 q 1192 81 1192 113 l 1192 60 q 1157 0 1192 0 l 740 0 m 946 800 q 901 806 918 800 q 875 828 885 813 l 797 961 q 788 985 788 976 q 815 1000 788 1000 l 849 1000 q 907 976 889 1000 l 951 900 l 997 976 q 1056 1000 1010 1000 l 1090 1000 q 1117 985 1117 1000 q 1108 961 1117 978 l 1028 828 q 1001 806 1018 813 q 958 800 985 800 l 946 800 z "},"e":{"ha":631,"x_min":54,"x_max":590,"o":"m 360 -10 q 128 83 203 -10 q 54 358 54 175 q 338 736 54 736 q 590 367 590 736 q 566 322 590 351 q 528 293 542 293 l 236 293 q 272 169 240 207 q 365 131 304 131 q 429 141 401 131 q 481 165 457 151 q 508 178 504 178 q 549 141 526 178 q 572 85 572 104 q 538 37 572 58 q 453 3 504 15 q 360 -10 403 -10 m 425 408 q 403 557 425 510 q 335 604 382 604 q 261 559 286 604 q 231 408 236 514 l 425 408 z "},"é":{"ha":631,"x_min":54,"x_max":590,"o":"m 360 -10 q 128 83 203 -10 q 54 358 54 175 q 338 736 54 736 q 590 367 590 736 q 566 322 590 351 q 528 293 542 293 l 236 293 q 272 169 240 207 q 365 131 304 131 q 429 141 401 131 q 481 165 457 151 q 508 178 504 178 q 549 141 526 178 q 572 85 572 104 q 538 37 572 58 q 453 3 504 15 q 360 -10 403 -10 m 425 408 q 403 557 425 510 q 335 604 382 604 q 261 559 286 604 q 231 408 236 514 l 425 408 m 299 803 q 270 807 278 803 q 263 822 263 811 q 272 849 263 829 q 291 890 281 869 q 307 921 301 911 l 338 982 q 436 1018 354 1018 q 488 1014 472 1018 q 504 1000 504 1010 q 496 977 504 990 q 450 917 488 964 l 388 835 q 357 811 376 819 q 299 803 338 803 z "},"ĕ":{"ha":631,"x_min":54,"x_max":590,"o":"m 360 -10 q 128 83 203 -10 q 54 358 54 175 q 338 736 54 736 q 590 367 590 736 q 566 322 590 351 q 528 293 542 293 l 236 293 q 272 169 240 207 q 365 131 304 131 q 429 141 401 131 q 481 165 457 151 q 508 178 504 178 q 549 141 526 178 q 572 85 572 104 q 538 37 572 58 q 453 3 504 15 q 360 -10 403 -10 m 425 408 q 403 557 425 510 q 335 604 382 604 q 261 559 286 604 q 231 408 236 514 l 425 408 m 319 803 q 192 847 239 803 q 146 956 146 890 q 190 993 146 993 q 213 986 204 993 q 228 965 221 979 q 259 931 240 943 q 321 918 278 918 q 385 931 367 918 q 415 967 404 944 q 450 993 425 993 q 494 956 494 993 q 448 847 494 892 q 319 803 401 803 z "},"ě":{"ha":631,"x_min":54,"x_max":590,"o":"m 360 -10 q 128 83 203 -10 q 54 358 54 175 q 338 736 54 736 q 590 367 590 736 q 566 322 590 351 q 528 293 542 293 l 236 293 q 272 169 240 207 q 365 131 304 131 q 429 141 401 131 q 481 165 457 151 q 508 178 504 178 q 549 141 526 178 q 572 85 572 104 q 538 37 572 58 q 453 3 504 15 q 360 -10 403 -10 m 425 408 q 403 557 425 510 q 335 604 382 604 q 261 559 286 604 q 231 408 236 514 l 425 408 m 315 800 q 271 806 288 800 q 244 828 254 813 l 167 961 q 157 985 157 976 q 185 1000 157 1000 l 218 1000 q 276 976 258 1000 l 321 900 l 367 976 q 425 1000 379 1000 l 460 1000 q 486 985 486 1000 q 478 961 486 978 l 397 828 q 371 806 388 813 q 328 800 354 800 l 315 800 z "},"ê":{"ha":631,"x_min":54,"x_max":590,"o":"m 360 -10 q 128 83 203 -10 q 54 358 54 175 q 338 736 54 736 q 590 367 590 736 q 566 322 590 351 q 528 293 542 293 l 236 293 q 272 169 240 207 q 365 131 304 131 q 429 141 401 131 q 481 165 457 151 q 508 178 504 178 q 549 141 526 178 q 572 85 572 104 q 538 37 572 58 q 453 3 504 15 q 360 -10 403 -10 m 425 408 q 403 557 425 510 q 335 604 382 604 q 261 559 286 604 q 231 408 236 514 l 425 408 m 183 796 q 156 811 156 796 q 165 836 156 819 l 243 969 q 270 991 253 985 q 315 997 288 997 l 324 997 q 369 991 351 997 q 396 969 386 985 l 476 836 q 485 813 485 817 q 458 796 485 796 l 424 796 q 365 819 378 796 l 319 896 l 275 821 q 217 796 258 796 l 183 796 z "},"ế":{"ha":611,"x_min":54,"x_max":660,"o":"m 454 990 q 426 994 433 990 q 418 1010 418 999 q 427 1037 418 1017 q 447 1078 436 1057 q 463 1108 457 1099 l 493 1169 q 592 1206 510 1206 q 644 1201 628 1206 q 660 1188 660 1197 q 651 1165 660 1178 q 606 1104 643 1151 l 543 1022 q 513 999 532 1007 q 454 990 493 990 m 182 796 q 154 811 154 796 q 161 835 154 821 l 233 969 q 260 992 243 986 q 306 997 278 997 l 315 997 q 360 992 343 997 q 386 969 378 986 l 458 835 q 468 813 468 821 q 440 796 468 796 l 406 796 q 347 819 360 796 l 310 896 l 274 819 q 251 801 265 806 q 215 796 236 796 l 182 796 m 360 -10 q 128 83 203 -10 q 54 358 54 175 q 338 736 54 736 q 590 367 590 736 q 566 322 590 351 q 528 293 542 293 l 236 293 q 272 169 240 207 q 365 131 304 131 q 429 141 401 131 q 481 165 457 151 q 508 178 504 178 q 549 141 526 178 q 572 85 572 104 q 538 37 572 58 q 453 3 504 15 q 360 -10 403 -10 m 425 408 q 403 557 425 510 q 335 604 382 604 q 261 559 286 604 q 231 408 236 514 l 425 408 z "},"ệ":{"ha":631,"x_min":54,"x_max":590,"o":"m 360 -10 q 128 83 203 -10 q 54 358 54 175 q 338 736 54 736 q 590 367 590 736 q 566 322 590 351 q 528 293 542 293 l 236 293 q 272 169 240 207 q 365 131 304 131 q 429 141 401 131 q 481 165 457 151 q 508 178 504 178 q 549 141 526 178 q 572 85 572 104 q 538 37 572 58 q 453 3 504 15 q 360 -10 403 -10 m 425 408 q 403 557 425 510 q 335 604 382 604 q 261 559 286 604 q 231 408 236 514 l 425 408 m 325 -269 q 240 -229 240 -269 l 240 -151 q 324 -111 240 -111 q 408 -151 408 -111 l 408 -229 q 325 -269 408 -269 m 183 796 q 156 811 156 796 q 165 836 156 819 l 243 969 q 270 991 253 985 q 315 997 288 997 l 324 997 q 369 991 351 997 q 396 969 386 985 l 476 836 q 485 813 485 817 q 458 796 485 796 l 424 796 q 365 819 378 796 l 319 896 l 275 821 q 217 796 258 796 l 183 796 z "},"ề":{"ha":611,"x_min":54,"x_max":590,"o":"m 500 990 q 442 999 461 990 q 413 1022 424 1008 l 350 1103 q 303 1165 313 1151 q 294 1188 294 1178 q 311 1201 294 1197 q 364 1206 328 1206 q 464 1169 443 1206 q 517 1059 499 1099 q 536 1010 536 1019 q 528 994 536 999 q 500 990 521 990 m 182 796 q 154 811 154 796 q 161 835 154 821 l 233 969 q 260 992 243 986 q 306 997 278 997 l 315 997 q 360 992 343 997 q 386 969 378 986 l 458 835 q 468 813 468 821 q 440 796 468 796 l 406 796 q 347 819 360 796 l 310 896 l 274 819 q 251 801 265 806 q 215 796 236 796 l 182 796 m 360 -10 q 128 83 203 -10 q 54 358 54 175 q 338 736 54 736 q 590 367 590 736 q 566 322 590 351 q 528 293 542 293 l 236 293 q 272 169 240 207 q 365 131 304 131 q 429 141 401 131 q 481 165 457 151 q 508 178 504 178 q 549 141 526 178 q 572 85 572 104 q 538 37 572 58 q 453 3 504 15 q 360 -10 403 -10 m 425 408 q 403 557 425 510 q 335 604 382 604 q 261 559 286 604 q 231 408 236 514 l 425 408 z "},"ể":{"ha":611,"x_min":54,"x_max":635,"o":"m 500 976 q 458 986 481 976 q 435 1006 435 996 q 446 1024 435 1014 q 471 1046 457 1035 q 512 1081 497 1065 q 526 1117 526 1097 q 513 1141 526 1132 q 479 1150 499 1150 q 440 1142 457 1150 q 419 1133 422 1133 q 396 1153 411 1133 q 381 1188 381 1174 q 417 1216 381 1201 q 490 1231 454 1231 q 594 1203 554 1231 q 635 1124 635 1176 q 608 1054 635 1088 q 547 999 581 1021 q 500 976 514 976 m 182 796 q 154 811 154 796 q 161 835 154 821 l 233 969 q 260 992 243 986 q 306 997 278 997 l 315 997 q 360 992 343 997 q 386 969 378 986 l 458 835 q 468 813 468 821 q 440 796 468 796 l 406 796 q 347 819 360 796 l 310 896 l 274 819 q 251 801 265 806 q 215 796 236 796 l 182 796 m 360 -10 q 128 83 203 -10 q 54 358 54 175 q 338 736 54 736 q 590 367 590 736 q 566 322 590 351 q 528 293 542 293 l 236 293 q 272 169 240 207 q 365 131 304 131 q 429 141 401 131 q 481 165 457 151 q 508 178 504 178 q 549 141 526 178 q 572 85 572 104 q 538 37 572 58 q 453 3 504 15 q 360 -10 403 -10 m 425 408 q 403 557 425 510 q 335 604 382 604 q 261 559 286 604 q 231 408 236 514 l 425 408 z "},"ễ":{"ha":611,"x_min":54,"x_max":590,"o":"m 149 1039 q 125 1068 125 1047 q 129 1089 125 1075 q 174 1160 146 1135 q 240 1185 201 1185 q 324 1160 265 1185 q 392 1139 371 1139 q 410 1144 401 1139 q 429 1165 418 1150 q 444 1183 438 1178 q 461 1189 451 1189 q 478 1185 469 1189 l 489 1181 q 513 1151 513 1172 q 511 1140 513 1146 q 508 1131 510 1133 q 464 1060 492 1086 q 399 1035 436 1035 q 310 1060 371 1035 q 244 1081 263 1081 q 208 1053 225 1081 q 178 1031 194 1031 q 163 1033 174 1031 l 149 1039 m 182 796 q 160 799 167 796 q 154 813 154 803 q 165 840 154 822 l 233 939 q 260 960 244 954 q 307 967 276 967 l 315 967 q 361 960 344 967 q 389 939 378 954 l 457 840 q 468 813 468 822 q 461 801 468 806 q 440 796 454 796 l 406 796 q 372 801 383 796 q 349 819 360 806 l 311 883 l 272 819 q 249 801 261 806 q 215 796 238 796 l 182 796 m 360 -10 q 128 83 203 -10 q 54 358 54 175 q 338 736 54 736 q 590 367 590 736 q 566 322 590 351 q 528 293 542 293 l 236 293 q 272 169 240 207 q 365 131 304 131 q 429 141 401 131 q 481 165 457 151 q 508 178 504 178 q 549 141 526 178 q 572 85 572 104 q 538 37 572 58 q 453 3 504 15 q 360 -10 403 -10 m 425 408 q 403 557 425 510 q 335 604 382 604 q 261 559 286 604 q 231 408 236 514 l 425 408 z "},"ë":{"ha":631,"x_min":54,"x_max":590,"o":"m 360 -10 q 128 83 203 -10 q 54 358 54 175 q 338 736 54 736 q 590 367 590 736 q 566 322 590 351 q 528 293 542 293 l 236 293 q 272 169 240 207 q 365 131 304 131 q 429 141 401 131 q 481 165 457 151 q 508 178 504 178 q 549 141 526 178 q 572 85 572 104 q 538 37 572 58 q 453 3 504 15 q 360 -10 403 -10 m 425 408 q 403 557 425 510 q 335 604 382 604 q 261 559 286 604 q 231 408 236 514 l 425 408 m 219 817 q 147 857 147 817 l 147 935 q 218 975 147 975 q 289 935 289 975 l 289 857 q 219 817 289 817 m 426 817 q 356 857 356 817 l 356 935 q 425 975 356 975 q 497 935 497 975 l 497 857 q 426 817 497 817 z "},"ė":{"ha":631,"x_min":54,"x_max":590,"o":"m 360 -10 q 128 83 203 -10 q 54 358 54 175 q 338 736 54 736 q 590 367 590 736 q 566 322 590 351 q 528 293 542 293 l 236 293 q 272 169 240 207 q 365 131 304 131 q 429 141 401 131 q 481 165 457 151 q 508 178 504 178 q 549 141 526 178 q 572 85 572 104 q 538 37 572 58 q 453 3 504 15 q 360 -10 403 -10 m 425 408 q 403 557 425 510 q 335 604 382 604 q 261 559 286 604 q 231 408 236 514 l 425 408 m 322 817 q 238 857 238 817 l 238 935 q 321 975 238 975 q 406 935 406 975 l 406 857 q 322 817 406 817 z "},"ẹ":{"ha":631,"x_min":54,"x_max":590,"o":"m 360 -10 q 128 83 203 -10 q 54 358 54 175 q 338 736 54 736 q 590 367 590 736 q 566 322 590 351 q 528 293 542 293 l 236 293 q 272 169 240 207 q 365 131 304 131 q 429 141 401 131 q 481 165 457 151 q 508 178 504 178 q 549 141 526 178 q 572 85 572 104 q 538 37 572 58 q 453 3 504 15 q 360 -10 403 -10 m 425 408 q 403 557 425 510 q 335 604 382 604 q 261 559 286 604 q 231 408 236 514 l 425 408 m 325 -269 q 240 -229 240 -269 l 240 -151 q 324 -111 240 -111 q 408 -151 408 -111 l 408 -229 q 325 -269 408 -269 z "},"è":{"ha":631,"x_min":54,"x_max":590,"o":"m 360 -10 q 128 83 203 -10 q 54 358 54 175 q 338 736 54 736 q 590 367 590 736 q 566 322 590 351 q 528 293 542 293 l 236 293 q 272 169 240 207 q 365 131 304 131 q 429 141 401 131 q 481 165 457 151 q 508 178 504 178 q 549 141 526 178 q 572 85 572 104 q 538 37 572 58 q 453 3 504 15 q 360 -10 403 -10 m 425 408 q 403 557 425 510 q 335 604 382 604 q 261 559 286 604 q 231 408 236 514 l 425 408 m 346 803 q 288 812 307 803 q 258 835 269 821 l 196 915 q 149 977 158 964 q 140 1000 140 990 q 157 1014 140 1010 q 210 1018 174 1018 q 310 982 289 1018 q 363 872 344 911 q 382 822 382 832 q 374 807 382 811 q 346 803 367 803 z "},"ẻ":{"ha":631,"x_min":54,"x_max":590,"o":"m 360 -10 q 128 83 203 -10 q 54 358 54 175 q 338 736 54 736 q 590 367 590 736 q 566 322 590 351 q 528 293 542 293 l 236 293 q 272 169 240 207 q 365 131 304 131 q 429 141 401 131 q 481 165 457 151 q 508 178 504 178 q 549 141 526 178 q 572 85 572 104 q 538 37 572 58 q 453 3 504 15 q 360 -10 403 -10 m 425 408 q 403 557 425 510 q 335 604 382 604 q 261 559 286 604 q 231 408 236 514 l 425 408 m 346 789 q 303 799 326 789 q 281 818 281 808 q 292 837 281 826 q 317 858 303 847 q 358 894 343 878 q 372 929 372 910 q 358 953 372 944 q 325 963 344 963 q 285 954 303 963 q 265 946 268 946 q 242 966 257 946 q 226 1000 226 986 q 263 1028 226 1014 q 336 1043 300 1043 q 440 1016 400 1043 q 481 936 481 989 q 453 867 481 900 q 393 811 426 833 q 346 789 360 789 z "},"ē":{"ha":631,"x_min":54,"x_max":590,"o":"m 360 -10 q 128 83 203 -10 q 54 358 54 175 q 338 736 54 736 q 590 367 590 736 q 566 322 590 351 q 528 293 542 293 l 236 293 q 272 169 240 207 q 365 131 304 131 q 429 141 401 131 q 481 165 457 151 q 508 178 504 178 q 549 141 526 178 q 572 85 572 104 q 538 37 572 58 q 453 3 504 15 q 360 -10 403 -10 m 425 408 q 403 557 425 510 q 335 604 382 604 q 261 559 286 604 q 231 408 236 514 l 425 408 m 189 836 q 161 849 169 836 q 153 888 153 861 l 153 906 q 161 944 153 932 q 189 957 169 957 l 457 957 q 485 945 476 957 q 493 906 493 933 l 493 888 q 485 848 493 860 q 457 836 476 836 l 189 836 z "},"ę":{"ha":631,"x_min":54,"x_max":626,"o":"m 590 -139 q 617 -148 608 -139 q 626 -178 626 -157 q 606 -219 626 -206 q 522 -239 567 -239 q 417 -198 444 -239 q 390 -111 390 -157 q 414 -6 390 -58 q 360 -10 385 -10 q 128 83 203 -10 q 54 358 54 175 q 338 736 54 736 q 590 367 590 736 q 566 322 590 351 q 528 293 542 293 l 236 293 q 272 169 240 207 q 365 131 304 131 q 429 141 401 131 q 481 165 457 151 q 508 178 504 178 q 549 141 526 178 q 572 85 572 104 q 508 21 572 49 q 481 -85 481 -33 q 549 -146 481 -146 q 572 -142 560 -146 q 590 -139 583 -139 m 335 604 q 261 559 286 604 q 231 408 236 514 l 425 408 q 403 557 425 510 q 335 604 382 604 z "},"ẽ":{"ha":631,"x_min":54,"x_max":590,"o":"m 360 -10 q 128 83 203 -10 q 54 358 54 175 q 338 736 54 736 q 590 367 590 736 q 566 322 590 351 q 528 293 542 293 l 236 293 q 272 169 240 207 q 365 131 304 131 q 429 141 401 131 q 481 165 457 151 q 508 178 504 178 q 549 141 526 178 q 572 85 572 104 q 538 37 572 58 q 453 3 504 15 q 360 -10 403 -10 m 425 408 q 403 557 425 510 q 335 604 382 604 q 261 559 286 604 q 231 408 236 514 l 425 408 m 128 817 q 101 846 101 824 q 107 867 101 854 q 154 938 124 913 q 228 963 185 963 q 321 938 257 963 q 394 917 372 917 q 436 943 417 917 q 471 967 451 967 q 489 963 479 967 l 501 958 q 528 929 528 951 q 522 908 528 922 q 474 838 506 864 q 401 813 443 813 q 344 824 376 813 q 304 838 313 835 q 233 858 254 858 q 193 831 211 858 q 177 813 185 818 q 160 808 169 808 q 142 811 153 808 l 128 817 z "},"f":{"ha":397,"x_min":44,"x_max":410,"o":"m 179 -3 q 106 38 106 -3 l 106 586 l 81 586 q 53 601 61 586 q 44 646 44 615 l 44 667 q 53 712 44 697 q 81 726 61 726 l 106 726 l 106 846 q 156 1004 106 954 q 289 1054 206 1054 q 370 1040 331 1054 q 410 993 410 1025 q 399 941 410 976 q 371 906 388 906 q 351 909 364 906 q 328 913 338 913 q 292 897 304 913 q 281 843 281 882 l 281 726 l 343 726 q 371 712 363 726 q 379 667 379 697 l 379 646 q 371 601 379 615 q 343 586 363 586 l 281 586 l 281 38 q 207 -3 281 -3 l 179 -3 z "},"g":{"ha":654,"x_min":53,"x_max":622,"o":"m 311 -294 q 120 -250 188 -294 q 53 -114 53 -206 q 160 54 53 0 l 160 57 q 121 101 135 74 q 107 161 107 128 q 174 283 107 236 q 72 492 72 344 q 138 673 72 610 q 317 736 204 736 q 399 726 361 736 l 589 726 q 615 713 607 726 q 622 672 622 700 l 622 651 q 615 611 622 624 q 592 599 608 599 q 535 603 556 599 l 532 599 q 558 489 558 557 q 499 318 558 381 q 336 251 439 256 q 276 235 297 250 q 254 189 254 219 q 283 142 254 156 q 374 119 313 129 l 418 111 q 547 53 500 94 q 594 -72 594 13 q 520 -236 594 -178 q 311 -294 446 -294 m 314 371 q 384 397 358 371 q 410 493 410 424 q 384 590 410 563 q 314 617 358 617 q 246 590 271 617 q 221 493 221 563 q 245 397 221 424 q 314 371 269 371 m 326 -167 q 446 -85 446 -167 q 415 -30 446 -44 q 318 -4 385 -15 l 261 7 q 218 -32 233 -8 q 203 -86 203 -56 q 237 -148 203 -129 q 326 -167 271 -167 z "},"ğ":{"ha":654,"x_min":53,"x_max":622,"o":"m 311 -294 q 120 -250 188 -294 q 53 -114 53 -206 q 160 54 53 0 l 160 57 q 121 101 135 74 q 107 161 107 128 q 174 283 107 236 q 72 492 72 344 q 138 673 72 610 q 317 736 204 736 q 399 726 361 736 l 589 726 q 615 713 607 726 q 622 672 622 700 l 622 651 q 615 611 622 624 q 592 599 608 599 q 535 603 556 599 l 532 599 q 558 489 558 557 q 499 318 558 381 q 336 251 439 256 q 276 235 297 250 q 254 189 254 219 q 283 142 254 156 q 374 119 313 129 l 418 111 q 547 53 500 94 q 594 -72 594 13 q 520 -236 594 -178 q 311 -294 446 -294 m 314 371 q 384 397 358 371 q 410 493 410 424 q 384 590 410 563 q 314 617 358 617 q 246 590 271 617 q 221 493 221 563 q 245 397 221 424 q 314 371 269 371 m 326 -167 q 446 -85 446 -167 q 415 -30 446 -44 q 318 -4 385 -15 l 261 7 q 218 -32 233 -8 q 203 -86 203 -56 q 237 -148 203 -129 q 326 -167 271 -167 m 318 803 q 191 847 238 803 q 144 956 144 890 q 189 993 144 993 q 211 986 203 993 q 226 965 219 979 q 258 931 239 943 q 319 918 276 918 q 384 931 365 918 q 414 967 403 944 q 449 993 424 993 q 493 956 493 993 q 447 847 493 892 q 318 803 400 803 z "},"ĝ":{"ha":654,"x_min":53,"x_max":622,"o":"m 311 -294 q 120 -250 188 -294 q 53 -114 53 -206 q 160 54 53 0 l 160 57 q 121 101 135 74 q 107 161 107 128 q 174 283 107 236 q 72 492 72 344 q 138 673 72 610 q 317 736 204 736 q 399 726 361 736 l 589 726 q 615 713 607 726 q 622 672 622 700 l 622 651 q 615 611 622 624 q 592 599 608 599 q 535 603 556 599 l 532 599 q 558 489 558 557 q 499 318 558 381 q 336 251 439 256 q 276 235 297 250 q 254 189 254 219 q 283 142 254 156 q 374 119 313 129 l 418 111 q 547 53 500 94 q 594 -72 594 13 q 520 -236 594 -178 q 311 -294 446 -294 m 314 371 q 384 397 358 371 q 410 493 410 424 q 384 590 410 563 q 314 617 358 617 q 246 590 271 617 q 221 493 221 563 q 245 397 221 424 q 314 371 269 371 m 326 -167 q 446 -85 446 -167 q 415 -30 446 -44 q 318 -4 385 -15 l 261 7 q 218 -32 233 -8 q 203 -86 203 -56 q 237 -148 203 -129 q 326 -167 271 -167 m 182 796 q 154 811 154 796 q 164 836 154 819 l 242 969 q 269 991 251 985 q 314 997 286 997 l 322 997 q 367 991 350 997 q 394 969 385 985 l 475 836 q 483 813 483 817 q 457 796 483 796 l 422 796 q 364 819 376 796 l 318 896 l 274 821 q 215 796 257 796 l 182 796 z "},"ģ":{"ha":607,"x_min":53,"x_max":622,"o":"m 347 1063 q 385 1056 368 1063 q 401 1036 401 1050 q 396 1001 401 1029 q 378 858 378 939 q 307 803 378 803 l 285 803 q 241 817 256 803 q 226 856 226 832 q 248 953 226 906 q 298 1032 269 1001 q 347 1063 326 1063 m 311 -294 q 120 -250 188 -294 q 53 -114 53 -206 q 160 54 53 0 l 160 57 q 121 101 135 74 q 107 161 107 128 q 174 283 107 236 q 72 492 72 344 q 138 673 72 610 q 317 736 204 736 q 399 726 361 736 l 589 726 q 615 713 607 726 q 622 672 622 700 l 622 651 q 615 611 622 624 q 592 599 608 599 q 535 603 556 599 l 532 599 q 558 489 558 557 q 499 318 558 381 q 336 251 439 256 q 276 235 297 250 q 254 189 254 219 q 283 142 254 156 q 374 119 313 129 l 418 111 q 547 53 500 94 q 594 -72 594 13 q 520 -236 594 -178 q 311 -294 446 -294 m 314 371 q 384 397 358 371 q 410 493 410 424 q 384 590 410 563 q 314 617 358 617 q 246 590 271 617 q 221 493 221 563 q 245 397 221 424 q 314 371 269 371 m 326 -167 q 446 -85 446 -167 q 415 -30 446 -44 q 318 -4 385 -15 l 261 7 q 218 -32 233 -8 q 203 -86 203 -56 q 237 -148 203 -129 q 326 -167 271 -167 z "},"ġ":{"ha":654,"x_min":53,"x_max":622,"o":"m 311 -294 q 120 -250 188 -294 q 53 -114 53 -206 q 160 54 53 0 l 160 57 q 121 101 135 74 q 107 161 107 128 q 174 283 107 236 q 72 492 72 344 q 138 673 72 610 q 317 736 204 736 q 399 726 361 736 l 589 726 q 615 713 607 726 q 622 672 622 700 l 622 651 q 615 611 622 624 q 592 599 608 599 q 535 603 556 599 l 532 599 q 558 489 558 557 q 499 318 558 381 q 336 251 439 256 q 276 235 297 250 q 254 189 254 219 q 283 142 254 156 q 374 119 313 129 l 418 111 q 547 53 500 94 q 594 -72 594 13 q 520 -236 594 -178 q 311 -294 446 -294 m 314 371 q 384 397 358 371 q 410 493 410 424 q 384 590 410 563 q 314 617 358 617 q 246 590 271 617 q 221 493 221 563 q 245 397 221 424 q 314 371 269 371 m 326 -167 q 446 -85 446 -167 q 415 -30 446 -44 q 318 -4 385 -15 l 261 7 q 218 -32 233 -8 q 203 -86 203 -56 q 237 -148 203 -129 q 326 -167 271 -167 m 321 817 q 236 857 236 817 l 236 935 q 319 975 236 975 q 404 935 404 975 l 404 857 q 321 817 404 817 z "},"h":{"ha":674,"x_min":85,"x_max":599,"o":"m 156 -3 q 85 38 85 -3 l 85 1007 q 156 1046 85 1046 l 193 1046 q 263 1007 263 1046 l 263 643 q 337 710 293 685 q 435 736 381 736 q 555 685 511 736 q 599 535 599 635 l 599 38 q 528 -3 599 -3 l 493 -3 q 439 7 456 -3 q 422 38 422 17 l 422 500 q 351 590 422 590 q 297 571 321 590 q 263 528 274 551 l 263 38 q 245 7 263 17 q 192 -3 228 -3 l 156 -3 z "},"ħ":{"ha":654,"x_min":-10,"x_max":599,"o":"m 435 736 q 555 685 511 736 q 599 535 599 635 l 599 38 q 528 -3 599 -3 l 493 -3 q 439 7 456 -3 q 422 38 422 17 l 422 500 q 351 590 422 590 q 297 571 321 590 q 263 528 274 551 l 263 38 q 245 7 263 17 q 192 -3 228 -3 l 156 -3 q 85 38 85 -3 l 85 817 l 33 817 q 1 828 11 817 q -10 868 -10 840 l -10 886 q 1 926 -10 914 q 33 938 11 938 l 85 938 l 85 1007 q 156 1046 85 1046 l 193 1046 q 263 1007 263 1046 l 263 938 l 351 938 q 385 926 375 938 q 394 886 394 914 l 394 868 q 385 828 394 840 q 351 817 375 817 l 263 817 l 263 643 q 337 710 293 685 q 435 736 381 736 z "},"ĥ":{"ha":674,"x_min":10,"x_max":599,"o":"m 156 -3 q 85 38 85 -3 l 85 1007 q 156 1046 85 1046 l 193 1046 q 263 1007 263 1046 l 263 643 q 337 710 293 685 q 435 736 381 736 q 555 685 511 736 q 599 535 599 635 l 599 38 q 528 -3 599 -3 l 493 -3 q 439 7 456 -3 q 422 38 422 17 l 422 500 q 351 590 422 590 q 297 571 321 590 q 263 528 274 551 l 263 38 q 245 7 263 17 q 192 -3 228 -3 l 156 -3 m 38 1085 q 10 1100 10 1085 q 19 1125 10 1108 l 97 1258 q 124 1280 107 1274 q 169 1286 142 1286 l 178 1286 q 223 1280 206 1286 q 250 1258 240 1274 l 331 1125 q 339 1101 339 1106 q 313 1085 339 1085 l 278 1085 q 219 1108 232 1085 l 174 1185 l 129 1110 q 71 1085 113 1085 l 38 1085 z "},"ḥ":{"ha":674,"x_min":85,"x_max":599,"o":"m 156 -3 q 85 38 85 -3 l 85 1007 q 156 1046 85 1046 l 193 1046 q 263 1007 263 1046 l 263 643 q 337 710 293 685 q 435 736 381 736 q 555 685 511 736 q 599 535 599 635 l 599 38 q 528 -3 599 -3 l 493 -3 q 439 7 456 -3 q 422 38 422 17 l 422 500 q 351 590 422 590 q 297 571 321 590 q 263 528 274 551 l 263 38 q 245 7 263 17 q 192 -3 228 -3 l 156 -3 m 343 -269 q 258 -229 258 -269 l 258 -151 q 342 -111 258 -111 q 426 -151 426 -111 l 426 -229 q 343 -269 426 -269 z "},"i":{"ha":353,"x_min":89,"x_max":264,"o":"m 163 -3 q 89 38 89 -3 l 89 689 q 163 729 89 729 l 190 729 q 264 689 264 729 l 264 38 q 190 -3 264 -3 l 163 -3 m 179 817 q 94 857 94 817 l 94 935 q 178 975 94 975 q 263 935 263 975 l 263 857 q 179 817 263 817 z "},"ı":{"ha":353,"x_min":89,"x_max":264,"o":"m 163 -3 q 89 38 89 -3 l 89 689 q 163 729 89 729 l 190 729 q 264 689 264 729 l 264 38 q 190 -3 264 -3 l 163 -3 z "},"í":{"ha":353,"x_min":89,"x_max":361,"o":"m 163 -3 q 89 38 89 -3 l 89 689 q 163 729 89 729 l 190 729 q 264 689 264 729 l 264 38 q 190 -3 264 -3 l 163 -3 m 156 803 q 127 807 135 803 q 119 822 119 811 q 128 849 119 829 q 148 890 138 869 q 164 921 158 911 l 194 982 q 293 1018 211 1018 q 345 1014 329 1018 q 361 1000 361 1010 q 353 977 361 990 q 307 917 344 964 l 244 835 q 214 811 233 819 q 156 803 194 803 z "},"ĭ":{"ha":353,"x_min":3,"x_max":351,"o":"m 163 -3 q 89 38 89 -3 l 89 689 q 163 729 89 729 l 190 729 q 264 689 264 729 l 264 38 q 190 -3 264 -3 l 163 -3 m 176 803 q 49 847 96 803 q 3 956 3 890 q 47 993 3 993 q 69 986 61 993 q 85 965 78 979 q 116 931 97 943 q 178 918 135 918 q 242 931 224 918 q 272 967 261 944 q 307 993 282 993 q 351 956 351 993 q 305 847 351 892 q 176 803 258 803 z "},"î":{"ha":353,"x_min":13,"x_max":342,"o":"m 163 -3 q 89 38 89 -3 l 89 689 q 163 729 89 729 l 190 729 q 264 689 264 729 l 264 38 q 190 -3 264 -3 l 163 -3 m 40 796 q 13 811 13 796 q 22 836 13 819 l 100 969 q 127 991 110 985 q 172 997 144 997 l 181 997 q 226 991 208 997 q 253 969 243 985 l 333 836 q 342 813 342 817 q 315 796 342 796 l 281 796 q 222 819 235 796 l 176 896 l 132 821 q 74 796 115 796 l 40 796 z "},"ï":{"ha":353,"x_min":4,"x_max":354,"o":"m 163 -3 q 89 38 89 -3 l 89 689 q 163 729 89 729 l 190 729 q 264 689 264 729 l 264 38 q 190 -3 264 -3 l 163 -3 m 76 817 q 4 857 4 817 l 4 935 q 75 975 4 975 q 146 935 146 975 l 146 857 q 76 817 146 817 m 283 817 q 213 857 213 817 l 213 935 q 282 975 213 975 q 354 935 354 975 l 354 857 q 283 817 354 817 z "},"ị":{"ha":353,"x_min":78,"x_max":264,"o":"m 163 -3 q 89 38 89 -3 l 89 689 q 163 729 89 729 l 190 729 q 264 689 264 729 l 264 38 q 190 -3 264 -3 l 163 -3 m 179 817 q 94 857 94 817 l 94 935 q 178 975 94 975 q 263 935 263 975 l 263 857 q 179 817 263 817 m 163 -269 q 78 -229 78 -269 l 78 -151 q 161 -111 78 -111 q 246 -151 246 -111 l 246 -229 q 163 -269 246 -269 z "},"ì":{"ha":353,"x_min":-3,"x_max":264,"o":"m 163 -3 q 89 38 89 -3 l 89 689 q 163 729 89 729 l 190 729 q 264 689 264 729 l 264 38 q 190 -3 264 -3 l 163 -3 m 203 803 q 145 812 164 803 q 115 835 126 821 l 53 915 q 6 977 15 964 q -3 1000 -3 990 q 14 1014 -3 1010 q 67 1018 31 1018 q 167 982 146 1018 q 220 872 201 911 q 239 822 239 832 q 231 807 239 811 q 203 803 224 803 z "},"ỉ":{"ha":353,"x_min":83,"x_max":338,"o":"m 163 -3 q 89 38 89 -3 l 89 689 q 163 729 89 729 l 190 729 q 264 689 264 729 l 264 38 q 190 -3 264 -3 l 163 -3 m 203 789 q 160 799 183 789 q 138 818 138 808 q 149 837 138 826 q 174 858 160 847 q 215 894 200 878 q 229 929 229 910 q 215 953 229 944 q 182 963 201 963 q 142 954 160 963 q 122 946 125 946 q 99 966 114 946 q 83 1000 83 986 q 120 1028 83 1014 q 193 1043 157 1043 q 297 1016 257 1043 q 338 936 338 989 q 310 867 338 900 q 250 811 283 833 q 203 789 217 789 z "},"ĳ":{"ha":699,"x_min":89,"x_max":617,"o":"m 163 -3 q 89 38 89 -3 l 89 689 q 163 729 89 729 l 190 729 q 264 689 264 729 l 264 38 q 190 -3 264 -3 l 163 -3 m 179 817 q 94 857 94 817 l 94 935 q 178 975 94 975 q 263 935 263 975 l 263 857 q 179 817 263 817 m 443 -294 q 352 -281 385 -294 q 319 -233 319 -268 q 330 -178 319 -208 q 357 -147 340 -147 q 376 -151 364 -147 q 401 -154 389 -154 q 432 -137 422 -154 q 442 -82 442 -121 l 442 689 q 515 729 442 729 l 543 729 q 617 689 617 729 l 617 -83 q 567 -242 617 -190 q 443 -294 517 -294 m 532 817 q 447 857 447 817 l 447 935 q 531 975 447 975 q 615 935 615 975 l 615 857 q 532 817 615 817 z "},"ī":{"ha":353,"x_min":10,"x_max":350,"o":"m 163 -3 q 89 38 89 -3 l 89 689 q 163 729 89 729 l 190 729 q 264 689 264 729 l 264 38 q 190 -3 264 -3 l 163 -3 m 46 836 q 18 849 26 836 q 10 888 10 861 l 10 906 q 18 944 10 932 q 46 957 26 957 l 314 957 q 342 945 333 957 q 350 906 350 933 l 350 888 q 342 848 350 860 q 314 836 333 836 l 46 836 z "},"į":{"ha":353,"x_min":89,"x_max":369,"o":"m 179 817 q 94 857 94 817 l 94 935 q 178 975 94 975 q 263 935 263 975 l 263 857 q 179 817 263 817 m 333 -147 q 360 -156 351 -147 q 369 -186 369 -165 q 349 -228 369 -214 q 265 -247 310 -247 q 160 -206 188 -247 q 133 -119 133 -165 q 140 -65 133 -96 q 163 -3 147 -33 q 89 38 89 -3 l 89 689 q 163 729 89 729 l 190 729 q 264 689 264 729 l 264 38 q 250 10 264 19 q 224 -93 224 -43 q 292 -154 224 -154 q 315 -151 303 -154 q 333 -147 326 -147 z "},"ĩ":{"ha":317,"x_min":-31,"x_max":357,"o":"m -7 817 q -31 846 -31 825 q -26 867 -31 853 q 18 938 -10 913 q 85 963 46 963 q 169 938 111 963 q 236 917 217 917 q 256 922 247 917 q 274 943 264 928 q 306 967 289 967 q 322 963 314 967 l 333 958 q 357 929 357 950 q 353 908 357 919 q 309 838 338 864 q 243 813 281 813 q 156 838 214 813 q 90 858 108 858 q 72 853 81 858 q 53 831 64 847 q 22 808 39 808 q 7 811 18 808 l -7 817 m 163 -3 q 89 38 89 -3 l 89 689 q 163 729 89 729 l 190 729 q 264 689 264 729 l 264 38 q 190 -3 264 -3 l 163 -3 z "},"j":{"ha":346,"x_min":-33,"x_max":264,"o":"m 90 -294 q -1 -281 32 -294 q -33 -233 -33 -268 q -23 -178 -33 -208 q 4 -147 -12 -147 q 24 -151 11 -147 q 49 -154 36 -154 q 79 -137 69 -154 q 89 -82 89 -121 l 89 689 q 163 729 89 729 l 190 729 q 264 689 264 729 l 264 -83 q 214 -242 264 -190 q 90 -294 164 -294 m 179 817 q 94 857 94 817 l 94 935 q 178 975 94 975 q 263 935 263 975 l 263 857 q 179 817 263 817 z "},"ȷ":{"ha":346,"x_min":-33,"x_max":264,"o":"m 90 -294 q -1 -281 32 -294 q -33 -233 -33 -268 q -23 -178 -33 -208 q 4 -147 -12 -147 q 24 -151 11 -147 q 49 -154 36 -154 q 79 -137 69 -154 q 89 -82 89 -121 l 89 689 q 163 729 89 729 l 190 729 q 264 689 264 729 l 264 -83 q 214 -242 264 -190 q 90 -294 164 -294 z "},"ĵ":{"ha":346,"x_min":-33,"x_max":342,"o":"m 90 -294 q -1 -281 32 -294 q -33 -233 -33 -268 q -23 -178 -33 -208 q 4 -147 -12 -147 q 24 -151 11 -147 q 49 -154 36 -154 q 79 -137 69 -154 q 89 -82 89 -121 l 89 689 q 163 729 89 729 l 190 729 q 264 689 264 729 l 264 -83 q 214 -242 264 -190 q 90 -294 164 -294 m 40 796 q 13 811 13 796 q 22 836 13 819 l 100 969 q 127 991 110 985 q 172 997 144 997 l 181 997 q 226 991 208 997 q 253 969 243 985 l 333 836 q 342 813 342 817 q 315 796 342 796 l 281 796 q 222 819 235 796 l 176 896 l 132 821 q 74 796 115 796 l 40 796 z "},"k":{"ha":628,"x_min":89,"x_max":611,"o":"m 603 44 q 611 18 611 26 q 546 -3 611 -3 l 485 -3 q 449 2 460 -3 q 433 21 439 7 l 278 347 l 264 347 l 264 38 q 194 -3 264 -3 l 160 -3 q 89 38 89 -3 l 89 1007 q 160 1046 89 1046 l 194 1046 q 264 1007 264 1046 l 264 414 l 271 414 l 418 706 q 437 725 426 721 q 474 729 447 729 l 531 729 q 596 707 596 729 q 586 678 596 697 l 431 381 l 603 44 z "},"ķ":{"ha":628,"x_min":89,"x_max":611,"o":"m 603 44 q 611 18 611 26 q 546 -3 611 -3 l 485 -3 q 449 2 460 -3 q 433 21 439 7 l 278 347 l 264 347 l 264 38 q 194 -3 264 -3 l 160 -3 q 89 38 89 -3 l 89 1007 q 160 1046 89 1046 l 194 1046 q 264 1007 264 1046 l 264 414 l 271 414 l 418 706 q 437 725 426 721 q 474 729 447 729 l 531 729 q 596 707 596 729 q 586 678 596 697 l 431 381 l 603 44 m 279 -331 q 242 -324 258 -331 q 225 -304 225 -318 q 231 -269 225 -297 q 249 -126 249 -207 q 319 -71 249 -71 l 342 -71 q 385 -85 371 -71 q 400 -124 400 -100 q 378 -222 400 -174 q 328 -300 357 -269 q 279 -331 300 -331 z "},"ĸ":{"ha":628,"x_min":89,"x_max":611,"o":"m 160 -3 q 89 38 89 -3 l 89 689 q 160 729 89 729 l 194 729 q 264 689 264 729 l 264 432 l 271 432 l 410 706 q 431 725 417 721 q 474 729 446 729 l 524 729 q 589 707 589 729 q 578 676 589 699 l 419 396 l 603 44 q 611 18 611 29 q 546 -3 611 -3 l 490 -3 q 447 2 463 -3 q 424 21 431 7 l 272 343 l 264 343 l 264 38 q 194 -3 264 -3 l 160 -3 z "},"l":{"ha":375,"x_min":82,"x_max":368,"o":"m 250 -10 q 128 38 174 -10 q 82 186 82 85 l 82 1007 q 156 1046 82 1046 l 183 1046 q 257 1007 257 1046 l 257 188 q 267 144 257 157 q 296 131 276 131 q 316 133 306 131 q 332 136 326 136 q 358 103 347 136 q 368 47 368 71 q 331 4 368 18 q 250 -10 294 -10 z "},"ĺ":{"ha":375,"x_min":82,"x_max":368,"o":"m 250 -10 q 128 38 174 -10 q 82 186 82 85 l 82 1007 q 156 1046 82 1046 l 183 1046 q 257 1007 257 1046 l 257 188 q 267 144 257 157 q 296 131 276 131 q 316 133 306 131 q 332 136 326 136 q 358 103 347 136 q 368 47 368 71 q 331 4 368 18 q 250 -10 294 -10 m 147 1076 q 119 1081 126 1076 q 111 1096 111 1085 q 120 1123 111 1103 q 140 1164 129 1143 q 156 1194 150 1185 l 186 1256 q 285 1292 203 1292 q 337 1288 321 1292 q 353 1274 353 1283 q 344 1251 353 1264 q 299 1190 336 1238 l 236 1108 q 206 1085 225 1093 q 147 1076 186 1076 z "},"ľ":{"ha":375,"x_min":82,"x_max":469,"o":"m 250 -10 q 128 38 174 -10 q 82 186 82 85 l 82 1007 q 156 1046 82 1046 l 183 1046 q 257 1007 257 1046 l 257 188 q 267 144 257 157 q 296 131 276 131 q 316 133 306 131 q 332 136 326 136 q 358 103 347 136 q 368 47 368 71 q 331 4 368 18 q 250 -10 294 -10 m 364 718 q 326 725 343 718 q 310 746 310 732 q 311 792 310 772 q 314 825 313 811 q 319 918 319 883 q 335 959 319 944 q 383 974 351 974 l 406 974 q 453 959 436 974 q 469 921 469 944 q 451 826 469 872 q 408 749 433 779 q 364 718 382 719 z "},"ļ":{"ha":375,"x_min":82,"x_max":368,"o":"m 250 -10 q 128 38 174 -10 q 82 186 82 85 l 82 1007 q 156 1046 82 1046 l 183 1046 q 257 1007 257 1046 l 257 188 q 267 144 257 157 q 296 131 276 131 q 316 133 306 131 q 332 136 326 136 q 358 103 347 136 q 368 47 368 71 q 331 4 368 18 q 250 -10 294 -10 m 169 -331 q 132 -324 149 -331 q 115 -304 115 -318 q 121 -269 115 -297 q 139 -126 139 -207 q 210 -71 139 -71 l 232 -71 q 276 -85 261 -71 q 290 -124 290 -100 q 269 -222 290 -174 q 219 -300 247 -269 q 169 -331 190 -331 z "},"ŀ":{"ha":429,"x_min":82,"x_max":460,"o":"m 250 -10 q 128 38 174 -10 q 82 186 82 85 l 82 1007 q 156 1046 82 1046 l 183 1046 q 257 1007 257 1046 l 257 188 q 267 144 257 157 q 296 131 276 131 q 316 133 306 131 q 332 136 326 136 q 358 103 347 136 q 368 47 368 71 q 331 4 368 18 q 250 -10 294 -10 m 374 411 q 313 435 336 411 q 289 499 289 458 q 313 564 289 540 q 374 588 336 588 q 435 564 411 588 q 460 499 460 540 q 435 435 460 458 q 374 411 411 411 z "},"ǉ":{"ha":721,"x_min":82,"x_max":639,"o":"m 250 -10 q 128 38 174 -10 q 82 186 82 85 l 82 1007 q 156 1046 82 1046 l 183 1046 q 257 1007 257 1046 l 257 188 q 267 144 257 157 q 296 131 276 131 q 316 133 306 131 q 332 136 326 136 q 358 103 347 136 q 368 47 368 71 q 331 4 368 18 q 250 -10 294 -10 m 465 -294 q 374 -281 407 -294 q 342 -233 342 -268 q 352 -178 342 -208 q 379 -147 363 -147 q 399 -151 386 -147 q 424 -154 411 -154 q 454 -137 444 -154 q 464 -82 464 -121 l 464 689 q 538 729 464 729 l 565 729 q 639 689 639 729 l 639 -83 q 589 -242 639 -190 q 465 -294 539 -294 m 554 817 q 469 857 469 817 l 469 935 q 553 975 469 975 q 638 935 638 975 l 638 857 q 554 817 638 817 z "},"ł":{"ha":383,"x_min":29,"x_max":376,"o":"m 340 136 q 366 103 356 136 q 376 47 376 71 q 340 4 376 18 q 258 -10 303 -10 q 136 38 182 -10 q 90 186 90 85 l 90 456 l 63 439 q 43 432 49 432 q 29 457 29 432 l 29 478 q 63 533 29 515 l 90 550 l 90 1007 q 164 1046 90 1046 l 192 1046 q 265 1007 265 1046 l 265 656 l 313 683 q 331 690 321 690 q 344 665 344 690 l 344 644 q 337 613 344 625 q 313 589 329 600 l 265 561 l 265 188 q 275 144 265 157 q 304 131 285 131 q 324 133 314 131 q 340 136 335 136 z "},"m":{"ha":1000,"x_min":69,"x_max":922,"o":"m 761 736 q 880 685 838 736 q 922 532 922 633 l 922 38 q 851 -3 922 -3 l 817 -3 q 746 38 746 -3 l 746 497 q 730 567 746 543 q 679 590 714 590 q 631 574 653 590 q 592 535 608 558 l 592 529 l 592 38 q 521 -3 592 -3 l 485 -3 q 414 38 414 -3 l 414 497 q 398 567 414 543 q 347 590 382 590 q 294 571 317 590 q 260 528 272 551 l 260 38 q 242 7 260 17 q 189 -3 225 -3 l 153 -3 q 83 38 83 -3 l 83 496 q 76 633 83 592 q 69 682 69 675 q 117 715 69 704 q 201 725 165 725 q 233 709 225 725 q 245 669 242 693 q 251 632 249 646 q 327 707 282 678 q 429 736 372 736 q 522 711 483 736 q 576 636 560 686 q 655 708 607 681 q 761 736 703 736 z "},"n":{"ha":669,"x_min":69,"x_max":594,"o":"m 153 -3 q 83 38 83 -3 l 83 496 q 76 633 83 592 q 69 682 69 675 q 117 715 69 704 q 201 725 165 725 q 233 709 225 725 q 245 669 242 693 q 251 632 249 646 q 328 707 282 678 q 431 736 375 736 q 553 685 511 736 q 594 535 594 633 l 594 38 q 524 -3 594 -3 l 489 -3 q 417 38 417 -3 l 417 500 q 401 568 417 546 q 349 590 385 590 q 299 573 322 590 q 260 528 275 556 l 260 38 q 242 7 260 17 q 189 -3 225 -3 l 153 -3 z "},"ń":{"ha":669,"x_min":69,"x_max":594,"o":"m 153 -3 q 83 38 83 -3 l 83 496 q 76 633 83 592 q 69 682 69 675 q 117 715 69 704 q 201 725 165 725 q 233 709 225 725 q 245 669 242 693 q 251 632 249 646 q 328 707 282 678 q 431 736 375 736 q 553 685 511 736 q 594 535 594 633 l 594 38 q 524 -3 594 -3 l 489 -3 q 417 38 417 -3 l 417 500 q 401 568 417 546 q 349 590 385 590 q 299 573 322 590 q 260 528 275 556 l 260 38 q 242 7 260 17 q 189 -3 225 -3 l 153 -3 m 315 803 q 287 807 294 803 q 279 822 279 811 q 288 849 279 829 q 308 890 297 869 q 324 921 318 911 l 354 982 q 453 1018 371 1018 q 505 1014 489 1018 q 521 1000 521 1010 q 513 977 521 990 q 467 917 504 964 l 404 835 q 374 811 393 819 q 315 803 354 803 z "},"ŉ":{"ha":669,"x_min":1,"x_max":594,"o":"m 56 742 q 18 748 35 742 q 1 768 1 754 q 7 803 1 775 q 25 946 25 867 q 96 1001 25 1001 l 118 1001 q 163 988 149 1001 q 176 949 176 974 q 155 851 176 899 q 105 772 133 803 q 56 742 76 742 m 153 -3 q 83 38 83 -3 l 83 496 q 76 633 83 592 q 69 682 69 675 q 117 715 69 704 q 201 725 165 725 q 233 709 225 725 q 245 669 242 693 q 251 632 249 646 q 328 707 282 678 q 431 736 375 736 q 553 685 511 736 q 594 535 594 633 l 594 38 q 524 -3 594 -3 l 489 -3 q 417 38 417 -3 l 417 500 q 401 568 417 546 q 349 590 385 590 q 299 573 322 590 q 260 528 275 556 l 260 38 q 242 7 260 17 q 189 -3 225 -3 l 153 -3 z "},"ň":{"ha":669,"x_min":69,"x_max":594,"o":"m 153 -3 q 83 38 83 -3 l 83 496 q 76 633 83 592 q 69 682 69 675 q 117 715 69 704 q 201 725 165 725 q 233 709 225 725 q 245 669 242 693 q 251 632 249 646 q 328 707 282 678 q 431 736 375 736 q 553 685 511 736 q 594 535 594 633 l 594 38 q 524 -3 594 -3 l 489 -3 q 417 38 417 -3 l 417 500 q 401 568 417 546 q 349 590 385 590 q 299 573 322 590 q 260 528 275 556 l 260 38 q 242 7 260 17 q 189 -3 225 -3 l 153 -3 m 332 800 q 288 806 304 800 q 261 828 271 813 l 183 961 q 174 985 174 976 q 201 1000 174 1000 l 235 1000 q 293 976 275 1000 l 338 900 l 383 976 q 442 1000 396 1000 l 476 1000 q 503 985 503 1000 q 494 961 503 978 l 414 828 q 388 806 404 813 q 344 800 371 800 l 332 800 z "},"ņ":{"ha":669,"x_min":69,"x_max":594,"o":"m 153 -3 q 83 38 83 -3 l 83 496 q 76 633 83 592 q 69 682 69 675 q 117 715 69 704 q 201 725 165 725 q 233 709 225 725 q 245 669 242 693 q 251 632 249 646 q 328 707 282 678 q 431 736 375 736 q 553 685 511 736 q 594 535 594 633 l 594 38 q 524 -3 594 -3 l 489 -3 q 417 38 417 -3 l 417 500 q 401 568 417 546 q 349 590 385 590 q 299 573 322 590 q 260 528 275 556 l 260 38 q 242 7 260 17 q 189 -3 225 -3 l 153 -3 m 292 -331 q 254 -324 271 -331 q 238 -304 238 -318 q 243 -269 238 -297 q 261 -126 261 -207 q 332 -71 261 -71 l 354 -71 q 398 -85 383 -71 q 413 -124 413 -100 q 391 -222 413 -174 q 341 -300 369 -269 q 292 -331 313 -331 z "},"ṅ":{"ha":669,"x_min":69,"x_max":594,"o":"m 153 -3 q 83 38 83 -3 l 83 496 q 76 633 83 592 q 69 682 69 675 q 117 715 69 704 q 201 725 165 725 q 233 709 225 725 q 245 669 242 693 q 251 632 249 646 q 328 707 282 678 q 431 736 375 736 q 553 685 511 736 q 594 535 594 633 l 594 38 q 524 -3 594 -3 l 489 -3 q 417 38 417 -3 l 417 500 q 401 568 417 546 q 349 590 385 590 q 299 573 322 590 q 260 528 275 556 l 260 38 q 242 7 260 17 q 189 -3 225 -3 l 153 -3 m 339 817 q 254 857 254 817 l 254 935 q 338 975 254 975 q 422 935 422 975 l 422 857 q 339 817 422 817 z "},"ŋ":{"ha":669,"x_min":69,"x_max":594,"o":"m 417 -294 q 326 -281 358 -294 q 294 -233 294 -268 q 305 -178 294 -208 q 332 -147 315 -147 q 351 -151 338 -147 q 376 -154 364 -154 q 407 -137 397 -154 q 417 -82 417 -121 l 417 500 q 401 568 417 546 q 349 590 385 590 q 299 573 322 590 q 260 528 275 556 l 260 38 q 242 7 260 17 q 189 -3 225 -3 l 153 -3 q 83 38 83 -3 l 83 496 q 76 633 83 592 q 69 682 69 675 q 117 715 69 704 q 201 725 165 725 q 233 709 225 725 q 245 669 242 693 q 251 632 249 646 q 328 707 282 678 q 431 736 375 736 q 553 685 511 736 q 594 535 594 633 l 594 -83 q 544 -242 594 -190 q 417 -294 493 -294 z "},"ǌ":{"ha":1015,"x_min":69,"x_max":933,"o":"m 153 -3 q 83 38 83 -3 l 83 496 q 76 633 83 592 q 69 682 69 675 q 117 715 69 704 q 201 725 165 725 q 233 709 225 725 q 245 669 242 693 q 251 632 249 646 q 328 707 282 678 q 431 736 375 736 q 553 685 511 736 q 594 535 594 633 l 594 38 q 524 -3 594 -3 l 489 -3 q 417 38 417 -3 l 417 500 q 401 568 417 546 q 349 590 385 590 q 299 573 322 590 q 260 528 275 556 l 260 38 q 242 7 260 17 q 189 -3 225 -3 l 153 -3 m 760 -294 q 669 -281 701 -294 q 636 -233 636 -268 q 647 -178 636 -208 q 674 -147 657 -147 q 693 -151 681 -147 q 718 -154 706 -154 q 749 -137 739 -154 q 758 -82 758 -121 l 758 689 q 832 729 758 729 l 860 729 q 933 689 933 729 l 933 -83 q 883 -242 933 -190 q 760 -294 833 -294 m 849 817 q 764 857 764 817 l 764 935 q 847 975 764 975 q 932 935 932 975 l 932 857 q 849 817 932 817 z "}}}
